<svg width="80" height="93" viewBox="0 0 80 93" fill="none" xmlns="http://www.w3.org/2000/svg">
<path d="M54.1541 79.3568C53.8699 79.3594 53.5883 79.3027 53.3272 79.1902C53.0662 79.0778 52.8315 78.9121 52.6381 78.7038L47.7661 73.8038C45.7661 71.7898 48.8491 68.6878 50.8521 70.7558L54.1521 74.0758L65.1431 63.0838C67.1431 61.0158 70.2321 64.1178 68.1751 66.1318L55.6701 78.7038C55.4801 78.9163 55.246 79.0848 54.9842 79.1976C54.7223 79.3104 54.4391 79.3647 54.1541 79.3568ZM58.0001 92.9638C54.7494 92.9636 51.54 92.235 48.6078 90.8316C45.6756 89.4282 43.0952 87.3855 41.0561 84.8538H11.1171C9.66211 84.8529 8.22163 84.5647 6.87832 84.0056C5.53502 83.4466 4.31534 82.6278 3.2893 81.5962C2.26326 80.5645 1.45106 79.3404 0.899308 77.9941C0.347557 76.6478 0.0671228 75.2058 0.0741017 73.7508V11.1598C0.0690484 8.22387 1.22894 5.40583 3.29925 3.32408C5.36956 1.24234 8.18117 0.0669396 11.1171 0.0558199H47.2791C47.5766 0.0521413 47.8713 0.113613 48.1425 0.235921C48.4137 0.358229 48.6549 0.538411 48.8491 0.76382L66.6001 18.5618C66.8763 18.789 67.0906 19.0823 67.2232 19.4145C67.3557 19.7466 67.4021 20.1069 67.3581 20.4618V50.9458C71.8642 53.1006 75.507 56.7189 77.6922 61.2104C79.8774 65.7018 80.4759 70.8012 79.3901 75.6766C78.3043 80.5519 75.5982 84.9154 71.7135 88.055C67.8288 91.1946 62.9948 92.925 58.0001 92.9638ZM38.2391 80.4998C30.2271 63.9538 45.0061 45.1218 63.0331 49.4218V22.4218H47.2791C46.7039 22.4184 46.1534 22.1875 45.7478 21.7797C45.3422 21.3718 45.1144 20.82 45.1141 20.2448V4.40982H11.1141C10.23 4.41192 9.35491 4.58821 8.53893 4.92861C7.72295 5.26901 6.98204 5.76686 6.35854 6.39371C5.73503 7.02056 5.24115 7.76412 4.90511 8.58191C4.56908 9.3997 4.39747 10.2757 4.4001 11.1598V73.7508C4.39363 74.6359 4.56258 75.5135 4.8972 76.3329C5.23182 77.1523 5.72548 77.8972 6.34965 78.5248C6.97383 79.1523 7.71616 79.6499 8.53376 79.9889C9.35135 80.3279 10.228 80.5016 11.1131 80.4998H38.2391ZM58.0001 53.1778C54.4896 53.1529 51.0507 54.1714 48.1201 56.1042C45.1894 58.0369 42.8989 60.7968 41.5395 64.0335C40.18 67.2702 39.8127 70.8379 40.4843 74.2837C41.1559 77.7295 42.8361 80.8981 45.3116 83.3873C47.787 85.8766 50.9463 87.5743 54.3883 88.2651C57.8303 88.9558 61.3999 88.6084 64.6441 87.2669C67.8883 85.9254 70.6609 83.6504 72.6099 80.7305C74.5589 77.8106 75.5966 74.3774 75.5911 70.8668C75.6039 66.1885 73.7577 61.6967 70.4588 58.3794C67.1599 55.0621 62.6784 53.1911 58.0001 53.1778ZM49.4441 18.0718H59.9441L49.4441 7.50982V18.0718Z" fill="#FFB400"/>
<path d="M31.6342 75.6021H13.0662C12.4888 75.6021 11.9351 75.3727 11.5268 74.9644C11.1185 74.5561 10.8892 74.0024 10.8892 73.425C10.8892 72.8477 11.1185 72.2939 11.5268 71.8857C11.9351 71.4774 12.4888 71.248 13.0662 71.248H31.6342C32.2115 71.248 32.7653 71.4774 33.1735 71.8857C33.5818 72.2939 33.8112 72.8477 33.8112 73.425C33.8112 74.0024 33.5818 74.5561 33.1735 74.9644C32.7653 75.3727 32.2115 75.6021 31.6342 75.6021Z" fill="#FFB400"/>
<path d="M32.8792 64.6099H13.0662C12.4888 64.6099 11.9351 64.3805 11.5268 63.9722C11.1185 63.564 10.8892 63.0102 10.8892 62.4329C10.8892 61.8555 11.1185 61.3018 11.5268 60.8935C11.9351 60.4852 12.4888 60.2559 13.0662 60.2559H32.8792C35.6942 60.2529 35.6942 64.6099 32.8792 64.6099Z" fill="#FFB400"/>
<path d="M39.863 53.668H13.063C12.4856 53.668 11.9319 53.4386 11.5236 53.0303C11.1153 52.6221 10.886 52.0683 10.886 51.491C10.886 50.9136 11.1153 50.3599 11.5236 49.9516C11.9319 49.5433 12.4856 49.314 13.063 49.314H39.863C40.4404 49.314 40.9941 49.5433 41.4024 49.9516C41.8106 50.3599 42.04 50.9136 42.04 51.491C42.04 52.0683 41.8106 52.6221 41.4024 53.0303C40.9941 53.4386 40.4404 53.668 39.863 53.668Z" fill="#FFB400"/>
<path d="M46.7382 42.6728H13.0662C12.4888 42.6728 11.9351 42.4435 11.5268 42.0352C11.1185 41.627 10.8892 41.0732 10.8892 40.4958C10.8892 39.9185 11.1185 39.3647 11.5268 38.9565C11.9351 38.5482 12.4888 38.3188 13.0662 38.3188H46.7382C49.5532 38.3188 49.5532 42.6728 46.7382 42.6728Z" fill="#FFB400"/>
<path d="M54.371 31.6787H13.071C12.4937 31.6787 11.9399 31.4493 11.5317 31.0411C11.1234 30.6328 10.894 30.0791 10.894 29.5017C10.894 28.9243 11.1234 28.3706 11.5317 27.9623C11.9399 27.5541 12.4937 27.3247 13.071 27.3247H54.371C57.186 27.3247 57.186 31.6787 54.371 31.6787Z" fill="#FFB400"/>
<path d="M32.3381 21.6637H17.1801C16.6049 21.6603 16.0544 21.4294 15.6488 21.0216C15.2432 20.6137 15.0154 20.0619 15.0151 19.4867V8.70971C15.0154 8.13449 15.2432 7.58273 15.6488 7.17486C16.0544 6.76699 16.6049 6.53615 17.1801 6.53271H32.3381C32.9128 6.53694 33.4626 6.76813 33.8675 7.17591C34.2725 7.58369 34.4999 8.13501 34.5001 8.70971V19.4867C34.4999 20.0614 34.2725 20.6127 33.8675 21.0205C33.4626 21.4283 32.9128 21.6595 32.3381 21.6637ZM19.3461 17.3097H30.1731V10.8877H19.3461V17.3097Z" fill="#FFB400"/>
<path d="M41.0541 84.8547H11.1181C9.66331 84.8538 8.223 84.5656 6.87984 84.0068C5.53668 83.4479 4.31708 82.6294 3.291 81.5981C2.26492 80.5668 1.45257 79.3432 0.90053 77.9973C0.348492 76.6513 0.0676325 75.2096 0.0740833 73.7548V11.1596C0.070091 8.22417 1.23057 5.40702 3.30098 3.32611C5.37139 1.2452 8.18267 0.0706043 11.1181 0.0597498H47.2791C47.5767 0.0558012 47.8715 0.117055 48.1429 0.239193C48.4143 0.361331 48.6557 0.541424 48.8501 0.766781L66.6061 18.5666C66.8829 18.7943 67.0976 19.0885 67.2301 19.4216C67.3627 19.7547 67.4088 20.1159 67.3641 20.4716V50.9506C71.8678 53.1072 75.508 56.726 77.6911 61.217C79.8741 65.7079 80.4712 70.806 79.3849 75.6799C78.2986 80.5537 75.593 84.9158 71.7094 88.0546C67.8258 91.1934 62.9934 92.924 58.0001 92.9638C54.7491 92.964 51.5393 92.2357 48.6068 90.8325C45.6743 89.4292 43.0934 87.3865 41.0541 84.8547ZM40.4041 70.8666C40.4228 74.3422 41.4706 77.7344 43.4151 80.6152C45.3597 83.4959 48.1139 85.7363 51.3302 87.0534C54.5466 88.3706 58.0811 88.7055 61.4876 88.0161C64.8942 87.3267 68.0202 85.6437 70.4714 83.1796C72.9225 80.7155 74.589 77.5807 75.2604 74.1706C75.9318 70.7604 75.5782 67.2279 74.2441 64.0185C72.91 60.8091 70.6553 58.0667 67.7643 56.1374C64.8733 54.2081 61.4757 53.1781 58.0001 53.1777C53.3212 53.1917 48.8392 55.0627 45.539 58.3796C42.2389 61.6964 40.3905 66.1877 40.4001 70.8666H40.4041ZM4.40407 11.1596V73.7507C4.39759 74.6357 4.56655 75.5133 4.90117 76.3327C5.23579 77.1521 5.72945 77.8971 6.35362 78.5246C6.9778 79.1521 7.72014 79.6497 8.53774 79.9887C9.35533 80.3277 10.232 80.5014 11.1171 80.4997H38.2381C30.2261 63.9527 45.0051 45.1216 63.0321 49.4206V22.4206H47.2791C46.7039 22.4172 46.1534 22.1864 45.7478 21.7785C45.3421 21.3706 45.1143 20.8188 45.1141 20.2436V4.4096H11.1141C10.2299 4.41157 9.35478 4.5878 8.53874 4.92816C7.7227 5.26852 6.98176 5.76637 6.35823 6.39325C5.7347 7.02012 5.24082 7.76388 4.90483 8.58172C4.56884 9.39957 4.39731 10.2754 4.40007 11.1596H4.40407ZM49.4441 18.0717H59.9441L49.4441 7.51263V18.0717ZM52.6381 78.7038L47.7661 73.8036C45.7661 71.7906 48.8491 68.6888 50.8511 70.7568L54.1511 74.0766L65.1401 63.0827C67.1401 61.0147 70.2301 64.1168 68.1721 66.1308L55.6671 78.7038C55.4771 78.9163 55.243 79.0849 54.9812 79.1977C54.7193 79.3105 54.4361 79.3646 54.1511 79.3566C53.8674 79.3589 53.5864 79.3021 53.3259 79.1899C53.0655 79.0776 52.8312 78.9116 52.6381 78.7038ZM13.0661 75.6037C12.4887 75.6037 11.935 75.3743 11.5267 74.966C11.1185 74.5577 10.8891 74.0041 10.8891 73.4267C10.8891 72.8493 11.1185 72.2957 11.5267 71.8874C11.935 71.4791 12.4887 71.2497 13.0661 71.2497H31.6341C32.2115 71.2497 32.7652 71.4791 33.1734 71.8874C33.5817 72.2957 33.8111 72.8493 33.8111 73.4267C33.8111 74.0041 33.5817 74.5577 33.1734 74.966C32.7652 75.3743 32.2115 75.6037 31.6341 75.6037H13.0661ZM13.0661 64.6088C12.4887 64.6088 11.935 64.3794 11.5267 63.9711C11.1185 63.5629 10.8891 63.0092 10.8891 62.4318C10.8891 61.8544 11.1185 61.3005 11.5267 60.8923C11.935 60.484 12.4887 60.2548 13.0661 60.2548H32.8801C35.6941 60.2548 35.6941 64.6088 32.8801 64.6088H13.0661ZM13.0661 53.6696C12.4967 53.6574 11.9547 53.4228 11.5563 53.0158C11.1579 52.6088 10.9347 52.0617 10.9347 51.4921C10.9347 50.9226 11.1579 50.3757 11.5563 49.9687C11.9547 49.5617 12.4967 49.3268 13.0661 49.3146H39.8661C40.4355 49.3268 40.9775 49.5617 41.3759 49.9687C41.7743 50.3757 41.9974 50.9226 41.9974 51.4921C41.9974 52.0617 41.7743 52.6088 41.3759 53.0158C40.9775 53.4228 40.4355 53.6574 39.8661 53.6696H13.0661ZM13.0661 42.6757C12.4887 42.6757 11.935 42.4463 11.5267 42.038C11.1185 41.6298 10.8891 41.0761 10.8891 40.4987C10.8891 39.9213 11.1185 39.3677 11.5267 38.9594C11.935 38.5511 12.4887 38.3217 13.0661 38.3217H46.7381C49.5531 38.3217 49.5531 42.6757 46.7381 42.6757H13.0661ZM13.0661 31.6818C12.4887 31.6818 11.935 31.4524 11.5267 31.0441C11.1185 30.6359 10.8891 30.0822 10.8891 29.5048C10.8891 28.9274 11.1185 28.3735 11.5267 27.9653C11.935 27.557 12.4887 27.3278 13.0661 27.3278H54.3661C57.1811 27.3278 57.1811 31.6818 54.3661 31.6818H13.0661ZM17.1801 21.6667C16.6049 21.6632 16.0544 21.4325 15.6488 21.0246C15.2431 20.6167 15.0153 20.0649 15.0151 19.4897V8.70965C15.0153 8.13443 15.2431 7.58261 15.6488 7.17474C16.0544 6.76687 16.6049 6.53608 17.1801 6.53265H32.3381C32.9133 6.53608 33.4638 6.76687 33.8694 7.17474C34.275 7.58261 34.5028 8.13443 34.5031 8.70965V19.4858C34.5028 20.061 34.275 20.6126 33.8694 21.0204C33.4638 21.4283 32.9133 21.6593 32.3381 21.6628L17.1801 21.6667ZM19.3451 17.3127H30.1721V10.8908H19.3461L19.3451 17.3127Z" fill="#54AF3A"/>
</svg>
