<svg width="93" height="93" viewBox="0 0 93 93" fill="none" xmlns="http://www.w3.org/2000/svg">
<path d="M46.5 0.0502931C40.6808 0.0514798 34.9925 1.77818 30.1546 5.01205C25.3166 8.24592 21.5462 12.8417 19.3201 18.2184C17.094 23.595 16.5121 29.511 17.6481 35.2183C18.7842 40.9256 21.587 46.1679 25.7023 50.2823C29.8175 54.3967 35.0604 57.1985 40.7679 58.3334C46.4754 59.4682 52.3913 58.8852 57.7675 56.6579C63.1437 54.4307 67.7387 50.6594 70.9716 45.8208C74.2045 40.9821 75.93 35.2936 75.93 29.4743C75.9297 25.6099 75.1681 21.7834 73.6889 18.2133C72.2097 14.6432 70.0418 11.3994 67.309 8.66714C64.5761 5.93487 61.3319 3.76762 57.7615 2.28914C54.1911 0.810661 50.3645 0.0498991 46.5 0.0502931ZM72.753 27.9253H63.491C63.403 22.489 62.3216 17.1146 60.3 12.0673C61.5639 11.4004 62.7756 10.6393 63.925 9.79029C66.5196 12.0817 68.6354 14.8636 70.1505 17.976C71.6656 21.0884 72.5501 24.4697 72.753 27.9253ZM60.439 29.4743C60.4939 34.9767 59.4748 40.437 57.439 45.5493C50.4272 42.6997 42.5799 42.6997 35.568 45.5493C33.5323 40.437 32.5132 34.9767 32.568 29.4743C32.5132 23.9719 33.5323 18.5116 35.568 13.3993C39.0442 14.7963 42.7537 15.5214 46.5 15.5363C50.2474 15.5218 53.958 14.7966 57.435 13.3993C59.4722 18.5113 60.4926 23.9716 60.439 29.4743ZM61.415 7.79329C60.6268 8.33281 59.81 8.82921 58.968 9.28029C58.1596 7.73324 57.1773 6.28352 56.04 4.95929C57.9356 5.69212 59.7395 6.64319 61.415 7.79329ZM46.5 3.14729C50.186 3.14729 53.579 6.01229 56.088 10.5963C53.0354 11.8047 49.7832 12.4298 46.5 12.4393C43.2169 12.4298 39.9647 11.8047 36.912 10.5963C39.42 6.01029 42.812 3.14729 46.5 3.14729ZM36.957 4.95929C35.8202 6.28357 34.8381 7.73328 34.03 9.28029C33.1881 8.82921 32.3712 8.33281 31.583 7.79329C33.2583 6.64325 35.0618 5.69218 36.957 4.95929ZM29.073 9.79129C30.2231 10.64 31.4356 11.4008 32.7 12.0673C30.6785 17.1146 29.5971 22.489 29.509 27.9253H20.244C20.4473 24.4698 21.332 21.0886 22.8473 17.9764C24.3625 14.8642 26.4784 12.0825 29.073 9.79129ZM20.244 31.0233H29.507C29.5957 36.4598 30.6778 41.8342 32.7 46.8813C31.4366 47.5482 30.2251 48.3093 29.076 49.1583C26.4807 46.8673 24.3642 44.0855 22.8484 40.9731C21.3327 37.8607 20.4475 34.4792 20.244 31.0233ZM31.583 51.1553C32.3712 50.6158 33.1881 50.1194 34.03 49.6683C34.8381 51.2153 35.8202 52.665 36.957 53.9893C35.0618 53.2564 33.2583 52.3053 31.583 51.1553ZM46.5 55.8013C42.814 55.8013 39.421 52.9363 36.912 48.3523C43.0679 45.895 49.9322 45.895 56.088 48.3523C53.577 52.9363 50.185 55.8013 46.5 55.8013ZM56.041 53.9893C57.1779 52.665 58.16 51.2153 58.968 49.6683C59.81 50.1194 60.6268 50.6158 61.415 51.1553C59.7395 52.3054 57.9366 53.2565 56.041 53.9893ZM63.925 49.1573C62.7756 48.3086 61.5638 47.5478 60.3 46.8813C62.3216 41.834 63.403 36.4596 63.491 31.0233H72.754C72.5507 34.4789 71.6658 37.8601 70.1504 40.9723C68.635 44.0845 66.5199 46.8662 63.925 49.1573Z" fill="#FFB400"/>
<path d="M86.771 12.4395C85.1275 12.4395 83.5513 13.092 82.3887 14.2536C81.2261 15.4153 80.5723 16.991 80.571 18.6345V43.9345C79.2764 43.6389 77.9213 43.765 76.7035 44.2943C75.4857 44.8236 74.4691 45.7283 73.802 46.8765L64.57 62.8765C63.8907 64.0539 63.5327 65.3891 63.532 66.7485V91.4205C63.532 91.6239 63.572 91.8253 63.6499 92.0132C63.7277 92.2012 63.8418 92.3719 63.9857 92.5158C64.1295 92.6596 64.3003 92.7737 64.4882 92.8515C64.6761 92.9294 64.8776 92.9695 65.081 92.9695H83.673C84.0838 92.9695 84.4778 92.8063 84.7683 92.5158C85.0588 92.2253 85.222 91.8313 85.222 91.4205V81.0605C85.2257 79.9538 85.6206 78.884 86.337 78.0405L91.108 72.4805C92.3057 71.0768 92.9647 69.2926 92.967 67.4474V18.6345C92.9657 16.9917 92.3124 15.4166 91.1507 14.255C89.989 13.0935 88.4138 12.4405 86.771 12.4395ZM82.124 89.8715H66.635V83.6775H82.124V89.8715ZM89.869 67.4474C89.868 68.5546 89.4727 69.6253 88.754 70.4675L83.983 76.0275C82.9068 77.3118 82.2717 78.9079 82.171 80.5805H66.635V66.7505C66.6386 65.9357 66.8521 65.1356 67.255 64.4275L76.502 48.4275C76.9356 47.7631 77.6073 47.2903 78.379 47.1063C79.1507 46.9223 79.9636 47.0411 80.6503 47.4383C81.337 47.8356 81.8452 48.481 82.0705 49.2416C82.2957 50.0023 82.2207 50.8204 81.861 51.5275L71.793 68.9655L74.473 70.5145L84.541 53.0765C85.211 51.9214 85.4887 50.5803 85.3323 49.2541C85.176 47.9279 84.5942 46.6881 83.674 45.7205V18.6345C83.674 17.8123 84.0006 17.0238 84.582 16.4424C85.1633 15.8611 85.9518 15.5345 86.774 15.5345C87.5962 15.5345 88.3847 15.8611 88.966 16.4424C89.5474 17.0238 89.874 17.8123 89.874 18.6345L89.869 67.4474Z" fill="#FFB400"/>
<path d="M28.423 62.8782L19.191 46.8782C18.5239 45.7301 17.5072 44.8253 16.2895 44.296C15.0717 43.7667 13.7165 43.6406 12.422 43.9362V18.6362C12.3609 17.0339 11.6815 15.5176 10.5263 14.4056C9.37105 13.2936 7.82996 12.6724 6.22651 12.6724C4.62306 12.6724 3.08196 13.2936 1.92676 14.4056C0.771552 15.5176 0.0920863 17.0339 0.0310059 18.6362V67.4472C0.0333217 69.2924 0.692313 71.0765 1.89001 72.4802L6.66001 78.0402C7.37635 78.8838 7.77129 79.9535 7.77501 81.0602V91.4202C7.77501 91.831 7.9382 92.225 8.2287 92.5155C8.51919 92.806 8.91319 92.9692 9.32401 92.9692H27.912C28.3228 92.9692 28.7168 92.806 29.0073 92.5155C29.2978 92.225 29.461 91.831 29.461 91.4202V66.7502C29.4602 65.3909 29.1023 64.0556 28.423 62.8782ZM26.363 89.8712H10.873V83.6772H26.363V89.8712ZM26.363 80.5792H10.827C10.7263 78.9066 10.0911 77.3106 9.01501 76.0262L4.24401 70.4662C3.52531 69.624 3.13003 68.5534 3.12901 67.4462V18.6342C3.12901 17.812 3.45561 17.0235 4.03697 16.4422C4.61834 15.8608 5.40683 15.5342 6.22901 15.5342C7.05118 15.5342 7.83967 15.8608 8.42104 16.4422C9.0024 17.0235 9.32901 17.812 9.32901 18.6342V45.7192C8.4088 46.6868 7.82694 47.9267 7.67064 49.2528C7.51433 50.579 7.79199 51.9201 8.46201 53.0752L18.525 70.5102L21.205 68.9612L11.137 51.5272C10.7329 50.8346 10.6129 50.0124 10.8021 49.2333C10.9913 48.4541 11.4751 47.7785 12.1518 47.3485C12.8286 46.9184 13.6456 46.7673 14.4314 46.9269C15.2172 47.0864 15.9106 47.5442 16.366 48.2042C16.4127 48.2775 16.4563 48.3529 16.497 48.4302L25.744 64.4302C26.1468 65.1384 26.3604 65.9384 26.364 66.7532L26.363 80.5792Z" fill="#FFB400"/>
<path d="M55.792 21.7312H51.146C49.6755 21.7327 48.2549 22.2654 47.146 23.2312C46.6073 22.3028 45.8342 21.5324 44.904 20.9969C43.9738 20.4614 42.9193 20.1798 41.846 20.1802H37.205C36.7942 20.1802 36.4002 20.3434 36.1097 20.6339C35.8192 20.9244 35.656 21.3184 35.656 21.7292V23.2802C35.6573 24.9237 36.3111 26.4994 37.4737 27.661C38.6363 28.8226 40.2125 29.4752 41.856 29.4752H44.81C44.3405 30.588 44.1274 31.7922 44.1864 32.9985C44.2455 34.2049 44.5751 35.3825 45.151 36.4442C45.849 37.6391 46.8496 38.629 48.052 39.3141C49.2544 39.9991 50.6162 40.3551 52 40.3462C52.2846 40.3467 52.5691 40.3314 52.852 40.3002L52.542 37.2342C51.6171 37.3433 50.6805 37.1803 49.8469 36.765C49.0133 36.3497 48.3189 35.7002 47.849 34.8962C47.5257 34.3097 47.3308 33.6611 47.2773 32.9935C47.2239 32.326 47.3131 31.6546 47.539 31.0242H51.148C52.7915 31.0242 54.3677 30.3717 55.5303 29.21C56.6929 28.0484 57.3467 26.4727 57.348 24.8292V23.2802C57.348 23.0762 57.3077 22.8742 57.2294 22.6858C57.1511 22.4974 57.0364 22.3263 56.8918 22.1824C56.7473 22.0385 56.5757 21.9245 56.3869 21.8471C56.1982 21.7696 55.996 21.7303 55.792 21.7312ZM41.852 26.3772C41.0304 26.3753 40.243 26.0481 39.662 25.4672C39.0811 24.8862 38.7539 24.0988 38.752 23.2772H41.852C42.6736 23.279 43.461 23.6062 44.042 24.1872C44.623 24.7682 44.9502 25.5556 44.952 26.3772H41.852ZM51.146 27.9262H48.046C48.0479 27.1046 48.3751 26.3172 48.956 25.7362C49.537 25.1552 50.3244 24.828 51.146 24.8262H54.246C54.2439 25.6476 53.9166 26.4348 53.3356 27.0155C52.7547 27.5963 51.9674 27.9243 51.146 27.9262Z" fill="#FFB400"/>
<path d="M65.086 92.9692C64.6752 92.9692 64.2812 92.8061 63.9907 92.5156C63.7002 92.2251 63.537 91.831 63.537 91.4202V66.7502C63.5377 65.3909 63.8956 64.0555 64.575 62.8782L73.806 46.8782C74.4731 45.73 75.4897 44.8251 76.7075 44.2956C77.9252 43.7662 79.2804 43.64 80.575 43.9353V18.6352C80.6361 17.033 81.3156 15.5165 82.4708 14.4045C83.626 13.2925 85.1671 12.6714 86.7705 12.6714C88.374 12.6714 89.915 13.2925 91.0703 14.4045C92.2255 15.5165 92.9049 17.033 92.966 18.6352V67.4482C92.9642 69.2935 92.3051 71.0778 91.107 72.4812L86.336 78.0412C85.6195 78.8847 85.2245 79.9545 85.221 81.0613V91.4223C85.221 91.8332 85.0578 92.2271 84.7673 92.5176C84.4768 92.8081 84.0828 92.9712 83.672 92.9712L65.086 92.9692ZM66.635 89.8691H82.124V83.6743H66.635V89.8691ZM76.502 48.4282L67.254 64.4282C66.8515 65.1365 66.6383 65.9366 66.635 66.7512V80.5803H82.171C82.272 78.9078 82.9071 77.3119 83.983 76.0273L88.754 70.4673C89.4731 69.6253 89.8684 68.5545 89.869 67.4473V18.6343C89.869 17.8121 89.5424 17.0235 88.9611 16.4421C88.3797 15.8608 87.5912 15.5342 86.769 15.5342C85.9468 15.5342 85.1583 15.8608 84.577 16.4421C83.9956 17.0235 83.669 17.8121 83.669 18.6343V45.7192C84.5895 46.6869 85.1715 47.9268 85.328 49.2532C85.4845 50.5795 85.207 51.9208 84.537 53.0762L74.472 70.5102L71.793 68.9612L81.861 51.5242C82.2208 50.8171 82.2957 49.9992 82.0705 49.2385C81.8453 48.4778 81.337 47.8323 80.6503 47.435C79.9636 47.0378 79.1507 46.919 78.379 47.103C77.6073 47.287 76.9356 47.76 76.502 48.4243V48.4282ZM9.32397 92.9673C8.91315 92.9673 8.51919 92.8042 8.2287 92.5137C7.9382 92.2232 7.77502 91.829 7.77502 91.4182V81.0603C7.77148 79.9536 7.37646 78.8838 6.65997 78.0403L1.88898 72.4802C0.691591 71.0764 0.0326944 69.2924 0.0300293 67.4473V18.6343C0.0877016 17.0295 0.765713 15.5096 1.92139 14.3948C3.07706 13.2799 4.62023 12.657 6.22601 12.657C7.8318 12.657 9.37497 13.2799 10.5306 14.3948C11.6863 15.5096 12.3643 17.0295 12.422 18.6343V43.9343C13.7165 43.6389 15.0716 43.7652 16.2892 44.2947C17.5068 44.8241 18.5232 45.729 19.19 46.8772L28.422 62.8772C29.101 64.0547 29.4589 65.39 29.46 66.7493V91.4192C29.46 91.83 29.2968 92.2241 29.0063 92.5146C28.7158 92.8051 28.3218 92.9682 27.911 92.9682L9.32397 92.9673ZM10.873 89.8672H26.363V83.6723H10.873V89.8672ZM3.12799 18.6291V67.4421C3.12945 68.5492 3.52466 69.6197 4.24298 70.4621L9.01398 76.0222C10.0905 77.3064 10.7261 78.9025 10.827 80.5752H26.363V66.7463C26.3597 65.9315 26.1462 65.1314 25.743 64.4233L16.496 48.4233C16.456 48.3463 16.412 48.2703 16.366 48.1963C15.9114 47.5343 15.2175 47.0744 14.4307 46.9138C13.6438 46.7532 12.8253 46.9044 12.1476 47.3352C11.4698 47.766 10.9857 48.443 10.7972 49.2236C10.6087 50.0043 10.7306 50.8276 11.137 51.5203L21.205 68.9582L18.525 70.5073L8.45801 53.0703C7.78791 51.9151 7.5102 50.5736 7.6665 49.2473C7.82281 47.921 8.40472 46.6809 9.32501 45.7131V18.6282C9.32501 17.806 8.99842 17.0176 8.41705 16.4363C7.83569 15.8549 7.04715 15.5283 6.22498 15.5283C5.4028 15.5283 4.61432 15.8549 4.03296 16.4363C3.4516 17.0176 3.125 17.806 3.125 18.6282L3.12799 18.6291ZM17.069 29.4692C17.068 23.6483 18.7932 17.9578 22.0265 13.1174C25.2597 8.277 29.8558 4.50409 35.2334 2.27587C40.611 0.0476418 46.5286 -0.535971 52.2378 0.599108C57.947 1.73419 63.1914 4.53681 67.3077 8.65257C71.4241 12.7683 74.2274 18.0124 75.3633 23.7214C76.4991 29.4305 75.9165 35.3482 73.689 40.7261C71.4615 46.104 67.6892 50.7006 62.8492 53.9346C58.0093 57.1685 52.3189 58.8945 46.498 58.8943C38.6945 58.8945 31.2104 55.7952 25.6918 50.2781C20.1731 44.7609 17.0719 37.2778 17.07 29.4744L17.069 29.4692ZM36.91 48.3472C39.419 52.9312 42.81 55.7952 46.498 55.7952C50.186 55.7952 53.577 52.9302 56.087 48.3472C49.9311 45.8899 43.0668 45.8899 36.911 48.3472H36.91ZM56.039 53.9844C57.9347 53.2517 59.7385 52.3004 61.414 51.1501C60.6256 50.6109 59.8088 50.1147 58.967 49.6633C58.1593 51.2121 57.1772 52.6634 56.04 53.9892L56.039 53.9844ZM31.582 51.1501C33.2574 52.3005 35.0612 53.2518 36.957 53.9844C35.8194 52.6604 34.837 51.2106 34.029 49.6633C33.1873 50.1164 32.3708 50.6147 31.583 51.1562L31.582 51.1501ZM60.299 46.8762C61.5624 47.5429 62.7737 48.3039 63.923 49.1523C66.5176 46.8611 68.6335 44.0792 70.1487 40.967C71.664 37.8548 72.5487 34.4738 72.752 31.0183H63.489C63.4021 36.4562 62.3213 41.8323 60.3 46.8813L60.299 46.8762ZM29.073 49.1523C30.2222 48.3039 31.4337 47.543 32.697 46.8762C30.6756 41.829 29.5945 36.4546 29.507 31.0183H20.244C20.4464 34.4748 21.3307 37.857 22.8462 40.9702C24.3617 44.0834 26.4782 46.8658 29.074 49.1572L29.073 49.1523ZM57.434 45.5442C61.4405 35.202 61.4405 23.7365 57.434 13.3943C50.422 16.2429 42.5751 16.2429 35.563 13.3943C31.5565 23.7365 31.5565 35.202 35.563 45.5442C42.5748 42.6942 50.4222 42.6942 57.434 45.5442ZM60.3 12.0622C62.321 17.1096 63.4021 22.4839 63.49 27.9202H72.753C72.5497 24.4647 71.665 21.0836 70.1497 17.9714C68.6345 14.8592 66.5186 12.0773 63.924 9.78612C62.775 10.6366 61.5635 11.3997 60.3 12.0683V12.0622ZM20.245 27.9202H29.508C29.5954 22.4839 30.6766 17.1095 32.698 12.0622C31.4347 11.3955 30.2232 10.6346 29.074 9.78612C26.4783 12.0777 24.3619 14.8605 22.8466 17.9739C21.3313 21.0872 20.4471 24.4696 20.245 27.9263V27.9202ZM36.911 10.5913C43.0668 13.0486 49.9311 13.0486 56.087 10.5913C53.577 6.0073 50.187 3.1433 46.498 3.1433C42.809 3.1433 39.42 6.01018 36.911 10.5962V10.5913ZM58.968 9.27513C59.8098 8.82379 60.6266 8.32759 61.415 7.78832C59.7395 6.6381 57.9356 5.68704 56.04 4.95433C57.1776 6.2801 58.16 7.73144 58.968 9.28026V9.27513ZM31.583 7.78832C32.3712 8.32779 33.1881 8.824 34.03 9.27513C34.8381 7.72786 35.8204 6.27831 36.958 4.95433C35.062 5.68843 33.2582 6.64107 31.583 7.7932V7.78832ZM52 40.3452H51.952C50.5767 40.3457 49.2252 39.986 48.0321 39.3017C46.839 38.6175 45.846 37.6327 45.152 36.4453C44.5762 35.3836 44.2467 34.2058 44.1877 32.9995C44.1287 31.7932 44.3416 30.5892 44.811 29.4763H41.853C40.2096 29.4763 38.6333 28.8237 37.4707 27.6621C36.3081 26.5005 35.6543 24.9247 35.653 23.2812V21.7322C35.6533 21.3215 35.8166 20.928 36.1071 20.6377C36.3975 20.3474 36.7914 20.1843 37.202 20.1843H41.849C42.2992 20.9644 42.9165 21.635 43.6567 22.1482C44.3969 22.6614 45.2416 23.0043 46.13 23.1523C47.0184 23.3003 47.9287 23.2497 48.7952 23.0041C49.6618 22.7586 50.4633 22.3242 51.142 21.7322H55.79C56.2008 21.7322 56.5948 21.8955 56.8853 22.186C57.1758 22.4765 57.339 22.8704 57.339 23.2812V24.8303C57.3377 26.4738 56.6839 28.0495 55.5213 29.2112C54.3587 30.3728 52.7825 31.0251 51.139 31.0251H47.53C47.3043 31.6555 47.2151 32.3267 47.2686 32.9941C47.322 33.6615 47.5168 34.3099 47.84 34.8962C48.3099 35.7004 49.0042 36.3499 49.8378 36.7654C50.6713 37.1808 51.608 37.3443 52.533 37.2353L52.843 40.3013C52.5674 40.3315 52.2903 40.3467 52.013 40.3472L52 40.3452ZM48.05 27.9253H51.15C51.9717 27.9237 52.7593 27.5966 53.3403 27.0156C53.9213 26.4346 54.2484 25.6469 54.25 24.8252H51.15C50.3279 24.8265 49.5398 25.1536 48.9584 25.7348C48.3769 26.3161 48.0496 27.1041 48.048 27.9263L48.05 27.9253ZM41.85 26.3762H44.95C44.9484 25.5545 44.6213 24.767 44.0403 24.186C43.4593 23.605 42.6717 23.2779 41.85 23.2764H38.75C38.7516 24.0985 39.0789 24.8863 39.6603 25.4675C40.2418 26.0488 41.0299 26.3759 41.852 26.3772L41.85 26.3762Z" fill="#54AF3A"/>
</svg>
