<svg width="86" height="93" viewBox="0 0 86 93" fill="none" xmlns="http://www.w3.org/2000/svg">
<path d="M61.4881 92.9513C61.1512 92.9513 60.8282 92.8175 60.59 92.5793C60.3519 92.3411 60.2181 92.0181 60.2181 91.6813C60.2181 91.3444 60.3519 91.0214 60.59 90.7832C60.8282 90.5451 61.1512 90.4113 61.4881 90.4113H70.3701C70.7069 90.4113 71.0299 90.5451 71.2681 90.7832C71.5063 91.0214 71.6401 91.3444 71.6401 91.6813C71.6401 92.0181 71.5063 92.3411 71.2681 92.5793C71.0299 92.8175 70.7069 92.9513 70.3701 92.9513H61.4881ZM15.6301 92.9513C15.2932 92.9513 14.9702 92.8175 14.732 92.5793C14.4939 92.3411 14.3601 92.0181 14.3601 91.6813C14.3601 91.3444 14.4939 91.0214 14.732 90.7832C14.9702 90.5451 15.2932 90.4113 15.6301 90.4113H24.5121C24.8489 90.4113 25.1719 90.5451 25.4101 90.7832C25.6483 91.0214 25.7821 91.3444 25.7821 91.6813C25.7821 92.0181 25.6483 92.3411 25.4101 92.5793C25.1719 92.8175 24.8489 92.9513 24.5121 92.9513H15.6301ZM70.9141 72.6333C70.5772 72.6333 70.2542 72.4995 70.016 72.2613C69.7779 72.0231 69.6441 71.7001 69.6441 71.3633C69.6441 71.0264 69.7779 70.7034 70.016 70.4652C70.2542 70.2271 70.5772 70.0933 70.9141 70.0933H83.4201C83.7569 70.0933 84.0799 70.2271 84.3181 70.4652C84.5563 70.7034 84.6901 71.0264 84.6901 71.3633C84.6901 71.7001 84.5563 72.0231 84.3181 72.2613C84.0799 72.4995 83.7569 72.6333 83.4201 72.6333H70.9141ZM2.58006 72.6333C2.24323 72.6333 1.9202 72.4995 1.68203 72.2613C1.44386 72.0231 1.31006 71.7001 1.31006 71.3633C1.31006 71.0264 1.44386 70.7034 1.68203 70.4652C1.9202 70.2271 2.24323 70.0933 2.58006 70.0933H15.0871C15.4239 70.0933 15.7469 70.2271 15.9851 70.4652C16.2233 70.7034 16.3571 71.0264 16.3571 71.3633C16.3571 71.7001 16.2233 72.0231 15.9851 72.2613C15.7469 72.4995 15.4239 72.6333 15.0871 72.6333H2.58006Z" fill="#FFB400"/>
<path d="M72.907 88.4163C72.7392 88.4205 72.5722 88.3904 72.4163 88.328C72.2604 88.2657 72.1189 88.1722 72.0002 88.0535C71.8815 87.9347 71.7882 87.793 71.7259 87.6371C71.6637 87.4812 71.6338 87.3142 71.638 87.1463V85.3323H63.3C63.1322 85.3365 62.9652 85.3064 62.8093 85.244C62.6534 85.1817 62.5119 85.0882 62.3932 84.9695C62.2745 84.8507 62.1812 84.709 62.1189 84.5531C62.0567 84.3972 62.0268 84.2302 62.031 84.0623V53.2223H44.269V74.0843H48.8C49.1296 74.1062 49.4399 74.247 49.6734 74.4807C49.9068 74.7143 50.0474 75.0248 50.069 75.3543V81.5223C50.0733 81.6902 50.0434 81.8572 49.9811 82.0131C49.9189 82.169 49.8256 82.3107 49.7069 82.4295C49.5882 82.5482 49.4466 82.6417 49.2907 82.704C49.1348 82.7664 48.9679 82.7965 48.8 82.7923H37.2C37.0322 82.7965 36.8652 82.7664 36.7093 82.704C36.5534 82.6417 36.4119 82.5482 36.2932 82.4295C36.1745 82.3107 36.0812 82.169 36.0189 82.0131C35.9567 81.8572 35.9268 81.6902 35.931 81.5223V75.3543C35.9526 75.0248 36.0932 74.7143 36.3267 74.4807C36.5601 74.247 36.8705 74.1062 37.2 74.0843H41.731V53.2223H23.968V84.0623C23.9723 84.2302 23.9424 84.3972 23.8801 84.5531C23.8179 84.709 23.7246 84.8507 23.6059 84.9695C23.4872 85.0882 23.3456 85.1817 23.1897 85.244C23.0338 85.3064 22.8669 85.3365 22.699 85.3323H14.361V87.1463C14.3653 87.3142 14.3354 87.4812 14.2731 87.6371C14.2109 87.793 14.1176 87.9347 13.9989 88.0535C13.8802 88.1722 13.7386 88.2657 13.5827 88.328C13.4268 88.3904 13.2599 88.4205 13.092 88.4163H1.31102C1.14317 88.4205 0.976224 88.3904 0.820333 88.328C0.664443 88.2657 0.522857 88.1722 0.404176 88.0535C0.285494 87.9347 0.192192 87.793 0.129937 87.6371C0.0676817 87.4812 0.0377717 87.3142 0.0420233 87.1463V80.9783C0.0380469 80.8107 0.0681606 80.6439 0.130539 80.4882C0.192918 80.3325 0.286262 80.1911 0.404915 80.0725C0.523568 79.954 0.665059 79.8607 0.820813 79.7985C0.976566 79.7362 1.14334 79.7062 1.31102 79.7103H13.093C13.2609 79.7062 13.4278 79.7363 13.5837 79.7986C13.7396 79.861 13.8812 79.9544 13.9999 80.0732C14.1186 80.192 14.2119 80.3336 14.2741 80.4896C14.3364 80.6455 14.3663 80.8125 14.362 80.9803V82.7943H21.43V53.2223H8.56102C7.84515 53.2046 7.16354 52.9121 6.65737 52.4056C6.1512 51.899 5.85926 51.2172 5.84202 50.5013V2.79034C5.85926 2.07445 6.1512 1.39262 6.65737 0.886082C7.16354 0.379541 7.84515 0.0871014 8.56102 0.0693359H77.439C78.1549 0.0871014 78.8365 0.379541 79.3427 0.886082C79.8488 1.39262 80.1408 2.07445 80.158 2.79034V50.5013C80.1408 51.2172 79.8488 51.899 79.3427 52.4056C78.8365 52.9121 78.1549 53.2046 77.439 53.2223H64.57V82.7923H71.639V80.9783C71.6348 80.8105 71.6647 80.6435 71.7269 80.4876C71.7892 80.3316 71.8825 80.19 72.0012 80.0712C72.1199 79.9524 72.2614 79.859 72.4173 79.7966C72.5732 79.7343 72.7402 79.7042 72.908 79.7083H84.689C84.8569 79.7042 85.0238 79.7343 85.1797 79.7966C85.3356 79.859 85.4772 79.9524 85.5959 80.0712C85.7146 80.19 85.8079 80.3316 85.8701 80.4876C85.9324 80.6435 85.9623 80.8105 85.958 80.9783V87.1463C85.9623 87.3142 85.9324 87.4812 85.8701 87.6371C85.8079 87.793 85.7146 87.9347 85.5959 88.0535C85.4772 88.1722 85.3356 88.2657 85.1797 88.328C85.0238 88.3904 84.8569 88.4205 84.689 88.4163H72.907ZM74.176 85.8763H83.42V82.2483H74.176V85.8763ZM2.57602 85.8763H11.82V82.2483H2.58002L2.57602 85.8763ZM38.465 80.2523H47.528V76.6243H38.469L38.465 80.2523ZM8.38002 50.5013C8.38002 50.6823 8.38002 50.6823 8.56102 50.6823H77.439C77.62 50.6823 77.62 50.6823 77.62 50.5013V14.0383H8.38002V50.5013ZM77.62 11.5013V2.79034C77.62 2.60934 77.62 2.60934 77.439 2.60934H8.56102C8.38002 2.60934 8.38002 2.60934 8.38002 2.79034V11.4983L77.62 11.5013Z" fill="#FFB400"/>
<path d="M43.362 41.2494C43.0904 41.0823 42.8757 40.8368 42.7463 40.5453C42.6169 40.2538 42.5788 39.93 42.637 39.6164L48.981 24.0164C49.344 23.2904 50.069 22.9284 50.612 23.2904C50.7829 23.326 50.9429 23.4017 51.0788 23.5114C51.2146 23.621 51.3224 23.7614 51.3933 23.921C51.4641 24.0806 51.4959 24.2547 51.4862 24.429C51.4764 24.6033 51.4252 24.7728 51.337 24.9234L44.993 40.5234C44.9302 40.7556 44.7853 40.9571 44.5852 41.0906C44.3852 41.2241 44.1435 41.2805 43.905 41.2494H43.362ZM52.425 37.2584C52.2882 36.9685 52.2684 36.637 52.3697 36.3329C52.471 36.0288 52.6856 35.7754 52.969 35.6254L59.313 32.1784L52.969 28.9104C52.6695 28.7294 52.448 28.4435 52.3474 28.1082C52.2469 27.773 52.2745 27.4124 52.425 27.0964C52.6259 26.8187 52.9243 26.6271 53.2604 26.5598C53.5965 26.4925 53.9456 26.5545 54.238 26.7334L62.576 31.0874C62.7716 31.2019 62.9386 31.3595 63.0642 31.5482C63.1898 31.7369 63.2708 31.9517 63.301 32.1764C63.2735 32.4265 63.195 32.6682 63.0703 32.8867C62.9456 33.1051 62.7773 33.2956 62.576 33.4464L54.238 37.8004C54.057 37.9814 53.875 37.9814 53.513 37.9814C53.2843 37.9665 53.0634 37.8919 52.8725 37.7651C52.6816 37.6382 52.5273 37.4635 52.425 37.2584ZM39.918 37.8024L31.58 33.4484C31.3515 33.3268 31.1622 33.143 31.0339 32.9182C30.9055 32.6935 30.8435 32.437 30.855 32.1784C30.8477 31.9441 30.9135 31.7132 31.0435 31.5181C31.1734 31.3229 31.3609 31.1731 31.58 31.0894L39.918 26.7354C40.0472 26.6468 40.1933 26.5858 40.3472 26.5561C40.5011 26.5264 40.6594 26.5286 40.8123 26.5626C40.9653 26.5967 41.1096 26.6618 41.2363 26.754C41.3631 26.8461 41.4695 26.9634 41.549 27.0984C41.7275 27.3911 41.7893 27.7402 41.722 28.0764C41.6547 28.4125 41.4634 28.711 41.186 28.9124L34.842 32.1774L41.186 35.6244C41.3171 35.7077 41.4306 35.8161 41.5198 35.9433C41.609 36.0704 41.6723 36.214 41.706 36.3657C41.7398 36.5173 41.7432 36.6742 41.7163 36.8272C41.6893 36.9802 41.6325 37.1264 41.549 37.2574C41.4862 37.4896 41.3413 37.6911 41.1412 37.8246C40.9412 37.9581 40.6995 38.0145 40.461 37.9834C40.3629 37.9954 40.2633 37.9854 40.1695 37.9541C40.0758 37.9228 39.9892 37.871 39.918 37.8024Z" fill="#FFB400"/>
<path d="M33.393 46.6914H13.636C13.4681 46.6956 13.3012 46.6655 13.1453 46.6031C12.9894 46.5408 12.8478 46.4473 12.7291 46.3286C12.6104 46.2098 12.5171 46.0681 12.4549 45.9122C12.3926 45.7563 12.3627 45.5893 12.367 45.4214V31.2724C12.3886 30.9429 12.5292 30.6324 12.7626 30.3988C12.996 30.1651 13.3064 30.0243 13.636 30.0024C13.9655 30.0243 14.2759 30.1651 14.5093 30.3988C14.7428 30.6324 14.8834 30.9429 14.905 31.2724V44.1524H33.393C33.7298 44.1524 34.0528 44.2862 34.291 44.5244C34.5292 44.7626 34.663 45.0856 34.663 45.4224C34.663 45.7593 34.5292 46.0823 34.291 46.3205C34.0528 46.5586 33.7298 46.6914 33.393 46.6914Z" fill="#FFB400"/>
<path d="M31.943 8.23238C31.6135 8.21054 31.3031 8.06969 31.0697 7.83607C30.8362 7.60244 30.6956 7.29195 30.674 6.96238C30.6956 6.63282 30.8362 6.32233 31.0697 6.0887C31.3031 5.85507 31.6135 5.71423 31.943 5.69238H35.206C35.5428 5.69238 35.8659 5.82619 36.104 6.06436C36.3422 6.30253 36.476 6.62556 36.476 6.96238C36.476 7.29921 36.3422 7.62224 36.104 7.86041C35.8659 8.09858 35.5428 8.23238 35.206 8.23238H31.943ZM24.33 8.23238C23.9932 8.23238 23.6702 8.09858 23.432 7.86041C23.1938 7.62224 23.06 7.29921 23.06 6.96238C23.06 6.62556 23.1938 6.30253 23.432 6.06436C23.6702 5.82619 23.9932 5.69238 24.33 5.69238H27.593C27.9298 5.69238 28.2529 5.82619 28.491 6.06436C28.7292 6.30253 28.863 6.62556 28.863 6.96238C28.863 7.29921 28.7292 7.62224 28.491 7.86041C28.2529 8.09858 27.9298 8.23238 27.593 8.23238H24.33ZM16.717 8.23238C16.3802 8.23238 16.0572 8.09858 15.819 7.86041C15.5808 7.62224 15.447 7.29921 15.447 6.96238C15.447 6.62556 15.5808 6.30253 15.819 6.06436C16.0572 5.82619 16.3802 5.69238 16.717 5.69238H19.98C20.3168 5.69238 20.6399 5.82619 20.878 6.06436C21.1162 6.30253 21.25 6.62556 21.25 6.96238C21.25 7.29921 21.1162 7.62224 20.878 7.86041C20.6399 8.09858 20.3168 8.23238 19.98 8.23238H16.717Z" fill="#FFB400"/>
<path d="M61.488 92.9512C61.1512 92.9512 60.8282 92.8175 60.59 92.5793C60.3519 92.3412 60.2181 92.018 60.2181 91.6812C60.2181 91.3443 60.3519 91.0214 60.59 90.7832C60.8282 90.545 61.1512 90.4111 61.488 90.4111H70.3701C70.7069 90.4111 71.0299 90.545 71.2681 90.7832C71.5062 91.0214 71.6401 91.3443 71.6401 91.6812C71.6401 92.018 71.5062 92.3412 71.2681 92.5793C71.0299 92.8175 70.7069 92.9512 70.3701 92.9512H61.488ZM15.6301 92.9512C15.2932 92.9512 14.9702 92.8175 14.7321 92.5793C14.4939 92.3412 14.3601 92.018 14.3601 91.6812C14.3601 91.3443 14.4939 91.0214 14.7321 90.7832C14.9702 90.545 15.2932 90.4111 15.6301 90.4111H24.5111C24.8479 90.4111 25.1709 90.545 25.4091 90.7832C25.6472 91.0214 25.7811 91.3443 25.7811 91.6812C25.7811 92.018 25.6472 92.3412 25.4091 92.5793C25.1709 92.8175 24.8479 92.9512 24.5111 92.9512H15.6301ZM72.9071 88.4163C72.7392 88.4202 72.5724 88.3901 72.4166 88.3276C72.2607 88.2652 72.1192 88.1717 72.0006 88.053C71.8819 87.9342 71.7886 87.7928 71.7263 87.637C71.664 87.4811 71.634 87.3141 71.6381 87.1462V85.3323H63.3001C63.1322 85.3363 62.9653 85.3061 62.8095 85.2437C62.6537 85.1812 62.5122 85.0877 62.3936 84.969C62.2749 84.8503 62.1816 84.7086 62.1193 84.5527C62.057 84.3969 62.027 84.2301 62.0311 84.0623V53.2231H44.269V74.0852H48.8001C49.1296 74.107 49.44 74.2481 49.6735 74.4817C49.9069 74.7153 50.0474 75.0257 50.069 75.3552V81.5232C50.0731 81.691 50.0431 81.858 49.9808 82.0139C49.9185 82.1698 49.8253 82.3114 49.7066 82.4302C49.588 82.5489 49.4464 82.6422 49.2906 82.7046C49.1348 82.767 48.9679 82.7972 48.8001 82.7932H37.2001C37.0323 82.7972 36.8654 82.767 36.7095 82.7046C36.5537 82.6422 36.4122 82.5489 36.2935 82.4302C36.1749 82.3114 36.0816 82.1698 36.0193 82.0139C35.957 81.858 35.927 81.691 35.9311 81.5232V75.3552C35.9529 75.0257 36.0935 74.7153 36.3269 74.4817C36.5603 74.2481 36.8706 74.1073 37.2001 74.0852H41.7311V53.2231H23.9681V84.0623C23.9722 84.2301 23.9422 84.3969 23.8799 84.5527C23.8176 84.7086 23.7242 84.8503 23.6056 84.969C23.4869 85.0877 23.3454 85.1812 23.1896 85.2437C23.0338 85.3061 22.8669 85.3363 22.699 85.3323H14.3611V87.1462C14.3652 87.3141 14.3351 87.4811 14.2728 87.637C14.2105 87.7928 14.1173 87.9342 13.9986 88.053C13.8799 88.1717 13.7384 88.2652 13.5826 88.3276C13.4268 88.3901 13.2599 88.4202 13.092 88.4163H1.31208C1.14426 88.4202 0.977364 88.3901 0.821539 88.3276C0.665713 88.2652 0.524175 88.1717 0.405523 88.053C0.28687 87.9342 0.193598 87.7928 0.131292 87.637C0.0689859 87.4811 0.0389878 87.3141 0.0430962 87.1462V80.9783C0.0389878 80.8105 0.0689859 80.6434 0.131292 80.4875C0.193598 80.3317 0.28687 80.1903 0.405523 80.0715C0.524175 79.9528 0.665713 79.8593 0.821539 79.7969C0.977364 79.7344 1.14426 79.7043 1.31208 79.7083H13.0931C13.2609 79.7043 13.4277 79.7344 13.5836 79.7969C13.7394 79.8593 13.8809 79.9528 13.9996 80.0715C14.1182 80.1903 14.2116 80.3317 14.2739 80.4875C14.3362 80.6434 14.3662 80.8105 14.3621 80.9783V82.7922H21.4321V53.2222H8.56208C7.84613 53.2044 7.16449 52.9118 6.65845 52.405C6.15242 51.8983 5.86079 51.2162 5.84406 50.5002V2.79028C5.86105 2.07449 6.15275 1.39255 6.65876 0.885986C7.16476 0.379421 7.8463 0.0871114 8.56208 0.0693359H77.4401C78.1559 0.0871014 78.8375 0.379446 79.3437 0.885986C79.8499 1.39253 80.1418 2.0744 80.1591 2.79028V50.5012C80.1421 51.2173 79.8503 51.8995 79.3441 52.4062C78.8379 52.913 78.1561 53.2054 77.4401 53.2231H64.5701V82.7932H71.639V80.9792C71.6349 80.8114 71.665 80.6446 71.7273 80.4888C71.7896 80.3329 71.8829 80.1913 72.0015 80.0725C72.1202 79.9538 72.2617 79.8603 72.4175 79.7979C72.5734 79.7354 72.7403 79.7053 72.9081 79.7092H84.6901C84.8579 79.7053 85.0248 79.7354 85.1806 79.7979C85.3364 79.8603 85.478 79.9538 85.5966 80.0725C85.7153 80.1913 85.8085 80.3329 85.8709 80.4888C85.9332 80.6446 85.9632 80.8114 85.9591 80.9792V87.1472C85.9632 87.315 85.9332 87.4821 85.8709 87.6379C85.8085 87.7938 85.7153 87.9352 85.5966 88.054C85.478 88.1727 85.3364 88.2662 85.1806 88.3286C85.0248 88.391 84.8579 88.4212 84.6901 88.4172L72.9071 88.4163ZM74.1761 85.8762H83.4201V82.2473H74.1761V85.8762ZM2.57606 85.8762H11.8211V82.2473H2.58008L2.57606 85.8762ZM38.4651 80.2522H47.5281V76.6243H38.4651V80.2522ZM8.38007 50.5002C8.38007 50.6822 8.38004 50.6824 8.56104 50.6824H77.4391C77.6201 50.6824 77.6201 50.6822 77.6201 50.5002V14.0374H8.38007V50.5002ZM8.38007 2.78931V11.4973H77.6201V2.78931C77.6201 2.60831 77.6201 2.60815 77.4391 2.60815H8.56104C8.38004 2.61015 8.38007 2.60931 8.38007 2.78931ZM70.9141 72.6323C70.5772 72.6323 70.2542 72.4984 70.0161 72.2603C69.7779 72.0221 69.6441 71.6991 69.6441 71.3623C69.6441 71.0255 69.7779 70.7023 70.0161 70.4641C70.2542 70.2259 70.5772 70.0923 70.9141 70.0923H83.4201C83.7569 70.0923 84.0799 70.2259 84.3181 70.4641C84.5563 70.7023 84.6901 71.0255 84.6901 71.3623C84.6901 71.6991 84.5563 72.0221 84.3181 72.2603C84.0799 72.4984 83.7569 72.6323 83.4201 72.6323H70.9141ZM2.58008 72.6323C2.24326 72.6323 1.92018 72.4984 1.68201 72.2603C1.44384 72.0221 1.31006 71.6991 1.31006 71.3623C1.31006 71.0255 1.44384 70.7023 1.68201 70.4641C1.92018 70.2259 2.24326 70.0923 2.58008 70.0923H15.087C15.4239 70.0923 15.7469 70.2259 15.9851 70.4641C16.2233 70.7023 16.3571 71.0255 16.3571 71.3623C16.3571 71.6991 16.2233 72.0221 15.9851 72.2603C15.7469 72.4984 15.4239 72.6323 15.087 72.6323H2.58008ZM13.6371 46.6902C13.4692 46.6943 13.3023 46.6644 13.1464 46.6021C12.9905 46.5397 12.8489 46.4462 12.7302 46.3274C12.6115 46.2086 12.5183 46.0671 12.456 45.9111C12.3937 45.7552 12.3638 45.588 12.368 45.4202V31.2703C12.3633 31.1007 12.3926 30.9317 12.4542 30.7737C12.5158 30.6156 12.6085 30.4717 12.7268 30.3501C12.845 30.2285 12.9864 30.1317 13.1427 30.0657C13.299 29.9997 13.4669 29.9656 13.6365 29.9656C13.8062 29.9656 13.9742 29.9997 14.1304 30.0657C14.2867 30.1317 14.4281 30.2285 14.5464 30.3501C14.6647 30.4717 14.7573 30.6156 14.8189 30.7737C14.8805 30.9317 14.9099 31.1007 14.9051 31.2703V44.1501H33.394C33.7309 44.1501 34.0539 44.284 34.2921 44.5222C34.5303 44.7604 34.6641 45.0833 34.6641 45.4202C34.6641 45.757 34.5303 46.0802 34.2921 46.3184C34.0539 46.5565 33.7309 46.6902 33.394 46.6902H13.6371ZM43.363 41.2493C43.0914 41.0819 42.8768 40.8363 42.7474 40.5447C42.618 40.253 42.5799 39.9289 42.6381 39.6152L48.9821 24.0151C49.3451 23.2901 50.069 22.9273 50.613 23.2903C50.784 23.3258 50.944 23.4016 51.0798 23.5112C51.2157 23.6209 51.3235 23.7613 51.3944 23.9209C51.4652 24.0805 51.497 24.2546 51.4872 24.429C51.4775 24.6033 51.4263 24.7727 51.3381 24.9233L44.9941 40.5232C44.9313 40.7552 44.7865 40.9566 44.5867 41.0901C44.3868 41.2236 44.1454 41.2801 43.907 41.2493H43.363ZM52.4251 37.2583C52.2885 36.9683 52.2688 36.6368 52.3701 36.3328C52.4714 36.0287 52.6859 35.7754 52.9691 35.6252L59.3121 32.1782L52.9691 28.9133C52.6696 28.7323 52.4481 28.4463 52.3475 28.1111C52.247 27.7759 52.2746 27.4154 52.4251 27.0994C52.626 26.8217 52.9243 26.6298 53.2604 26.5625C53.5965 26.4952 53.9457 26.5574 54.238 26.7363L62.5761 31.0894C62.7713 31.2043 62.938 31.3619 63.0635 31.5505C63.1891 31.7391 63.2703 31.9537 63.3011 32.1782C63.2735 32.4284 63.1949 32.6703 63.0702 32.8889C62.9455 33.1075 62.7773 33.2981 62.5761 33.4492L54.238 37.8013C54.057 37.9833 53.8761 37.9832 53.5131 37.9832C53.2842 37.9679 53.0633 37.8931 52.8724 37.7659C52.6815 37.6387 52.5273 37.4637 52.4251 37.2583ZM39.9191 37.8013L31.5811 33.4492C31.3526 33.3274 31.1633 33.1434 31.035 32.9185C30.9067 32.6935 30.8447 32.4369 30.8561 32.1782C30.8491 31.9439 30.915 31.7132 31.0449 31.5181C31.1748 31.323 31.3622 31.1733 31.5811 31.0894L39.9191 26.7363C40.0484 26.6476 40.1946 26.5865 40.3485 26.5566C40.5025 26.5268 40.6609 26.5289 40.814 26.563C40.967 26.597 41.1115 26.6621 41.2383 26.7544C41.3651 26.8467 41.4716 26.9642 41.5511 27.0994C41.7294 27.3921 41.791 27.7411 41.7238 28.0771C41.6565 28.4132 41.4652 28.7118 41.1881 28.9133L34.8441 32.1782L41.1881 35.6252C41.4527 35.7937 41.6396 36.0605 41.7077 36.3667C41.7758 36.6729 41.7195 36.9936 41.5511 37.2583C41.4869 37.4896 41.3417 37.6901 41.142 37.8232C40.9422 37.9563 40.7013 38.013 40.4631 37.9832C40.3646 37.9955 40.2647 37.9859 40.1705 37.9546C40.0764 37.9233 39.9905 37.8702 39.9191 37.8013ZM31.944 8.23218C31.6072 8.23218 31.2842 8.09852 31.046 7.86035C30.8079 7.62218 30.6741 7.29898 30.6741 6.96216C30.6741 6.62533 30.8079 6.30238 31.046 6.06421C31.2842 5.82604 31.6072 5.69214 31.944 5.69214H35.207C35.5439 5.69214 35.8669 5.82604 36.1051 6.06421C36.3433 6.30238 36.4771 6.62533 36.4771 6.96216C36.4771 7.29898 36.3433 7.62218 36.1051 7.86035C35.8669 8.09852 35.5439 8.23218 35.207 8.23218H31.944ZM24.3311 8.23218C23.9942 8.23218 23.6712 8.09852 23.4331 7.86035C23.1949 7.62218 23.061 7.29898 23.061 6.96216C23.061 6.62533 23.1949 6.30238 23.4331 6.06421C23.6712 5.82604 23.9942 5.69214 24.3311 5.69214H27.5941C27.9309 5.69214 28.2539 5.82604 28.4921 6.06421C28.7302 6.30238 28.8641 6.62533 28.8641 6.96216C28.8641 7.29898 28.7302 7.62218 28.4921 7.86035C28.2539 8.09852 27.9309 8.23218 27.5941 8.23218H24.3311ZM16.7181 8.23218C16.3813 8.23218 16.0582 8.09852 15.82 7.86035C15.5818 7.62218 15.4481 7.29898 15.4481 6.96216C15.4481 6.62533 15.5818 6.30238 15.82 6.06421C16.0582 5.82604 16.3813 5.69214 16.7181 5.69214H19.9811C20.3179 5.69214 20.6409 5.82604 20.8791 6.06421C21.1173 6.30238 21.251 6.62533 21.251 6.96216C21.251 7.29898 21.1173 7.62218 20.8791 7.86035C20.6409 8.09852 20.3179 8.23218 19.9811 8.23218H16.7181Z" fill="#54AF3A"/>
</svg>
