<svg width="93" height="77" viewBox="0 0 93 77" fill="none" xmlns="http://www.w3.org/2000/svg">
<path d="M19.884 75.3442H9.92797C9.73431 75.3444 9.54251 75.3063 9.36364 75.2321C9.18477 75.1579 9.02236 75.049 8.8858 74.9117C8.74923 74.7743 8.6412 74.6114 8.56794 74.4321C8.49469 74.2528 8.45765 74.0608 8.45897 73.8672V69.8752H1.49997C1.1166 69.8654 0.75254 69.7049 0.486854 69.4283C0.221169 69.1518 0.0753151 68.7816 0.080969 68.3982V48.7102C0.0753151 48.3267 0.221169 47.9565 0.486854 47.68C0.75254 47.4034 1.1166 47.2429 1.49997 47.2332H8.45897V45.8662C8.45765 45.6725 8.49469 45.4805 8.56794 45.3012C8.6412 45.122 8.74923 44.959 8.8858 44.8216C9.02236 44.6843 9.18477 44.5754 9.36364 44.5012C9.54251 44.427 9.73431 44.3889 9.92797 44.3892H19.884C20.0749 44.3898 20.2638 44.4289 20.4393 44.5042C20.6148 44.5794 20.7734 44.6892 20.9055 44.8271C21.0377 44.9649 21.1407 45.1279 21.2085 45.3065C21.2762 45.485 21.3074 45.6753 21.3 45.8662V46.7412C22.932 46.2492 25.272 45.4832 27.5 44.7722V1.51016C27.4948 1.12772 27.6404 0.758627 27.9051 0.482627C28.1699 0.206627 28.5327 0.0458917 28.915 0.0351562H83.049C83.4313 0.0458917 83.794 0.206627 84.0588 0.482627C84.3236 0.758627 84.4691 1.12772 84.464 1.51016V47.4502C85.6585 47.5587 86.8217 47.8926 87.892 48.4342C89.5145 49.2718 90.8543 50.569 91.7439 52.1636C92.6336 53.7582 93.0337 55.5796 92.8942 57.4003C92.7548 59.221 92.082 60.9602 90.9599 62.4008C89.8378 63.8413 88.3161 64.9193 86.585 65.5002C83.266 66.5942 52.037 76.9852 51.493 76.9852L21.3 70.2032V73.8672C21.3074 74.058 21.2762 74.2483 21.2085 74.4268C21.1407 74.6054 21.0377 74.7684 20.9055 74.9062C20.7734 75.0441 20.6148 75.1539 20.4393 75.2291C20.2638 75.3044 20.0749 75.3435 19.884 75.3442ZM30.384 43.8972C32.397 43.2412 33.866 42.8032 34.029 42.8032C34.41 42.8032 42.897 42.3112 52.69 48.0032C54.0642 48.7688 55.2263 49.8644 56.0716 51.1911C56.9169 52.5179 57.4188 54.0341 57.532 55.6032L80.872 47.8922C81.09 47.8372 81.362 47.7832 81.579 47.7282V2.93416H66.4V17.6452C66.3943 18.0193 66.2437 18.3767 65.9797 18.642C65.7158 18.9073 65.3591 19.0597 64.985 19.0672C64.7394 19.0712 64.4967 19.0149 64.278 18.9032L55.678 14.2032L47.735 18.9032C47.5138 19.0273 47.2642 19.0917 47.0106 19.0901C46.757 19.0885 46.5082 19.0209 46.2886 18.894C46.0691 18.767 45.8864 18.5851 45.7584 18.3662C45.6305 18.1472 45.5618 17.8987 45.559 17.6452V2.93416H30.384V43.8972ZM8.45897 66.9772V50.1862H2.96397V66.9762L8.45897 66.9772ZM55.683 11.1372C55.9105 11.1396 56.1343 11.1958 56.336 11.3012L63.518 15.1842V2.93416H48.447V15.1342L54.921 11.3062C55.1588 11.1925 55.4194 11.1347 55.683 11.1372ZM56.883 58.8272C55.849 60.4682 52.476 62.2182 44.315 62.2182C43.9304 62.2182 43.5616 62.0654 43.2897 61.7935C43.0177 61.5215 42.865 61.1527 42.865 60.7682C42.865 60.3836 43.0177 60.0148 43.2897 59.7429C43.5616 59.4709 43.9304 59.3182 44.315 59.3182C52.095 59.3182 54.054 57.7322 54.434 57.2942C54.4453 57.1781 54.4826 57.066 54.543 56.9662C55.414 52.8662 51.443 50.6772 51.279 50.5132C46.1702 47.4262 40.3276 45.7643 34.359 45.7002L21.3 49.8042V67.2502L51.441 74.0322L85.715 62.7652C86.8998 62.3635 87.9403 61.6219 88.7065 60.6329C89.4727 59.6439 89.9309 58.4512 90.0237 57.2035C90.1166 55.9558 89.8401 54.7084 89.2288 53.6169C88.6175 52.5253 87.6983 51.6378 86.586 51.0652C85.8598 50.6679 85.058 50.4285 84.2329 50.3625C83.4078 50.2965 82.578 50.4054 81.798 50.6822L56.883 58.8272ZM11.342 72.4462H18.47V68.4532V47.2882H11.342V72.4462Z" fill="#FFB400"/>
<path d="M68.8999 42.5842H43.0609C42.6787 42.5734 42.3161 42.4128 42.0514 42.1371C41.7867 41.8613 41.641 41.4924 41.6459 41.1102V33.8342C41.6437 33.6473 41.6788 33.462 41.7491 33.2888C41.8193 33.1157 41.9233 32.9582 42.055 32.8257C42.1867 32.6932 42.3435 32.5882 42.5162 32.5168C42.6889 32.4455 42.874 32.4092 43.0609 32.4102H68.8999C69.0865 32.4092 69.2715 32.4454 69.4441 32.5166C69.6167 32.5879 69.7733 32.6927 69.905 32.825C70.0367 32.9573 70.1407 33.1145 70.2111 33.2874C70.2814 33.4603 70.3167 33.6455 70.3149 33.8322V41.1102C70.3197 41.4924 70.1741 41.8613 69.9093 42.1371C69.6446 42.4128 69.282 42.5734 68.8999 42.5842ZM44.5259 39.6842H67.4259V35.2542H44.5299L44.5259 39.6842Z" fill="#FFB400"/>
<path d="M21.2999 70.2034V73.8672C21.3073 74.0578 21.2763 74.2481 21.2086 74.4265C21.141 74.6049 21.0381 74.7677 20.9062 74.9055C20.7743 75.0433 20.6159 75.1534 20.4407 75.2288C20.2654 75.3041 20.0767 75.3433 19.8859 75.3442H9.92895C9.73529 75.3445 9.54349 75.3064 9.36462 75.2322C9.18575 75.158 9.02337 75.0492 8.8868 74.9119C8.75024 74.7746 8.64219 74.6114 8.56893 74.4321C8.49568 74.2529 8.45863 74.0608 8.45995 73.8672V69.8752H1.49596C1.11338 69.8643 0.750485 69.7031 0.485711 69.4268C0.220937 69.1504 0.0755446 68.7809 0.0809564 68.3982V48.7102C0.0755446 48.3275 0.220937 47.958 0.485711 47.6816C0.750485 47.4053 1.11338 47.2441 1.49596 47.2332H8.45995V45.8662C8.4585 45.6725 8.49545 45.4806 8.56866 45.3013C8.64187 45.1219 8.7499 44.9589 8.8865 44.8215C9.02309 44.6842 9.18553 44.5752 9.36446 44.501C9.5434 44.4268 9.73525 44.3888 9.92895 44.3892H19.8859C20.0767 44.3901 20.2654 44.4295 20.4407 44.5049C20.6159 44.5802 20.7743 44.6901 20.9062 44.8279C21.0381 44.9657 21.141 45.1287 21.2086 45.3071C21.2763 45.4855 21.3073 45.6756 21.2999 45.8662V46.7412C22.9329 46.2492 25.272 45.4842 27.5 44.7732V1.51025C27.4943 1.12765 27.6395 0.758094 27.9041 0.481689C28.1687 0.205285 28.5315 0.044199 28.914 0.0332031H83.048C83.4305 0.044199 83.7932 0.205285 84.0579 0.481689C84.3225 0.758094 84.4676 1.12765 84.462 1.51025V47.4492C85.6566 47.5582 86.8197 47.8925 87.89 48.4343C89.5119 49.2722 90.8511 50.569 91.7404 52.1633C92.6297 53.7576 93.0296 55.5787 92.8903 57.3989C92.751 59.2192 92.0786 60.958 90.9571 62.3984C89.8355 63.8389 88.3145 64.917 86.584 65.4983C83.266 66.5923 52.037 76.9832 51.492 76.9832L21.2999 70.2034ZM34.357 45.7034L21.2999 49.8032V67.2502L51.441 74.0312L85.717 62.7651C86.9018 62.3634 87.9421 61.6219 88.7083 60.6328C89.4744 59.6437 89.9324 58.451 90.0252 57.2034C90.1179 55.9557 89.8414 54.7082 89.23 53.6167C88.6186 52.5252 87.6993 51.6378 86.587 51.0652C85.8608 50.668 85.0589 50.4285 84.2338 50.3625C83.4088 50.2966 82.5791 50.4057 81.799 50.6824L56.882 58.8313C55.8479 60.4723 52.475 62.2212 44.314 62.2212C43.9294 62.2212 43.5606 62.0686 43.2887 61.7966C43.0167 61.5247 42.864 61.1558 42.864 60.7712C42.864 60.3867 43.0167 60.0178 43.2887 59.7458C43.5606 59.4739 43.9294 59.3213 44.314 59.3213C52.094 59.3213 54.053 57.7354 54.434 57.2974C54.445 57.1812 54.4823 57.0689 54.543 56.9692C55.413 52.8692 51.443 50.6791 51.279 50.5151C46.3025 47.5402 40.6508 45.881 34.8559 45.6934C34.6329 45.6924 34.466 45.6971 34.3559 45.7021L34.357 45.7034ZM11.344 72.4463H18.471V47.2883H11.344V72.4463ZM2.96496 66.9773H8.46496V50.1873H2.96496V66.9773ZM52.6919 48.0002C54.0662 48.7658 55.2284 49.8615 56.0737 51.1882C56.919 52.515 57.4208 54.0313 57.534 55.6003L80.875 47.8882C81.093 47.8342 81.365 47.7794 81.582 47.7244V2.93335H66.4V17.6443C66.3941 18.0184 66.2433 18.3757 65.9794 18.6409C65.7155 18.9061 65.359 19.0584 64.9849 19.0662C64.7394 19.0699 64.4968 19.0138 64.278 18.9023L55.678 14.2021L47.7349 18.9023C47.5138 19.0265 47.2642 19.0907 47.0106 19.0891C46.757 19.0875 46.5082 19.02 46.2886 18.8931C46.0691 18.7661 45.8864 18.5842 45.7584 18.3652C45.6305 18.1463 45.5617 17.8979 45.559 17.6443V2.93335H30.384V43.8962C32.397 43.2402 33.866 42.8022 34.03 42.8022C34.086 42.8022 34.319 42.7913 34.706 42.7913C41.0494 42.9497 47.2444 44.7436 52.691 47.9993L52.6919 48.0002ZM56.337 11.3003L63.519 15.1833V2.93335H48.449V15.1333L54.924 11.3042C55.1618 11.1922 55.4221 11.136 55.685 11.1401C55.9116 11.1415 56.1348 11.1968 56.336 11.3013L56.337 11.3003ZM43.063 42.5833C42.6803 42.5725 42.3172 42.4114 42.0524 42.135C41.7876 41.8586 41.6423 41.489 41.648 41.1062V33.8323C41.6461 33.6456 41.6814 33.4605 41.7518 33.2876C41.8221 33.1147 41.9262 32.9575 42.0578 32.8252C42.1895 32.6929 42.3462 32.5881 42.5187 32.5168C42.6913 32.4456 42.8763 32.4092 43.063 32.4102H68.9C69.0865 32.4094 69.2714 32.4458 69.4439 32.5171C69.6163 32.5884 69.7729 32.6931 69.9044 32.8254C70.036 32.9578 70.14 33.115 70.2103 33.2878C70.2806 33.4607 70.3158 33.6457 70.314 33.8323V41.1062C70.3196 41.4888 70.1745 41.8584 69.9098 42.1348C69.6452 42.4112 69.2824 42.5723 68.9 42.5833H43.063ZM44.532 39.6833H67.432V35.2532H44.532V39.6833Z" fill="#54AF3A"/>
</svg>
