<svg width="93" height="93" viewBox="0 0 93 93" fill="none" xmlns="http://www.w3.org/2000/svg">
<path d="M59.4859 72.9641C59.2505 72.8634 58.9938 72.8226 58.7387 72.8455C58.4836 72.8684 58.2383 72.9541 58.0245 73.0952C57.8107 73.2362 57.6353 73.428 57.5139 73.6535C57.3925 73.879 57.329 74.1311 57.3289 74.3871V92.9701H60.4229V76.7361L69.0869 80.4531C69.3707 80.5743 69.6842 80.6079 69.9872 80.5494C70.2901 80.491 70.5687 80.3432 70.7869 80.1251L83.1659 67.7361C83.3278 67.5742 83.4518 67.3783 83.5289 67.1627C83.606 66.947 83.6344 66.717 83.6119 66.4891C83.5894 66.2612 83.5167 66.0411 83.3989 65.8447C83.2812 65.6482 83.1214 65.4804 82.9309 65.3531L78.2899 62.2531C78.0115 62.0661 77.6797 61.9747 77.3447 61.9927C77.0097 62.0107 76.6897 62.1372 76.4329 62.3531L67.9239 69.4471L60.8879 65.9101C59.8114 65.372 58.6245 65.0916 57.4209 65.0911H50.1999C52.1559 64.2407 53.7591 62.7423 54.7398 60.8483C55.7206 58.9543 56.0188 56.7803 55.5845 54.6921C55.1502 52.604 54.0097 50.7292 52.3551 49.3834C50.7005 48.0375 48.6328 47.3027 46.4999 47.3027C44.3671 47.3027 42.2994 48.0375 40.6448 49.3834C38.9902 50.7292 37.8497 52.604 37.4154 54.6921C36.981 56.7803 37.2793 58.9543 38.26 60.8483C39.2407 62.7423 40.844 64.2407 42.7999 65.0911H35.5879C34.3877 65.0926 33.2042 65.3719 32.1299 65.9071L25.0539 69.4471L16.5449 62.3531C16.289 62.1396 15.9709 62.0145 15.638 61.9964C15.3052 61.9784 14.9754 62.0685 14.6979 62.2531L10.0569 65.3531C9.86619 65.4803 9.70605 65.6483 9.58808 65.8449C9.47011 66.0415 9.39726 66.2618 9.37477 66.49C9.35229 66.7182 9.38074 66.9485 9.45807 67.1643C9.5354 67.3802 9.65968 67.5761 9.82194 67.7381L22.1999 80.1271C22.4182 80.3452 22.6968 80.493 22.9997 80.5514C23.3027 80.6099 23.6162 80.5763 23.8999 80.4551L32.5789 76.7381V92.9701H35.6729V74.3871C35.6732 74.131 35.6098 73.8787 35.4884 73.6531C35.3671 73.4275 35.1917 73.2355 34.9778 73.0945C34.764 72.9534 34.5185 72.8677 34.2633 72.8449C34.0082 72.8222 33.7514 72.8631 33.5159 72.9641L23.6439 77.1961L13.3439 66.8851L15.4569 65.4761L23.8569 72.4761C24.0874 72.6695 24.3693 72.7915 24.6681 72.827C24.9669 72.8625 25.2695 72.8101 25.5389 72.6761L33.5209 68.6821C34.1647 68.3615 34.8738 68.1942 35.5929 68.1931H44.6169L41.8899 81.8201C41.8092 82.2228 41.8915 82.6411 42.1189 82.9831L45.2129 87.6291C45.3541 87.8412 45.5454 88.0151 45.7699 88.1353C45.9945 88.2556 46.2452 88.3185 46.4999 88.3185C46.7547 88.3185 47.0054 88.2556 47.2299 88.1353C47.4545 88.0151 47.6458 87.8412 47.7869 87.6291L50.8809 82.9831C51.1083 82.6411 51.1907 82.2228 51.1099 81.8201L48.3869 68.1921H57.4209C58.1416 68.1928 58.8523 68.3609 59.4969 68.6831L67.4679 72.6831C67.7374 72.8171 68.04 72.8695 68.3388 72.834C68.6375 72.7985 68.9195 72.6765 69.1499 72.4831L77.5449 65.4831L79.6509 66.8891L69.3509 77.2011L59.4859 72.9641ZM46.4999 83.9881L45.0489 81.8101L46.4999 74.5421L47.9509 81.8101L46.4999 83.9881ZM46.4999 62.7721C45.2746 62.7733 44.0765 62.4111 43.0571 61.7312C42.0377 61.0513 41.2429 60.0843 40.7732 58.9526C40.3034 57.8209 40.1799 56.5753 40.4182 55.3734C40.6565 54.1715 41.246 53.0673 42.112 52.2004C42.978 51.3336 44.0817 50.7431 45.2833 50.5036C46.485 50.2641 47.7307 50.3864 48.8629 50.855C49.995 51.3237 50.9628 52.1176 51.6436 53.1363C52.3245 54.155 52.6879 55.3528 52.6879 56.5781C52.6885 58.22 52.0369 59.7949 50.8765 60.9564C49.716 62.118 48.1418 62.7711 46.4999 62.7721Z" fill="#FFB400"/>
<path d="M46.4999 32.575C48.6443 32.577 50.7411 31.9429 52.525 30.753C54.309 29.5631 55.6999 27.8708 56.5219 25.8902C57.3439 23.9097 57.56 21.7298 57.1429 19.6264C56.7257 17.523 55.6941 15.5905 54.1785 14.0735C52.6629 12.5565 50.7314 11.5231 48.6284 11.104C46.5254 10.685 44.3453 10.8991 42.3639 11.7192C40.3826 12.5394 38.689 13.9288 37.4975 15.7116C36.3059 17.4944 35.6699 19.5906 35.6699 21.735C35.6693 23.1579 35.9489 24.567 36.4928 25.8818C37.0367 27.1966 37.8342 28.3914 38.8399 29.398C39.8455 30.4046 41.0396 31.2032 42.3539 31.7483C43.6682 32.2935 45.0771 32.5744 46.4999 32.575ZM46.4999 13.992C48.0316 13.9906 49.5294 14.4436 50.8036 15.2935C52.0779 16.1435 53.0714 17.3523 53.6585 18.767C54.2456 20.1818 54.4 21.7389 54.102 23.2413C53.804 24.7438 53.0671 26.1241 51.9845 27.2077C50.9019 28.2912 49.5223 29.0294 48.0201 29.3287C46.5179 29.6281 44.9607 29.4751 43.5454 28.8893C42.1302 28.3034 40.9205 27.311 40.0693 26.0375C39.2182 24.764 38.7639 23.2667 38.7639 21.735C38.7633 20.7186 38.9629 19.7119 39.3513 18.7726C39.7397 17.8333 40.3094 16.9797 41.0278 16.2605C41.7462 15.5414 42.5992 14.9709 43.5381 14.5815C44.477 14.192 45.4835 13.9914 46.4999 13.991V13.992Z" fill="#FFB400"/>
<path d="M27.82 24.4719L26.65 25.1189C26.2353 25.343 25.8706 25.6494 25.5783 26.0192C25.286 26.3891 25.0722 26.8146 24.95 27.2699C24.8301 27.7136 24.8017 28.1771 24.8665 28.6321C24.9313 29.0872 25.088 29.5243 25.327 29.9169L28.567 35.2839C29.0588 36.0719 29.8335 36.6419 30.7322 36.8769C31.6308 37.112 32.5854 36.9942 33.4 36.5479L34.585 35.8939C34.6885 35.8463 34.8033 35.8288 34.9162 35.8433C35.0292 35.8578 35.1359 35.9038 35.224 35.9759C36.4951 36.9083 37.8786 37.6767 39.342 38.2629C39.514 38.3329 39.687 38.4749 39.687 38.6359V39.9309C39.7007 40.8657 40.0845 41.7568 40.7543 42.409C41.4241 43.0612 42.3252 43.4211 43.26 43.4099H49.74C50.6746 43.4198 51.575 43.0587 52.2438 42.4058C52.9127 41.7529 53.2953 40.8615 53.308 39.9269V38.6369C53.308 38.4819 53.481 38.3269 53.653 38.2639C55.1169 37.6792 56.5011 36.9122 57.773 35.9809C57.8613 35.909 57.968 35.8633 58.0809 35.849C58.1939 35.8347 58.3086 35.8523 58.412 35.8999L59.594 36.5539C60.4087 37 61.3631 37.1176 62.2617 36.8826C63.1603 36.6476 63.935 36.0777 64.427 35.2899L67.667 29.9229C67.906 29.5303 68.0627 29.0932 68.1275 28.6381C68.1923 28.1831 68.1639 27.7196 68.044 27.2759C67.9225 26.8211 67.7096 26.3959 67.4184 26.026C67.1271 25.6562 66.7636 25.3496 66.35 25.1249L65.179 24.4779C65.1182 24.4514 65.0662 24.4082 65.0291 24.3534C64.9919 24.2985 64.9711 24.2342 64.969 24.1679C65.2021 22.554 65.2021 20.9149 64.969 19.3009C64.9712 19.2344 64.9923 19.17 65.0299 19.1151C65.0674 19.0602 65.1199 19.0171 65.181 18.9909L66.351 18.3439C66.7646 18.1192 67.1281 17.8126 67.4194 17.4428C67.7106 17.073 67.9235 16.6477 68.045 16.1929C68.1649 15.7492 68.1933 15.2857 68.1285 14.8307C68.0637 14.3756 67.907 13.9385 67.668 13.5459L64.428 8.18291C63.9369 7.39412 63.1621 6.82356 62.2631 6.58863C61.3641 6.35369 60.4092 6.47225 59.595 6.91991L58.41 7.57391C58.3067 7.62242 58.1917 7.64047 58.0786 7.62595C57.9654 7.61142 57.8587 7.56492 57.771 7.49191C56.4999 6.55949 55.1163 5.79109 53.653 5.20491C53.481 5.13491 53.308 4.99291 53.308 4.83191V3.53691C53.2953 2.60233 52.9127 1.71089 52.2438 1.058C51.575 0.405109 50.6746 0.0440288 49.74 0.0539085H43.26C42.3254 0.0440288 41.425 0.405109 40.7562 1.058C40.0873 1.71089 39.7046 2.60233 39.692 3.53691V4.83091C39.692 4.98591 39.519 5.14091 39.347 5.20391C37.8831 5.7886 36.4988 6.55566 35.227 7.48691C35.1389 7.55911 35.0322 7.60501 34.9191 7.61934C34.8061 7.63366 34.6914 7.61584 34.588 7.56791L33.407 6.90991C32.5926 6.46234 31.6377 6.34394 30.7387 6.57906C29.8397 6.81418 29.065 7.38495 28.574 8.17391L25.334 13.5409C25.095 13.9335 24.9383 14.3706 24.8735 14.8257C24.8087 15.2807 24.8371 15.7442 24.957 16.1879C25.0792 16.6432 25.293 17.0687 25.5853 17.4386C25.8776 17.8084 26.2423 18.1148 26.657 18.3389L27.828 18.9859C27.8888 19.0124 27.9408 19.0556 27.9779 19.1105C28.0151 19.1653 28.0359 19.2297 28.038 19.2959C27.8049 20.9099 27.8049 22.549 28.038 24.1629C28.0351 24.2299 28.013 24.2946 27.9743 24.3494C27.9357 24.4042 27.8821 24.4467 27.82 24.4719ZM28.146 27.8309L29.316 27.1839C29.9275 26.855 30.4252 26.3488 30.7436 25.7318C31.062 25.1148 31.1863 24.4159 31.1 23.7269C30.9082 22.4052 30.9082 21.0627 31.1 19.7409C31.1865 19.0526 31.0629 18.3543 30.7454 17.7376C30.4279 17.1208 29.9314 16.6144 29.321 16.2849L28.151 15.6379C28.103 15.6138 28.0605 15.58 28.0261 15.5387C27.9916 15.4974 27.9661 15.4495 27.951 15.3979C27.94 15.3567 27.9376 15.3137 27.944 15.2716C27.9503 15.2294 27.9653 15.189 27.988 15.1529L31.228 9.78591C31.3035 9.67999 31.4155 9.60563 31.5424 9.57703C31.6693 9.54844 31.8023 9.56762 31.916 9.63091L33.098 10.2849C33.7186 10.617 34.4208 10.7656 35.1227 10.7136C35.8246 10.6615 36.4972 10.4109 37.062 9.99091C38.1235 9.21168 39.2785 8.56866 40.5 8.07691C41.1638 7.82733 41.7372 7.38362 42.1453 6.80358C42.5534 6.22354 42.7773 5.53405 42.788 4.82491V3.53691C42.8023 3.42418 42.8594 3.32126 42.9474 3.24942C43.0354 3.17758 43.1477 3.14231 43.261 3.15091H49.74C49.8533 3.14231 49.9656 3.17758 50.0536 3.24942C50.1416 3.32126 50.1987 3.42418 50.213 3.53691V4.83091C50.2236 5.53993 50.4474 6.22934 50.8553 6.80936C51.2632 7.38939 51.8363 7.83317 52.5 8.08291C53.7208 8.57259 54.8754 9.21324 55.937 9.98991C56.5007 10.4119 57.1731 10.6644 57.8753 10.7175C58.5774 10.7706 59.2802 10.6223 59.901 10.2899L61.085 9.63591C61.1986 9.57217 61.3317 9.55274 61.4587 9.58136C61.5858 9.60999 61.6977 9.68463 61.773 9.79091L65.013 15.1579C65.0357 15.194 65.0507 15.2344 65.057 15.2766C65.0634 15.3187 65.061 15.3617 65.05 15.4029C65.0349 15.4545 65.0093 15.5024 64.9749 15.5437C64.9405 15.585 64.898 15.6188 64.85 15.6429L63.68 16.2899C63.0699 16.6191 62.5735 17.1249 62.2559 17.7411C61.9383 18.3573 61.8142 19.055 61.9 19.7429C62.0918 21.0647 62.0918 22.4072 61.9 23.7289C61.8135 24.4172 61.9371 25.1155 62.2546 25.7323C62.5721 26.349 63.0686 26.8554 63.679 27.1849L64.849 27.8319C64.897 27.8561 64.9395 27.8898 64.9739 27.9311C65.0083 27.9724 65.0339 28.0203 65.049 28.0719C65.06 28.1131 65.0624 28.1561 65.056 28.1983C65.0497 28.2404 65.0347 28.2808 65.012 28.3169L61.772 33.6839C61.6964 33.7898 61.5845 33.8642 61.4576 33.8928C61.3307 33.9214 61.1977 33.9022 61.084 33.8389L59.9 33.1859C59.2794 32.8539 58.5772 32.7052 57.8753 32.7572C57.1734 32.8093 56.5008 33.0599 55.936 33.4799C54.8751 34.2586 53.7208 34.9013 52.5 35.3929C51.8361 35.6425 51.2628 36.0862 50.8547 36.6662C50.4466 37.2463 50.2227 37.9358 50.212 38.6449V39.9399C50.1977 40.0526 50.1406 40.1556 50.0526 40.2274C49.9646 40.2992 49.8523 40.3345 49.739 40.3259H43.26C43.1467 40.3345 43.0344 40.2992 42.9464 40.2274C42.8584 40.1556 42.8013 40.0526 42.787 39.9399V38.6449C42.7764 37.9359 42.5526 37.2465 42.1447 36.6665C41.7368 36.0864 41.1637 35.6426 40.5 35.3929C39.2792 34.9009 38.1249 34.2579 37.064 33.4789C36.4165 33.0022 35.634 32.7441 34.83 32.7419C34.2253 32.7398 33.6299 32.8916 33.1 33.1829L31.916 33.8369C31.8025 33.9009 31.6693 33.9204 31.5422 33.8918C31.4151 33.8632 31.3031 33.7884 31.228 33.6819L27.984 28.3159C27.9613 28.2798 27.9463 28.2394 27.94 28.1973C27.9336 28.1551 27.936 28.1121 27.947 28.0709C27.9621 28.0193 27.9876 27.9714 28.0221 27.9301C28.0565 27.8888 28.098 27.8551 28.146 27.8309Z" fill="#FFB400"/>
<path d="M8.39996 29.1377C8.62756 29.32 8.90205 29.4342 9.19177 29.4672C9.48149 29.5002 9.77464 29.4507 10.0374 29.3243C10.3002 29.1979 10.5219 28.9999 10.677 28.7529C10.8321 28.506 10.9142 28.2203 10.914 27.9287V23.2827H21.744V20.1827H10.917V15.5397C10.9179 15.2475 10.836 14.961 10.6809 14.7134C10.5257 14.4657 10.3036 14.2671 10.0402 14.1405C9.77687 14.0139 9.48304 13.9645 9.19275 13.998C8.90246 14.0315 8.62759 14.1465 8.39996 14.3297L0.666959 20.5247C0.485583 20.6698 0.339168 20.8539 0.238552 21.0632C0.137935 21.2726 0.0856934 21.5019 0.0856934 21.7342C0.0856934 21.9665 0.137935 22.1958 0.238552 22.4051C0.339168 22.6145 0.485583 22.7986 0.666959 22.9437L8.39996 29.1377ZM7.81996 18.7617V24.7097L4.10896 21.7337L7.81996 18.7617Z" fill="#FFB400"/>
<path d="M84.5999 14.3297C84.3723 14.1474 84.0978 14.0332 83.8081 14.0002C83.5184 13.9672 83.2252 14.0167 82.9624 14.1431C82.6997 14.2694 82.4779 14.4675 82.3229 14.7145C82.1678 14.9614 82.0856 15.2471 82.0859 15.5387V20.1847H71.2539V23.2847H82.0839V27.9307C82.0837 28.2225 82.166 28.5084 82.3214 28.7554C82.4767 29.0024 82.6987 29.2004 82.9618 29.3266C83.2248 29.4528 83.5182 29.502 83.8081 29.4686C84.098 29.4352 84.3725 29.3205 84.5999 29.1377L92.3359 22.9437C92.5173 22.7986 92.6637 22.6145 92.7643 22.4052C92.8649 22.1958 92.9172 21.9665 92.9172 21.7342C92.9172 21.5019 92.8649 21.2726 92.7643 21.0632C92.6637 20.8539 92.5173 20.6698 92.3359 20.5247L84.5999 14.3297ZM85.1799 24.7057V18.7627L88.8929 21.7347L85.1799 24.7057Z" fill="#FFB400"/>
<path d="M57.3299 92.9697V74.3867C57.3298 74.1306 57.3932 73.8785 57.5145 73.653C57.6358 73.4275 57.8111 73.2357 58.0248 73.0947C58.2384 72.9536 58.4838 72.8678 58.7389 72.8449C58.9939 72.8221 59.2506 72.863 59.4859 72.9638L69.347 77.2038L79.6469 66.8918L77.541 65.4858L69.1469 72.4858C68.9163 72.679 68.6345 72.8006 68.3358 72.8361C68.0371 72.8717 67.7344 72.8195 67.4649 72.6858L59.495 68.6858C58.8503 68.3637 58.1396 68.1956 57.4189 68.1948H48.386L51.109 81.8227C51.1491 82.0221 51.1496 82.2274 51.1103 82.427C51.071 82.6265 50.9927 82.8165 50.88 82.9858L47.786 87.6318C47.6447 87.8438 47.4533 88.0176 47.2287 88.1379C47.0041 88.2582 46.7533 88.321 46.4985 88.321C46.2437 88.321 45.9929 88.2582 45.7683 88.1379C45.5437 88.0176 45.3523 87.8438 45.211 87.6318L42.1169 82.9858C41.8896 82.6437 41.8073 82.2254 41.8879 81.8227L44.6109 68.1948H35.588C34.8688 68.1966 34.1597 68.3643 33.516 68.6848L25.534 72.6787C25.2648 72.8125 24.9623 72.8651 24.6637 72.8296C24.3651 72.794 24.0833 72.672 23.853 72.4787L15.453 65.4787L13.3399 66.8877L23.64 77.1977L33.5119 72.9658C33.7473 72.8644 34.0041 72.8233 34.2594 72.8459C34.5146 72.8685 34.7602 72.9543 34.9741 73.0954C35.1879 73.2366 35.3633 73.4285 35.4845 73.6543C35.6056 73.88 35.6686 74.1324 35.6679 74.3886V92.9716H32.5739V76.7397L23.894 80.4558C23.6103 80.5774 23.2967 80.6112 22.9936 80.5527C22.6906 80.4942 22.412 80.3461 22.1939 80.1276L9.81601 67.7387C9.65397 67.5766 9.52988 67.3806 9.45273 67.1648C9.37559 66.9489 9.34727 66.7186 9.36985 66.4904C9.39242 66.2623 9.46527 66.042 9.58322 65.8454C9.70118 65.6489 9.8613 65.481 10.052 65.3537L14.693 62.2536C14.9704 62.0688 15.3003 61.9788 15.6332 61.9968C15.966 62.0148 16.2841 62.14 16.54 62.3537L25.05 69.4477L32.1269 65.9077C33.2012 65.3725 34.3847 65.0932 35.5849 65.0918H42.7979C40.8403 64.2412 39.2355 62.7421 38.2536 60.8469C37.2718 58.9517 36.9729 56.776 37.4073 54.6862C37.8417 52.5965 38.9828 50.7202 40.6385 49.3733C42.2943 48.0263 44.3636 47.2907 46.498 47.2907C48.6325 47.2907 50.7016 48.0263 52.3574 49.3733C54.0131 50.7202 55.1543 52.5965 55.5887 54.6862C56.0231 56.776 55.7241 58.9517 54.7423 60.8469C53.7604 62.7421 52.1556 64.2412 50.198 65.0918H57.42C58.6236 65.092 59.8105 65.3723 60.8869 65.9106L67.9229 69.4448L76.433 62.3498C76.6897 62.1339 77.0097 62.0073 77.3447 61.9892C77.6797 61.9712 78.0115 62.0627 78.29 62.2497L82.931 65.3498C83.0157 65.406 83.0944 65.4706 83.166 65.5427C83.4563 65.8332 83.6194 66.227 83.6194 66.6377C83.6194 67.0483 83.4563 67.4422 83.166 67.7326L70.7889 80.1218C70.5706 80.3399 70.2922 80.4876 69.9892 80.5461C69.6863 80.6046 69.3727 80.5709 69.089 80.4497L60.426 76.7326V92.9668L57.3299 92.9697ZM45.0489 81.8088L46.5009 83.9878L47.952 81.8068L46.5009 74.5417L45.0489 81.8088ZM40.312 56.5766C40.3132 57.8002 40.6771 58.9961 41.3578 60.0129C42.0384 61.0297 43.0053 61.8221 44.1361 62.2895C45.2669 62.757 46.511 62.8786 47.7109 62.6391C48.9109 62.3997 50.0129 61.8099 50.8777 60.9443C51.7425 60.0787 52.3313 58.976 52.5696 57.7758C52.8078 56.5757 52.6849 55.3317 52.2164 54.2014C51.7479 53.071 50.9547 52.1049 49.9372 51.4253C48.9197 50.7456 47.7236 50.3828 46.5 50.3828C44.8579 50.3838 43.2836 51.0369 42.1231 52.1987C40.9627 53.3605 40.3112 54.9358 40.312 56.5778V56.5766ZM49.739 43.4148H43.213C42.2852 43.4141 41.3949 43.0482 40.7346 42.3965C40.0742 41.7447 39.6968 40.8596 39.6839 39.9319V38.6367C39.6839 38.4757 39.511 38.3366 39.339 38.2636C37.8758 37.6767 36.4922 36.9081 35.2209 35.9758C35.1327 35.9038 35.0261 35.8577 34.9132 35.8432C34.8002 35.8287 34.6855 35.8463 34.582 35.8938L33.3969 36.5478C32.5825 36.9936 31.6285 37.111 30.7303 36.8759C29.8321 36.6409 29.0578 36.0712 28.566 35.2837L25.326 29.9157C25.0872 29.5232 24.9306 29.0864 24.8658 28.6316C24.801 28.1767 24.8293 27.7133 24.9489 27.2697C25.0709 26.8143 25.2847 26.3886 25.577 26.0188C25.8693 25.6489 26.2341 25.3425 26.649 25.1186L27.818 24.4707C27.8793 24.4466 27.9325 24.4056 27.9714 24.3525C28.0104 24.2994 28.0334 24.2363 28.0379 24.1706C27.8049 22.5567 27.8049 20.9176 28.0379 19.3037C28.0361 19.2374 28.0155 19.1731 27.9782 19.1181C27.941 19.0632 27.8889 19.0199 27.828 18.9936L26.656 18.3466C26.2413 18.1224 25.8767 17.8161 25.5844 17.4463C25.2922 17.0764 25.0784 16.651 24.956 16.1958C24.8359 15.7521 24.8074 15.2885 24.8722 14.8335C24.937 14.3784 25.0938 13.9413 25.333 13.5488L28.573 8.18063C29.0641 7.39186 29.8388 6.82125 30.7378 6.58615C31.6367 6.35104 32.5916 6.46939 33.406 6.91671L34.588 7.57077C34.6914 7.61846 34.8061 7.63611 34.919 7.62179C35.032 7.60747 35.1388 7.5617 35.227 7.48971C36.4986 6.5583 37.8829 5.79156 39.347 5.20773C39.519 5.14373 39.692 4.9887 39.692 4.8337V3.53976C39.7044 2.6051 40.0869 1.71346 40.7558 1.06051C41.4247 0.407562 42.3253 0.0467043 43.26 0.0568489H49.739C50.6737 0.0467043 51.5743 0.407562 52.2431 1.06051C52.912 1.71346 53.2946 2.6051 53.307 3.53976V4.8337C53.307 4.9947 53.4809 5.13373 53.6529 5.20773C55.1162 5.794 56.4999 6.5625 57.771 7.49484C57.8587 7.56785 57.9654 7.61435 58.0786 7.62887C58.1918 7.64339 58.3067 7.62513 58.41 7.57662L59.594 6.92282C60.4083 6.47604 61.3629 6.35791 62.2616 6.59298C63.1602 6.82806 63.9347 7.39841 64.426 8.18673L67.665 13.5498C67.9042 13.9423 68.061 14.3794 68.1259 14.8344C68.1909 15.2895 68.1627 15.753 68.0429 16.1967C67.9212 16.6514 67.7083 17.0765 67.4171 17.4463C67.1259 17.816 66.7625 18.1227 66.349 18.3476L65.1789 18.9948C65.1178 19.021 65.0655 19.064 65.0279 19.1189C64.9904 19.1738 64.9692 19.2382 64.967 19.3047C65.201 20.9185 65.201 22.5579 64.967 24.1718C64.9692 24.2382 64.9901 24.3025 65.0274 24.3574C65.0648 24.4123 65.117 24.4553 65.1779 24.4817L66.3499 25.1286C66.7634 25.3535 67.1268 25.6602 67.4181 26.03C67.7093 26.3998 67.9222 26.8251 68.0439 27.2797C68.1637 27.7235 68.192 28.187 68.127 28.6421C68.0621 29.0971 67.9052 29.5342 67.666 29.9267L64.427 35.2946C63.9348 36.0823 63.16 36.6521 62.2614 36.8869C61.3629 37.1218 60.4085 37.004 59.594 36.5578L58.411 35.9048C58.3076 35.8573 58.1929 35.8396 58.0801 35.8537C57.9672 35.8679 57.8604 35.9133 57.7719 35.9848C56.5004 36.9159 55.1164 37.6829 53.6529 38.2678C53.4809 38.3308 53.307 38.4858 53.307 38.6408V39.9358C53.2941 40.8635 52.9167 41.7489 52.2563 42.4006C51.596 43.0523 50.7057 43.418 49.7779 43.4187L49.739 43.4148ZM49.739 40.3247C49.8523 40.3335 49.9647 40.2984 50.0528 40.2265C50.1409 40.1546 50.1979 40.0515 50.212 39.9387V38.6447C50.2227 37.9353 50.4468 37.2457 50.8551 36.6655C51.2634 36.0853 51.8368 35.6414 52.5009 35.3918C53.7238 34.9011 54.8802 34.2587 55.943 33.4797C56.5079 33.0599 57.1805 32.8094 57.8824 32.7575C58.5843 32.7057 59.2865 32.8545 59.907 33.1867L61.0899 33.8398C61.2037 33.9034 61.3369 33.9226 61.4641 33.894C61.5912 33.8654 61.7034 33.791 61.779 33.6848L65.0179 28.3166C65.0407 28.2805 65.0558 28.2403 65.0623 28.1982C65.0689 28.1561 65.0667 28.113 65.056 28.0717C65.0405 28.0204 65.0147 27.9726 64.9803 27.9314C64.946 27.8901 64.9037 27.8563 64.8559 27.8318L63.687 27.1848C63.0763 26.8553 62.5796 26.3486 62.2621 25.7317C61.9446 25.1147 61.8211 24.4162 61.9079 23.7277C62.0997 22.406 62.0997 21.0634 61.9079 19.7417C61.8212 19.0534 61.9447 18.3551 62.2622 17.7382C62.5797 17.1214 63.0764 16.6149 63.687 16.2856L64.8559 15.6386C64.9037 15.6141 64.946 15.5803 64.9803 15.539C65.0147 15.4978 65.0405 15.45 65.056 15.3986C65.0667 15.3574 65.0688 15.3146 65.0622 15.2724C65.0557 15.2303 65.0406 15.1899 65.0179 15.1538L61.779 9.78561C61.7036 9.67926 61.5914 9.60475 61.4642 9.57614C61.337 9.54752 61.2037 9.56703 61.0899 9.63082L59.907 10.2846C59.2862 10.617 58.5835 10.7655 57.8813 10.7124C57.1792 10.6592 56.5067 10.4069 55.943 9.98483C54.8817 9.20824 53.7274 8.5676 52.5069 8.07784C51.8429 7.82842 51.2695 7.38471 50.8612 6.80465C50.4529 6.2246 50.2287 5.5349 50.218 4.82565V3.5317C50.2039 3.41888 50.1469 3.31575 50.0588 3.24386C49.9707 3.17197 49.8583 3.13687 49.745 3.14572H43.266C43.1527 3.13712 43.0404 3.17251 42.9524 3.24435C42.8643 3.31619 42.8072 3.41898 42.7929 3.5317V4.81979C42.7823 5.52907 42.5585 6.21858 42.1504 6.79879C41.7423 7.379 41.1689 7.82296 40.505 8.07272C39.2816 8.5634 38.1248 9.2062 37.062 9.9858C36.497 10.4054 35.8245 10.6557 35.1227 10.7077C34.4208 10.7598 33.7187 10.6114 33.098 10.2797L31.915 9.6257C31.8011 9.56222 31.6678 9.54319 31.5406 9.57199C31.4135 9.60078 31.3014 9.67536 31.2259 9.7817L27.987 15.1486C27.9642 15.1847 27.9491 15.2251 27.9427 15.2673C27.9364 15.3095 27.9388 15.3526 27.9499 15.3938C27.965 15.4453 27.9906 15.4933 28.025 15.5346C28.0594 15.5759 28.102 15.6096 28.15 15.6338L29.3199 16.2807C29.9303 16.6105 30.4269 17.1172 30.7444 17.7341C31.0618 18.351 31.1854 19.0494 31.099 19.7378C30.9064 21.0594 30.9064 22.4022 31.099 23.7238C31.1853 24.4121 31.0617 25.1103 30.7442 25.727C30.4268 26.3437 29.9302 26.85 29.3199 27.1797L28.15 27.8266C28.102 27.8508 28.0595 27.8847 28.0251 27.926C27.9907 27.9673 27.9651 28.0151 27.9499 28.0666C27.9388 28.1078 27.9364 28.1509 27.9427 28.1931C27.9491 28.2353 27.9642 28.2757 27.987 28.3117L31.232 33.6777C31.307 33.7843 31.4189 33.8593 31.5461 33.8879C31.6733 33.9166 31.8066 33.8969 31.92 33.8327L33.103 33.1797C33.6329 32.8882 34.2282 32.7365 34.833 32.7387C35.6371 32.7406 36.4196 32.9988 37.067 33.4758C38.1279 34.2546 39.2822 34.8971 40.503 35.3886C41.167 35.6384 41.7402 36.0824 42.1483 36.6626C42.5564 37.2428 42.7804 37.9325 42.791 38.6418V39.9358C42.8053 40.0485 42.8624 40.1513 42.9504 40.2231C43.0384 40.295 43.1507 40.3303 43.264 40.3217L49.739 40.3247ZM35.675 21.7339C35.6772 19.5923 36.3141 17.4995 37.5055 15.7199C38.6968 13.9404 40.389 12.5541 42.3681 11.736C44.3473 10.918 46.5244 10.7051 48.6245 11.1242C50.7246 11.5434 52.6533 12.5755 54.1668 14.0905C55.6803 15.6056 56.7107 17.5354 57.1277 19.636C57.5446 21.7365 57.3295 23.9135 56.5095 25.8918C55.6895 27.8701 54.3013 29.5607 52.5206 30.7502C50.7399 31.9397 48.6465 32.5747 46.505 32.5747C45.0816 32.5747 43.6721 32.2944 42.3572 31.7495C41.0422 31.2046 39.8476 30.4059 38.8414 29.3991C37.8352 28.3924 37.0372 27.1973 36.493 25.882C35.9489 24.5668 35.6692 23.1572 35.67 21.7339H35.675ZM38.769 21.7339C38.7706 23.2633 39.2255 24.7578 40.0764 26.0288C40.9273 27.2997 42.1359 28.29 43.5494 28.8742C44.9629 29.4584 46.518 29.6106 48.0179 29.3112C49.5178 29.0119 50.8953 28.2744 51.9763 27.1923C53.0573 26.1103 53.7931 24.7321 54.0909 23.2319C54.3887 21.7317 54.2351 20.1768 53.6494 18.7639C53.0637 17.351 52.0723 16.1432 50.8005 15.2937C49.5287 14.4441 48.0335 13.9907 46.504 13.9907C45.4874 13.9907 44.4807 14.1911 43.5415 14.5803C42.6023 14.9695 41.7489 15.5397 41.0302 16.2588C40.3116 16.9778 39.7416 17.8316 39.3529 18.771C38.9642 19.7104 38.7645 20.7172 38.765 21.7339H38.769ZM8.40695 29.1338L0.67197 22.9387C0.582731 22.8671 0.50164 22.786 0.430027 22.6967C0.173982 22.3757 0.0555604 21.9664 0.100925 21.5583C0.14629 21.1502 0.351681 20.7767 0.67197 20.5197L8.40695 14.3256C8.63461 14.143 8.90935 14.0287 9.19931 13.9956C9.48928 13.9624 9.78263 14.0119 10.0456 14.1384C10.3086 14.2649 10.5305 14.4634 10.6855 14.7107C10.8406 14.9579 10.9226 15.2438 10.922 15.5356V20.1818H21.7519V23.2817H10.922V27.9277C10.9224 28.2195 10.8403 28.5055 10.6852 28.7526C10.53 28.9998 10.3082 29.1978 10.0453 29.3242C9.7823 29.4506 9.48895 29.5002 9.19907 29.467C8.90919 29.4338 8.63455 29.3193 8.40695 29.1367V29.1338ZM4.11399 21.7339L7.827 24.7058V18.7617L4.11399 21.7339ZM82.088 27.9287V23.2827H71.258V20.1828H82.088V15.5368C82.0875 15.2452 82.1695 14.9592 82.3246 14.7121C82.4796 14.465 82.7013 14.2668 82.9641 14.1403C83.2269 14.0138 83.5201 13.9643 83.8099 13.9973C84.0997 14.0303 84.3744 14.1443 84.602 14.3266L92.337 20.5207C92.4266 20.5923 92.5077 20.6737 92.5789 20.7636C92.8352 21.0844 92.9537 21.4938 92.9083 21.9018C92.8629 22.3098 92.6575 22.6831 92.337 22.9397L84.602 29.1347C84.3744 29.317 84.0999 29.4313 83.8102 29.4643C83.5204 29.4973 83.2272 29.4476 82.9644 29.3213C82.7017 29.1949 82.48 28.9969 82.3249 28.75C82.1698 28.503 82.0877 28.2173 82.088 27.9257V27.9287ZM85.182 24.7058L88.895 21.7339L85.182 18.7617V24.7058Z" fill="#54AF3A"/>
</svg>
