<svg width="85" height="94" viewBox="0 0 85 94" fill="none" xmlns="http://www.w3.org/2000/svg">
<path d="M16.318 92.9933C18.0691 92.989 19.7478 92.2945 20.99 91.0603C21.1479 90.9016 21.2975 90.7347 21.438 90.5603C21.9876 91.2332 22.6644 91.7913 23.4297 92.2026C24.1949 92.614 25.0338 92.8705 25.8982 92.9576C26.7627 93.0447 27.6358 92.9607 28.4678 92.7103C29.2997 92.4599 30.0742 92.0481 30.747 91.4983C30.917 91.359 31.08 91.2117 31.236 91.0563C31.508 90.7814 31.7546 90.4825 31.973 90.1633C32.1861 90.4631 32.4222 90.746 32.679 91.0093C33.3552 91.6828 34.1658 92.2063 35.0578 92.5456C35.9498 92.885 36.9034 93.0326 37.8562 92.9788C38.8091 92.925 39.74 92.6711 40.5882 92.2335C41.4364 91.796 42.1829 91.1846 42.779 90.4393C42.9376 90.6384 43.1068 90.8286 43.286 91.0093C43.9182 91.6385 44.6682 92.137 45.493 92.4763C46.3179 92.8156 47.2015 92.9891 48.0935 92.9869C48.9854 92.9847 49.8682 92.8068 50.6913 92.4633C51.5145 92.1199 52.262 91.6177 52.891 90.9853C53.0243 90.852 53.1533 90.7107 53.278 90.5613C53.4099 90.7352 53.5508 90.9021 53.7 91.0613C54.314 91.6744 55.0429 92.1605 55.8449 92.4916C56.647 92.8227 57.5064 92.9924 58.3741 92.991C59.2418 92.9896 60.1007 92.8171 60.9017 92.4835C61.7027 92.1498 62.43 91.6614 63.042 91.0463C63.1967 90.891 63.3437 90.728 63.483 90.5573C63.625 90.7323 63.783 90.9003 63.936 91.0573C64.8613 91.9792 66.0389 92.6064 67.3202 92.86C68.6016 93.1135 69.9293 92.9819 71.1359 92.4819C72.3426 91.9819 73.3742 91.1358 74.1007 90.0503C74.8271 88.9648 75.2159 87.6885 75.218 86.3823V67.6993C75.824 67.6993 76.725 67.6993 78.065 67.7073C79.8745 67.7113 81.6122 67.0004 82.9 65.7293C83.5387 65.0985 84.0452 64.3467 84.3902 63.5179C84.7351 62.6892 84.9115 61.8 84.909 60.9023V42.6503C84.905 38.6929 83.3316 34.8986 80.5339 32.0997C77.7361 29.3008 73.9424 27.7259 69.985 27.7203H57.425C55.0641 26.2906 52.36 25.5269 49.6 25.5103H49.519C49.496 25.5103 49.474 25.5173 49.453 25.5183C49.3744 25.5216 49.2962 25.531 49.219 25.5463C49.183 25.5543 49.149 25.5633 49.113 25.5733C49.0425 25.5933 48.9736 25.6188 48.907 25.6493C48.875 25.6643 48.844 25.6773 48.813 25.6943C48.7428 25.7331 48.6759 25.7776 48.613 25.8273C48.59 25.8443 48.566 25.8593 48.545 25.8783C48.4608 25.9505 48.3849 26.0321 48.319 26.1213L42.78 33.6903L37.247 26.1183C37.1812 26.0296 37.1057 25.9485 37.022 25.8763C36.999 25.8563 36.974 25.8413 36.952 25.8233C36.8891 25.7738 36.8222 25.7297 36.752 25.6913C36.721 25.6743 36.691 25.6613 36.659 25.6463C36.5909 25.6157 36.5208 25.59 36.449 25.5693L36.349 25.5433C36.2683 25.5268 36.1863 25.5171 36.104 25.5143C36.084 25.5143 36.065 25.5073 36.045 25.5073H35.958C33.1942 25.5231 30.4864 26.2883 28.123 27.7213C28.062 27.7213 28.003 27.7143 27.942 27.7143H14.942C10.9809 27.7167 7.18265 29.2909 4.38117 32.0912C1.57969 34.8916 0.0039858 38.6892 1.24424e-05 42.6503V60.9023C-0.00170997 61.8 0.17541 62.6889 0.521032 63.5174C0.866654 64.3458 1.37385 65.0971 2.01301 65.7273C2.65153 66.3603 3.40851 66.8612 4.2407 67.2014C5.07288 67.5417 5.96396 67.7146 6.86301 67.7103C8.19901 67.6973 9.09901 67.6963 9.70601 67.7013V86.3863C9.70892 88.1386 10.4066 89.8182 11.6461 91.0567C12.8856 92.2953 14.5658 92.9917 16.318 92.9933ZM48.086 90.0173C47.0799 90.0224 46.1129 89.6282 45.3969 88.9213C44.681 88.2144 44.2747 87.2524 44.267 86.2463C44.267 86.2303 44.267 86.2143 44.267 86.1983V61.6363C44.2722 61.4377 44.2375 61.2401 44.1651 61.0552C44.0926 60.8702 43.9839 60.7016 43.8452 60.5593C43.7066 60.417 43.5409 60.3039 43.3578 60.2267C43.1748 60.1495 42.9782 60.1098 42.7795 60.1098C42.5809 60.1098 42.3842 60.1495 42.2012 60.2267C42.0181 60.3039 41.8524 60.417 41.7138 60.5593C41.5751 60.7016 41.4664 60.8702 41.394 61.0552C41.3215 61.2401 41.2869 61.4377 41.292 61.6363V86.1983C41.3002 86.7043 41.2076 87.2069 41.0197 87.6767C40.8317 88.1466 40.5521 88.5743 40.1972 88.9351C39.8422 89.2958 39.4191 89.5823 38.9523 89.7778C38.4856 89.9734 37.9846 90.0741 37.4785 90.0741C36.9725 90.0741 36.4715 89.9734 36.0047 89.7778C35.538 89.5823 35.1148 89.2958 34.7599 88.9351C34.4049 88.5743 34.1253 88.1466 33.9374 87.6767C33.7494 87.2069 33.6568 86.7043 33.665 86.1983V46.1913C33.665 45.7979 33.5092 45.4205 33.2317 45.1416C32.9541 44.8628 32.5774 44.7052 32.184 44.7033C31.794 44.7125 31.4221 44.8701 31.1443 45.144C30.8665 45.4179 30.7037 45.7875 30.689 46.1773C30.589 56.5403 30.55 61.4283 30.616 63.8183C29.916 63.8123 28.96 63.8183 27.664 63.8283C27.1363 63.8321 26.613 63.732 26.1239 63.5335C25.6349 63.335 25.1898 63.0422 24.814 62.6717C24.4382 62.3011 24.139 61.8602 23.9336 61.3741C23.7283 60.8879 23.6207 60.3661 23.617 59.8383C23.617 59.8293 23.617 59.8193 23.617 59.8103V40.9103C23.6196 40.4354 23.6493 39.9609 23.706 39.4893C23.724 39.3333 23.751 39.1803 23.773 39.0273C23.821 38.7173 23.878 38.4123 23.948 38.1083C23.99 37.9293 24.031 37.7513 24.08 37.5753C24.157 37.2983 24.25 37.0273 24.345 36.7583C24.408 36.5793 24.464 36.3983 24.534 36.2233C24.684 35.8543 24.855 35.4943 25.04 35.1433C25.154 34.9253 25.283 34.7163 25.409 34.5073C25.509 34.3353 25.618 34.1653 25.729 33.9983C25.8663 33.793 26.0097 33.593 26.159 33.3983C26.297 33.2173 26.444 33.0443 26.592 32.8703C26.74 32.6963 26.862 32.5423 27.008 32.3883C27.3078 32.0746 27.6236 31.7766 27.954 31.4953C28.042 31.4193 28.137 31.3493 28.229 31.2753C28.545 31.0203 28.873 30.7753 29.221 30.5513C31.0344 29.3451 33.135 28.6409 35.309 28.5103L35.939 29.3713L41.513 36.9993L41.579 37.0903C41.59 37.1063 41.606 37.1163 41.617 37.1303C41.644 37.1643 41.669 37.1983 41.698 37.2303C41.7453 37.2793 41.7961 37.3247 41.85 37.3663C41.868 37.3813 41.883 37.4003 41.903 37.4143L41.936 37.4313C42.0487 37.5102 42.1719 37.5728 42.302 37.6173C42.314 37.6173 42.325 37.6283 42.337 37.6313C42.5149 37.6919 42.7032 37.716 42.8906 37.7023C43.0781 37.6886 43.2608 37.6372 43.428 37.5513C43.443 37.5443 43.457 37.5353 43.472 37.5273C43.5525 37.4849 43.6288 37.435 43.7 37.3783C43.722 37.3613 43.743 37.3443 43.762 37.3263C43.8301 37.2653 43.8927 37.1984 43.949 37.1263C43.959 37.1133 43.972 37.1043 43.982 37.0903L44.014 37.0463L50.254 28.5103C52.457 28.643 54.5839 29.3644 56.413 30.5993C56.705 30.7993 56.984 30.9993 57.256 31.2193C57.375 31.3193 57.497 31.4053 57.613 31.5053C57.9376 31.7828 58.2477 32.0769 58.542 32.3863C58.682 32.5343 58.809 32.6953 58.942 32.8493C59.1 33.0333 59.256 33.2183 59.403 33.4113C59.55 33.6043 59.679 33.7873 59.81 33.9803C59.941 34.1733 60.054 34.3573 60.169 34.5503C60.284 34.7433 60.402 34.9323 60.507 35.1303C60.7021 35.4963 60.878 35.8721 61.034 36.2563C61.095 36.4053 61.141 36.5623 61.196 36.7133C61.296 37.0033 61.396 37.2953 61.481 37.5933C61.528 37.7613 61.567 37.9313 61.607 38.1013C61.6797 38.412 61.7397 38.7257 61.787 39.0423C61.81 39.1923 61.836 39.3423 61.853 39.4923C61.9097 39.9646 61.9394 40.4397 61.942 40.9153V59.8103C61.942 60.8758 61.5188 61.8976 60.7655 62.6511C60.0122 63.4046 58.9905 63.8281 57.925 63.8283H57.9C56.6 63.8173 55.652 63.8123 54.945 63.8183C55.01 61.4273 54.974 56.5403 54.872 46.1773C54.8683 45.7851 54.7099 45.4102 54.4313 45.1342C54.1526 44.8582 53.7762 44.7033 53.384 44.7033H53.377C52.9836 44.7052 52.6069 44.8628 52.3294 45.1416C52.0518 45.4205 51.896 45.7979 51.896 46.1913V86.1983C51.896 87.2096 51.4949 88.1796 50.7806 88.8956C50.0664 89.6115 49.0973 90.0149 48.086 90.0173ZM69.986 30.6963C73.155 30.7 76.1931 31.9608 78.4336 34.2018C80.6741 36.4429 81.9341 39.4813 81.937 42.6503V60.9023C81.9385 61.4075 81.8392 61.9079 81.645 62.3742C81.4508 62.8406 81.1656 63.2635 80.806 63.6183C80.0747 64.3255 79.0993 64.7241 78.082 64.7313C76.873 64.7203 75.966 64.7113 75.282 64.7173C75.342 62.3973 75.312 57.6743 75.215 47.7333C75.2111 47.3413 75.0526 46.9667 74.7739 46.6908C74.4953 46.415 74.1191 46.2603 73.727 46.2603H73.72C73.3266 46.2622 72.9499 46.4198 72.6724 46.6986C72.3948 46.9775 72.239 47.3549 72.239 47.7483V86.3863C72.239 86.8637 72.145 87.3364 71.9623 87.7774C71.7796 88.2184 71.5119 88.6191 71.1743 88.9567C70.8368 89.2942 70.4361 89.5619 69.9951 89.7446C69.5541 89.9273 69.0814 90.0213 68.604 90.0213C68.1267 90.0213 67.654 89.9273 67.213 89.7446C66.7719 89.5619 66.3712 89.2942 66.0337 88.9567C65.6961 88.6191 65.4284 88.2184 65.2457 87.7774C65.063 87.3364 64.969 86.8637 64.969 86.3863L64.919 67.0923C64.919 66.6977 64.7622 66.3192 64.4832 66.0401C64.2041 65.7611 63.8257 65.6043 63.431 65.6043C63.0364 65.6043 62.6579 65.7611 62.3788 66.0401C62.0998 66.3192 61.943 66.6977 61.943 67.0923L61.993 86.3863C61.9931 87.1047 61.7802 87.807 61.3812 88.4043C60.9822 89.0017 60.415 89.4673 59.7513 89.7423C59.0877 90.0173 58.3574 90.0893 57.6528 89.9492C56.9482 89.8091 56.301 89.4632 55.793 88.9553C55.2847 88.4456 54.9415 87.7947 54.808 87.0873V87.0443C54.8452 86.7635 54.8649 86.4806 54.867 86.1973V66.8003C55.578 66.7933 56.583 66.7933 57.872 66.8003C59.7268 66.8115 61.5102 66.0861 62.8306 64.7833C64.1509 63.4806 64.9003 61.7071 64.914 59.8523C64.914 59.8373 64.914 59.8213 64.914 59.8063V40.9103C64.914 40.4023 64.886 39.9003 64.838 39.4023C64.823 39.2553 64.796 39.1123 64.778 38.9683C64.734 38.6153 64.686 38.2633 64.617 37.9163C64.588 37.7683 64.55 37.6253 64.517 37.4803C64.439 37.1363 64.354 36.7953 64.254 36.4583C64.216 36.3333 64.173 36.2113 64.131 36.0883C64.015 35.7333 63.888 35.3823 63.746 35.0373C63.706 34.9373 63.665 34.8483 63.623 34.7533C63.463 34.3853 63.289 34.025 63.101 33.6723C63.064 33.6043 63.028 33.5363 62.99 33.4723C62.786 33.1023 62.5667 32.742 62.332 32.3913L62.232 32.2363C61.9913 31.885 61.7357 31.5433 61.465 31.2113C61.423 31.1603 61.383 31.1113 61.341 31.0593C61.241 30.9393 61.15 30.8123 61.041 30.6953L69.986 30.6963ZM9.65301 64.7203C8.98801 64.7203 8.08401 64.7203 6.84101 64.7313C5.82354 64.7369 4.84552 64.3381 4.12203 63.6227C3.39854 62.9073 2.98883 61.9338 2.98301 60.9163C2.98301 60.9163 2.98301 60.9073 2.98301 60.9023V42.6503C2.98725 39.4809 4.24832 36.4425 6.48964 34.2015C8.73097 31.9606 11.7696 30.7 14.939 30.6963H24.513C24.407 30.8163 24.313 30.9453 24.213 31.0683C24.177 31.1113 24.144 31.1543 24.108 31.1983C23.828 31.5397 23.5637 31.892 23.315 32.2553L23.24 32.3673C22.9953 32.7347 22.7667 33.1113 22.554 33.4973C22.525 33.5493 22.497 33.5973 22.47 33.6523C22.27 34.0217 22.088 34.399 21.924 34.7843C21.889 34.8633 21.854 34.9423 21.824 35.0223C21.675 35.3813 21.543 35.7463 21.424 36.1133C21.387 36.2233 21.349 36.3323 21.315 36.4443C21.21 36.7913 21.123 37.1443 21.042 37.4993C21.011 37.6363 20.975 37.7713 20.948 37.9093C20.879 38.2623 20.829 38.6203 20.783 38.9803C20.766 39.1203 20.739 39.2573 20.725 39.3993C20.676 39.8993 20.649 40.3993 20.649 40.9093V59.8103C20.6509 61.6644 21.3882 63.442 22.6993 64.7531C24.0103 66.0641 25.7879 66.8015 27.642 66.8033H27.7C28.712 66.7973 29.541 66.7953 30.194 66.8033V86.3863C30.194 87.3504 29.811 88.275 29.1293 88.9567C28.4477 89.6384 27.5231 90.0213 26.559 90.0213C25.595 90.0213 24.6704 89.6384 23.9887 88.9567C23.307 88.275 22.924 87.3504 22.924 86.3863V67.0923C22.9292 66.8937 22.8945 66.6961 22.8221 66.5112C22.7496 66.3262 22.6409 66.1576 22.5022 66.0153C22.3636 65.873 22.1979 65.7599 22.0148 65.6827C21.8318 65.6055 21.6352 65.5658 21.4365 65.5658C21.2379 65.5658 21.0412 65.6055 20.8582 65.6827C20.6751 65.7599 20.5094 65.873 20.3708 66.0153C20.2322 66.1576 20.1234 66.3262 20.051 66.5112C19.9785 66.6961 19.9439 66.8937 19.949 67.0923V86.3863C19.949 87.3504 19.566 88.275 18.8843 88.9567C18.2027 89.6384 17.2781 90.0213 16.314 90.0213C15.35 90.0213 14.4254 89.6384 13.7437 88.9567C13.062 88.275 12.679 87.3504 12.679 86.3863V47.7483C12.6788 47.3554 12.5231 46.9785 12.246 46.7C11.9689 46.4214 11.5929 46.2637 11.2 46.2613H11.19C10.7973 46.2608 10.4202 46.4155 10.1411 46.6918C9.862 46.9681 9.70344 47.3436 9.70001 47.7363C9.61201 57.9533 9.61601 62.5843 9.65301 64.7203Z" fill="#FFB400"/>
<path d="M29.975 15.9774C29.9754 13.8822 29.3545 11.834 28.191 10.0917C27.0274 8.34941 25.3733 6.99124 23.4379 6.18892C21.5025 5.3866 19.3726 5.17617 17.3176 5.58423C15.2626 5.99229 13.3748 7.00052 11.8927 8.48144C10.4107 9.96235 9.40104 11.8495 8.99143 13.9042C8.58182 15.9588 8.79064 18.0889 9.5915 20.0249C10.3924 21.9609 11.7493 23.616 13.4907 24.7809C15.2321 25.9458 17.2799 26.5682 19.375 26.5694C22.1843 26.5675 24.8782 25.4512 26.8655 23.4655C28.8527 21.4797 29.971 18.7867 29.975 15.9774ZM11.763 15.9774C11.7626 14.4707 12.209 12.9978 13.0457 11.7448C13.8824 10.4918 15.0718 9.51508 16.4636 8.9381C17.8554 8.36112 19.3871 8.20979 20.8649 8.50327C22.3427 8.79674 23.7002 9.52183 24.766 10.5868C25.8317 11.6519 26.5577 13.009 26.8521 14.4866C27.1465 15.9642 26.9962 17.4959 26.4202 18.8881C25.8441 20.2803 24.8681 21.4704 23.6157 22.3079C22.3633 23.1454 20.8906 23.5928 19.384 23.5934C17.3641 23.5918 15.4274 22.789 13.9987 21.3612C12.5699 19.9334 11.7659 17.9972 11.763 15.9774Z" fill="#FFB400"/>
<path d="M54.873 12.1202C54.8716 9.72871 54.1612 7.39135 52.8316 5.40358C51.5019 3.41582 49.6128 1.86692 47.403 0.952702C45.1931 0.0384848 42.7619 -0.199998 40.4165 0.267403C38.0711 0.734804 35.917 1.8871 34.2265 3.57862C32.536 5.27013 31.3849 7.42491 30.9189 9.77053C30.4528 12.1162 30.6927 14.5473 31.6082 16.7566C32.5237 18.9659 34.0737 20.8541 36.0622 22.1826C38.0508 23.5111 40.3885 24.2202 42.78 24.2202C44.3686 24.2201 45.9417 23.9069 47.4093 23.2987C48.8769 22.6905 50.2102 21.7991 51.3332 20.6755C52.4562 19.5518 53.3469 18.2179 53.9542 16.75C54.5616 15.282 54.8738 13.7088 54.873 12.1202ZM33.662 12.1202C33.6624 10.3169 34.1975 8.55422 35.1996 7.05504C36.2018 5.55586 37.626 4.38749 39.2921 3.69768C40.9582 3.00786 42.7915 2.82758 44.5601 3.17963C46.3287 3.53167 47.9531 4.40024 49.2281 5.67549C50.5031 6.95075 51.3713 8.57542 51.723 10.3441C52.0746 12.1128 51.8939 13.946 51.2038 15.612C50.5136 17.2779 49.3449 18.7019 47.8455 19.7037C46.3461 20.7055 44.5833 21.2402 42.78 21.2402C41.5825 21.2401 40.3967 21.0041 39.2904 20.5457C38.1841 20.0873 37.1789 19.4155 36.3322 18.5686C35.4855 17.7217 34.8139 16.7164 34.3558 15.61C33.8976 14.5035 33.6619 13.3177 33.662 12.1202Z" fill="#FFB400"/>
<path d="M76.13 15.9774C76.1304 13.8822 75.5096 11.834 74.346 10.0917C73.1824 8.34941 71.5284 6.99124 69.5929 6.18892C67.6575 5.3866 65.5277 5.17617 63.4727 5.58423C61.4177 5.99229 59.5298 7.00052 58.0478 8.48144C56.5657 9.96235 55.5561 11.8495 55.1465 13.9042C54.7368 15.9588 54.9457 18.0889 55.7465 20.0249C56.5474 21.9609 57.9043 23.616 59.6457 24.7809C61.3872 25.9458 63.4349 26.5682 65.53 26.5694C68.3394 26.5675 71.0332 25.4512 73.0205 23.4655C75.0077 21.4797 76.126 18.7867 76.13 15.9774ZM57.918 15.9774C57.9176 14.4707 58.364 12.9978 59.2007 11.7448C60.0374 10.4918 61.2269 9.51508 62.6187 8.9381C64.0105 8.36112 65.5421 8.20979 67.0199 8.50327C68.4977 8.79674 69.8553 9.52183 70.921 10.5868C71.9867 11.6519 72.7127 13.009 73.0071 14.4866C73.3016 15.9642 73.1513 17.4959 72.5752 18.8881C71.9991 20.2803 71.0232 21.4704 69.7707 22.3079C68.5183 23.1454 67.0457 23.5928 65.539 23.5934C63.5192 23.5918 61.5824 22.789 60.1537 21.3612C58.725 19.9334 57.9209 17.9972 57.918 15.9774Z" fill="#FFB400"/>
<path d="M21.437 90.5632C21.2967 90.7377 21.1471 90.9046 20.989 91.0632C20.0643 91.9866 18.8867 92.6153 17.6049 92.8698C16.3231 93.1244 14.9945 92.9934 13.7871 92.4934C12.5797 91.9934 11.5476 91.1468 10.8211 90.0605C10.0945 88.9743 9.70611 87.6969 9.70496 86.3901V67.7063C9.09796 67.7003 8.19905 67.7063 6.86305 67.7143C5.96442 67.7181 5.07385 67.5447 4.2422 67.2043C3.41054 66.8639 2.65404 66.363 2.016 65.7302C1.37706 65.0998 0.870029 64.3484 0.524423 63.52C0.178817 62.6916 0.00161652 61.8028 0.00306051 60.9052V42.6523C0.00756136 38.6924 1.58272 34.8959 4.38307 32.0962C7.18341 29.2964 10.9801 27.7219 14.9399 27.7182H27.94C28 27.7182 28.06 27.7243 28.12 27.7243C30.4835 26.2916 33.1912 25.5263 35.955 25.5102H36.042C36.062 25.5102 36.081 25.5173 36.1 25.5173C36.1823 25.5203 36.2642 25.5298 36.345 25.5461L36.445 25.5722C36.5165 25.5934 36.5867 25.619 36.655 25.6491C36.687 25.6631 36.718 25.6773 36.749 25.6933C36.8192 25.7318 36.8861 25.7757 36.949 25.8252C36.972 25.8432 36.9971 25.8572 37.0191 25.8772C37.1027 25.9496 37.1785 26.0307 37.245 26.1191L42.778 33.6911L48.312 26.1242C48.3778 26.0348 48.4536 25.9534 48.538 25.8813C48.56 25.8623 48.5841 25.8473 48.6071 25.8303C48.6701 25.781 48.7369 25.7367 48.807 25.6982C48.838 25.6812 48.869 25.6683 48.901 25.6543C48.9675 25.6232 49.0365 25.5973 49.1071 25.5771C49.1431 25.5671 49.177 25.5583 49.213 25.5503C49.2902 25.535 49.3684 25.5259 49.447 25.5232C49.469 25.5232 49.49 25.5151 49.514 25.5151H49.595C52.3561 25.5307 55.0615 26.2937 57.424 27.7231H69.985C73.9428 27.7279 77.737 29.3025 80.5354 32.1013C83.3338 34.9 84.9078 38.6945 84.912 42.6523V60.9052C84.9145 61.803 84.7381 62.6924 84.393 63.5212C84.0478 64.35 83.541 65.1015 82.902 65.7321C81.612 67.0055 79.8706 67.7167 78.058 67.7102C76.718 67.7022 75.8181 67.7021 75.2111 67.7021V86.3901C75.2088 87.6961 74.8199 88.9723 74.0935 90.0576C73.3671 91.1429 72.3356 91.9888 71.1292 92.4887C69.9227 92.9887 68.5951 93.1202 67.314 92.8669C66.0328 92.6136 64.8554 91.9867 63.9301 91.0652C63.7741 90.9062 63.619 90.7362 63.476 90.5652C63.3376 90.7357 63.1905 90.899 63.035 91.0542C62.423 91.6691 61.6958 92.1573 60.8949 92.4909C60.094 92.8245 59.2351 92.9971 58.3676 92.9985C57.5 92.9999 56.6407 92.83 55.8388 92.499C55.0368 92.168 54.308 91.6823 53.694 91.0693C53.54 90.9163 53.411 90.7412 53.272 90.5742C53.15 90.7202 53.02 90.8613 52.885 90.9973C52.2559 91.6297 51.5084 92.1319 50.6851 92.4753C49.8618 92.8187 48.9789 92.9966 48.0868 92.9987C47.1947 93.0009 46.311 92.8273 45.4861 92.4878C44.6612 92.1483 43.9112 91.6496 43.2791 91.0202C43.0997 90.8393 42.9304 90.6487 42.772 90.4492C42.6197 90.6402 42.4569 90.8226 42.2841 90.9953C41.6549 91.6279 40.9072 92.1301 40.0839 92.4736C39.2605 92.8171 38.3776 92.9951 37.4855 92.9973C36.5933 92.9995 35.7095 92.826 34.8844 92.4865C34.0594 92.1471 33.3093 91.6486 32.677 91.0193C32.4196 90.7562 32.1831 90.4734 31.97 90.1733C31.7517 90.4926 31.5051 90.7913 31.233 91.0661C31.078 91.2211 30.914 91.3663 30.744 91.5083C30.0713 92.0581 29.2968 92.47 28.4649 92.7204C27.6329 92.9709 26.7596 93.0551 25.8952 92.968C25.0307 92.8809 24.1918 92.6243 23.4265 92.2129C22.6612 91.8015 21.9846 91.2433 21.4351 90.5703L21.437 90.5632ZM64.917 67.0932L64.966 86.3862C64.966 87.3503 65.349 88.2748 66.0306 88.9565C66.7123 89.6382 67.6369 90.0212 68.601 90.0212C69.565 90.0212 70.4897 89.6382 71.1714 88.9565C71.8531 88.2748 72.236 87.3503 72.236 86.3862V47.7483C72.236 47.3547 72.3918 46.9772 72.6693 46.6982C72.9468 46.4192 73.3235 46.2614 73.717 46.2592H73.723C74.1151 46.2592 74.4913 46.4138 74.7699 46.6897C75.0485 46.9655 75.2071 47.3401 75.2111 47.7321C75.3111 57.6721 75.3381 62.3963 75.2791 64.7163C75.9671 64.7103 76.873 64.7162 78.079 64.7292C79.0957 64.7218 80.0707 64.3236 80.802 63.6172C81.1611 63.2621 81.446 62.8391 81.64 62.3728C81.834 61.9065 81.9333 61.4064 81.932 60.9013V42.6482C81.9288 39.4794 80.6688 36.4414 78.4282 34.2007C76.1877 31.9599 73.1497 30.6997 69.981 30.6963H61.041C61.147 30.8133 61.241 30.9412 61.341 31.0612L61.464 31.2131C61.7347 31.5464 61.9903 31.8879 62.231 32.2373L62.3311 32.3923C62.5651 32.7423 62.7844 33.1024 62.989 33.4731C63.027 33.5371 63.064 33.6043 63.1 33.6733C63.288 34.026 63.462 34.3867 63.622 34.7553C63.663 34.8493 63.706 34.9393 63.745 35.0383C63.886 35.3823 64.013 35.7331 64.129 36.0881C64.171 36.2101 64.215 36.3332 64.252 36.4582C64.352 36.7952 64.437 37.1362 64.515 37.4792C64.546 37.6252 64.585 37.7682 64.615 37.9172C64.683 38.2622 64.732 38.6173 64.776 38.9673C64.795 39.1123 64.8221 39.2553 64.8361 39.4023C64.8851 39.9023 64.913 40.4021 64.913 40.9111V59.8503C64.8992 61.7051 64.1499 63.4785 62.8296 64.7812C61.5092 66.0839 59.7258 66.8095 57.871 66.7983C56.582 66.7913 55.577 66.7913 54.866 66.7983V86.1982C54.8642 86.4815 54.8448 86.7643 54.808 87.0451V87.0881C54.9419 87.7954 55.285 88.4463 55.793 88.9563C56.3009 89.4647 56.9482 89.8111 57.6531 89.9514C58.3579 90.0917 59.0886 90.0195 59.7524 89.7444C60.4163 89.4692 60.9836 89.0033 61.3825 88.4055C61.7813 87.8077 61.9938 87.1049 61.993 86.3862L61.943 67.0932C61.9379 66.8946 61.9725 66.6972 62.0449 66.5122C62.1174 66.3272 62.2261 66.1584 62.3648 66.0161C62.5034 65.8738 62.6691 65.7608 62.8522 65.6836C63.0352 65.6064 63.2319 65.5666 63.4305 65.5666C63.6292 65.5666 63.8258 65.6064 64.0088 65.6836C64.1918 65.7608 64.3576 65.8738 64.4962 66.0161C64.6349 66.1584 64.7436 66.3272 64.816 66.5122C64.8885 66.6972 64.9221 66.8946 64.917 67.0932ZM22.928 67.0932V86.3862C22.928 87.3503 23.311 88.2748 23.9927 88.9565C24.6744 89.6382 25.5989 90.0212 26.563 90.0212C27.5271 90.0212 28.4516 89.6382 29.1333 88.9565C29.815 88.2748 30.198 87.3503 30.198 86.3862V66.8042C29.544 66.7962 28.715 66.7982 27.703 66.8042H27.642C25.7879 66.8026 24.0102 66.0655 22.699 64.7546C21.3878 63.4438 20.6501 61.6663 20.648 59.8122V40.9123C20.648 40.4043 20.676 39.8993 20.725 39.4033C20.739 39.2613 20.765 39.1243 20.782 38.9843C20.828 38.6243 20.882 38.2663 20.947 37.9133C20.974 37.7753 21.011 37.6401 21.041 37.5031C21.121 37.1481 21.208 36.7952 21.314 36.4482C21.347 36.3352 21.386 36.2262 21.423 36.1162C21.544 35.7492 21.676 35.3841 21.823 35.0251C21.852 34.9441 21.888 34.8671 21.923 34.7861C22.0896 34.4008 22.272 34.0236 22.47 33.6543C22.498 33.5993 22.525 33.5542 22.554 33.5002C22.7673 33.1135 22.9963 32.737 23.241 32.3703L23.317 32.2583C23.5664 31.8936 23.8307 31.5411 24.11 31.2011L24.215 31.0703C24.315 30.9473 24.407 30.8182 24.515 30.6992H14.941C11.7717 30.7024 8.733 31.9625 6.49146 34.2031C4.24992 36.4437 2.98852 39.482 2.98402 42.6513V60.9172C2.98677 61.421 3.08868 61.9193 3.28407 62.3838C3.47945 62.8482 3.76443 63.2697 4.12269 63.624C4.48095 63.9783 4.9055 64.2583 5.37208 64.4485C5.83866 64.6386 6.33821 64.735 6.84205 64.7321C8.08505 64.7211 8.98906 64.7212 9.65406 64.7212C9.61706 62.5842 9.61299 57.9543 9.70399 47.7363C9.70742 47.3439 9.86573 46.9686 10.1444 46.6924C10.4231 46.4161 10.7996 46.2612 11.192 46.2612H11.204C11.5975 46.2633 11.9742 46.4212 12.2517 46.7002C12.5292 46.9792 12.6851 47.3567 12.6851 47.7502V86.3882C12.6851 86.8655 12.779 87.3382 12.9617 87.7793C13.1444 88.2203 13.4121 88.6209 13.7496 88.9585C14.0872 89.296 14.4879 89.5639 14.929 89.7466C15.37 89.9292 15.8426 90.0232 16.32 90.0232C16.7973 90.0232 17.2701 89.9292 17.7111 89.7466C18.1521 89.5639 18.5528 89.296 18.8904 88.9585C19.2279 88.6209 19.4957 88.2203 19.6784 87.7793C19.861 87.3382 19.955 86.8655 19.955 86.3882V67.0952C19.9498 66.8966 19.9846 66.6991 20.057 66.5141C20.1295 66.3292 20.2382 66.1606 20.3768 66.0183C20.5155 65.876 20.6811 65.763 20.8641 65.6858C21.0472 65.6086 21.2439 65.5686 21.4425 65.5686C21.6412 65.5686 21.8378 65.6086 22.0209 65.6858C22.2039 65.763 22.3696 65.876 22.5082 66.0183C22.6468 66.1606 22.7556 66.3292 22.828 66.5141C22.9005 66.6991 22.9352 66.8966 22.9301 67.0952L22.928 67.0932ZM44.267 61.6362V86.2453C44.2733 87.2563 44.6811 88.2232 45.4005 88.9336C46.1199 89.644 47.092 90.0395 48.103 90.0332C49.114 90.0268 50.0811 89.619 50.7915 88.8996C51.5019 88.1802 51.8974 87.2082 51.891 86.1972V46.1902C51.891 45.7967 52.0468 45.4194 52.3243 45.1406C52.6019 44.8617 52.9785 44.704 53.372 44.7021H53.3781C53.7703 44.7021 54.1466 44.857 54.4253 45.133C54.704 45.4091 54.8623 45.784 54.866 46.1762C54.966 56.5402 55.006 61.4261 54.9399 63.8171C55.6469 63.8121 56.598 63.8171 57.895 63.8271H57.922C58.9872 63.8271 60.0088 63.4042 60.7621 62.6511C61.5154 61.898 61.9387 60.8764 61.939 59.8112V40.9111C61.9364 40.4351 61.9067 39.9599 61.85 39.4873C61.832 39.3343 61.806 39.1873 61.783 39.0373C61.7363 38.7207 61.6764 38.4068 61.603 38.0962C61.563 37.9262 61.5241 37.7561 61.4771 37.5881C61.3911 37.2881 61.297 36.9972 61.193 36.7082C61.138 36.5562 61.093 36.3992 61.031 36.2512C60.8757 35.8668 60.7001 35.491 60.505 35.1252C60.4 34.9252 60.282 34.7382 60.167 34.5442C60.052 34.3502 59.939 34.1671 59.809 33.9731C59.679 33.7791 59.549 33.5973 59.402 33.4043C59.255 33.2113 59.1019 33.0243 58.9399 32.8423C58.8099 32.6873 58.683 32.5261 58.54 32.3791C58.2459 32.0695 57.9358 31.7756 57.611 31.4983C57.495 31.3983 57.372 31.3121 57.254 31.2131C56.982 30.9961 56.702 30.7912 56.411 30.5932C54.5822 29.358 52.4549 28.637 50.252 28.5053L44.011 37.0422L43.98 37.0862C43.97 37.0992 43.957 37.1083 43.947 37.1213C43.8909 37.1935 43.8283 37.2604 43.76 37.3213C43.74 37.3383 43.719 37.3543 43.697 37.3713C43.6256 37.4276 43.5493 37.4774 43.469 37.5202L43.426 37.5432C43.2587 37.6291 43.0758 37.6806 42.8882 37.6945C42.7006 37.7085 42.5122 37.6845 42.334 37.6242C42.322 37.6242 42.3121 37.6103 42.3001 37.6103C42.1701 37.5654 42.0469 37.5028 41.934 37.4243C41.923 37.4192 41.9124 37.4134 41.902 37.4072C41.882 37.3932 41.867 37.3753 41.849 37.3593C41.7955 37.3176 41.7451 37.272 41.698 37.2231C41.668 37.1921 41.643 37.1573 41.616 37.1233C41.605 37.1093 41.59 37.0992 41.578 37.0832L41.512 36.9912L35.937 29.3633L35.307 28.5031C33.1332 28.6338 31.0328 29.3384 29.22 30.5451C28.872 30.7741 28.545 31.0142 28.228 31.2702C28.137 31.3452 28.042 31.4132 27.954 31.4892C27.6207 31.7719 27.3054 32.0696 27.0081 32.3823C26.8621 32.5363 26.7411 32.6912 26.5921 32.8652C26.4431 33.0392 26.292 33.2113 26.158 33.3913C26.009 33.5913 25.866 33.7912 25.728 33.9912C25.617 34.1582 25.507 34.3282 25.408 34.5002C25.282 34.7102 25.153 34.9172 25.0389 35.1352C24.8549 35.4872 24.683 35.8473 24.533 36.2163C24.463 36.3913 24.407 36.5712 24.344 36.7502C24.244 37.0202 24.156 37.2911 24.078 37.5671C24.029 37.7431 23.988 37.9223 23.947 38.1003C23.8804 38.4036 23.822 38.7099 23.772 39.0193C23.749 39.1723 23.722 39.3252 23.704 39.4812C23.6473 39.9528 23.6176 40.4273 23.615 40.9023V59.8261C23.6185 60.3538 23.726 60.8756 23.9313 61.3618C24.1366 61.8479 24.4356 62.2889 24.8113 62.6594C25.187 63.0299 25.6321 63.323 26.1211 63.5215C26.6101 63.7199 27.1333 63.82 27.661 63.8161C28.961 63.8061 29.908 63.8011 30.613 63.8061C30.547 61.4161 30.587 56.5293 30.686 46.1653C30.7007 45.7754 30.8636 45.4057 31.1414 45.1318C31.4192 44.8579 31.791 44.7003 32.181 44.6911C32.5744 44.693 32.9509 44.8507 33.2283 45.1296C33.5057 45.4085 33.6613 45.7858 33.661 46.1792V86.1902C33.661 87.2017 34.0628 88.1719 34.7781 88.8872C35.4933 89.6024 36.4634 90.0041 37.475 90.0041C38.4865 90.0041 39.4566 89.6024 40.1719 88.8872C40.8871 88.1719 41.2889 87.2017 41.2889 86.1902V61.6291C41.2838 61.4305 41.3186 61.233 41.391 61.0481C41.4634 60.8631 41.5722 60.6945 41.7108 60.5522C41.8495 60.4099 42.0151 60.2969 42.1981 60.2197C42.3812 60.1425 42.5778 60.1028 42.7765 60.1028C42.9752 60.1028 43.1718 60.1425 43.3549 60.2197C43.5379 60.2969 43.7037 60.4099 43.8423 60.5522C43.9809 60.6945 44.0896 60.8631 44.162 61.0481C44.2344 61.233 44.2692 61.4305 44.264 61.6291L44.267 61.6362ZM65.533 26.5693C63.4362 26.5693 61.3865 25.9472 59.6432 24.7822C57.8999 23.6171 56.5413 21.9614 55.7393 20.0241C54.9372 18.0868 54.7276 15.955 55.1372 13.8987C55.5468 11.8423 56.557 9.95356 58.0402 8.47141C59.5233 6.98925 61.4127 5.9802 63.4694 5.57199C65.526 5.16378 67.6575 5.37483 69.5942 6.17819C71.531 6.98155 73.1861 8.34109 74.35 10.0852C75.5139 11.8293 76.1344 13.8795 76.1331 15.9763C76.1328 17.3679 75.8583 18.7457 75.3254 20.0312C74.7926 21.3168 74.0117 22.4848 73.0274 23.4685C72.043 24.4522 70.8745 25.2323 69.5886 25.7644C68.3027 26.2964 66.9246 26.57 65.533 26.5693ZM57.917 15.9763C57.9196 17.9958 58.7231 19.9317 60.1513 21.3596C61.5794 22.7875 63.5155 23.5908 65.535 23.5932C67.0419 23.5928 68.5149 23.1456 69.7676 22.3081C71.0203 21.4706 71.9965 20.2805 72.5728 18.8882C73.1491 17.4958 73.2996 15.9637 73.0053 14.4858C72.7109 13.0079 71.9849 11.6507 70.9191 10.5854C69.8533 9.52016 68.4955 8.79478 67.0175 8.50119C65.5394 8.2076 64.0075 8.35898 62.6155 8.936C61.2234 9.51303 60.0338 10.4897 59.1969 11.7429C58.3601 12.996 57.9136 14.4694 57.9139 15.9763H57.917ZM19.3781 26.5693C17.2813 26.5693 15.2316 25.9472 13.4883 24.7822C11.745 23.6171 10.3863 21.9614 9.58424 20.0241C8.78215 18.0868 8.57262 15.955 8.98219 13.8987C9.39176 11.8423 10.402 9.95356 11.8851 8.47141C13.3683 6.98925 15.2577 5.9802 17.3143 5.57199C19.371 5.16378 21.5026 5.37483 23.4393 6.17819C25.3761 6.98155 27.0311 8.34109 28.195 10.0852C29.3589 11.8293 29.9794 13.8795 29.978 15.9763C29.9778 17.3679 29.7033 18.7457 29.1704 20.0312C28.6375 21.3168 27.8567 22.4848 26.8723 23.4685C25.888 24.4522 24.7195 25.2323 23.4336 25.7644C22.1477 26.2964 20.7697 26.57 19.3781 26.5693ZM11.762 15.9763C11.7646 17.996 12.5683 19.9321 13.9966 21.3601C15.4249 22.788 17.3613 23.5911 19.381 23.5932C20.8879 23.5928 22.3608 23.1456 23.6135 22.3081C24.8663 21.4706 25.8425 20.2805 26.4188 18.8882C26.9951 17.4958 27.1456 15.9637 26.8512 14.4858C26.5568 13.0079 25.8308 11.6507 24.765 10.5854C23.6992 9.52016 22.3414 8.79478 20.8634 8.50119C19.3854 8.2076 17.8536 8.35898 16.4616 8.936C15.0695 9.51303 13.8798 10.4897 13.043 11.7429C12.2061 12.996 11.7596 14.4694 11.76 15.9763H11.762ZM30.6851 12.1203C30.6855 9.72865 31.395 7.39073 32.724 5.40231C34.053 3.41389 35.9419 1.86417 38.1516 0.949188C40.3614 0.0342045 42.7928 -0.204904 45.1384 0.261932C47.4841 0.728769 49.6387 1.88067 51.3297 3.57199C53.0208 5.26331 54.1724 7.41788 54.6388 9.76364C55.1053 12.1094 54.8657 14.5409 53.9503 16.7505C53.035 18.96 51.485 20.8485 49.4963 22.1772C47.5077 23.5059 45.1696 24.2153 42.778 24.2153C39.5708 24.2145 36.4952 22.9398 34.2278 20.6716C31.9603 18.4034 30.6868 15.3275 30.687 12.1203H30.6851ZM33.66 12.1203C33.6604 13.9236 34.1955 15.6861 35.1976 17.1853C36.1998 18.6845 37.6239 19.8529 39.29 20.5427C40.9562 21.2325 42.7895 21.4128 44.5581 21.0608C46.3267 20.7087 47.9511 19.8402 49.2261 18.5649C50.5011 17.2897 51.3693 15.6649 51.721 13.8962C52.0726 12.1275 51.892 10.2944 51.2018 8.62839C50.5116 6.96241 49.3429 5.53864 47.8435 4.53683C46.3441 3.53502 44.5812 3.00021 42.778 3.00021C40.3604 3.00286 38.0426 3.96466 36.3335 5.67453C34.6244 7.3844 33.6636 9.70274 33.662 12.1203H33.66Z" fill="#54AF3A"/>
</svg>
