<svg width="89" height="95" viewBox="0 0 89 95" fill="none" xmlns="http://www.w3.org/2000/svg">
<path d="M4.52197 94.3139C3.45703 94.3058 2.43788 93.8798 1.68408 93.1275C0.930284 92.3752 0.502201 91.3568 0.492004 90.2919V4.74295C0.502201 3.67803 0.930284 2.65968 1.68408 1.90738C2.43788 1.15508 3.45703 0.728937 4.52197 0.720856H51.784C51.9528 0.718246 52.1205 0.749083 52.2773 0.811554C52.4342 0.874026 52.5772 0.966912 52.698 1.08487L66.856 13.4029C66.9187 13.4498 66.9766 13.5028 67.029 13.5609C67.1949 13.7146 67.3134 13.9125 67.3707 14.1313C67.4279 14.35 67.4214 14.5807 67.352 14.7959V90.2909C67.3418 91.3558 66.9137 92.3742 66.1599 93.1265C65.4061 93.8788 64.387 94.3048 63.322 94.3129L4.52197 94.3139ZM3.05603 4.74295V90.2919C3.05333 90.485 3.08942 90.6767 3.16217 90.8556C3.23493 91.0345 3.34284 91.1971 3.47955 91.3335C3.61627 91.47 3.779 91.5775 3.95807 91.6499C4.13713 91.7223 4.32885 91.758 4.52197 91.7549H63.322C63.702 91.7297 64.06 91.5675 64.3295 91.2985C64.5991 91.0295 64.762 90.6718 64.788 90.2919V15.711H51.783C51.6137 15.7153 51.4452 15.6853 51.2878 15.6226C51.1305 15.5599 50.9875 15.4659 50.8675 15.3463C50.7475 15.2267 50.6531 15.084 50.5899 14.9268C50.5267 14.7696 50.4962 14.6013 50.5 14.4319V3.28091H4.52197C4.32885 3.27782 4.13713 3.31351 3.95807 3.3859C3.779 3.45828 3.61627 3.56587 3.47955 3.7023C3.34284 3.83873 3.23493 4.00129 3.16217 4.18021C3.08942 4.35912 3.05333 4.54983 3.05603 4.74295ZM53.066 13.1509H62.592L53.066 4.74295V13.1509Z" fill="#54AF3A"/>
<path d="M10.2 63.2382C9.86067 63.2382 9.53518 63.1034 9.29523 62.8634C9.05527 62.6235 8.92047 62.298 8.92047 61.9586C8.92047 61.6193 9.05527 61.2938 9.29523 61.0538C9.53518 60.8139 9.86067 60.6791 10.2 60.6791H49.22C49.5593 60.6791 49.8848 60.8139 50.1248 61.0538C50.3647 61.2938 50.4995 61.6193 50.4995 61.9586C50.4995 62.298 50.3647 62.6235 50.1248 62.8634C49.8848 63.1034 49.5593 63.2382 49.22 63.2382H10.2ZM10.2 58.1201C9.86067 58.1201 9.53518 57.9853 9.29523 57.7454C9.05527 57.5054 8.92047 57.1799 8.92047 56.8406C8.92047 56.5012 9.05527 56.1759 9.29523 55.9359C9.53518 55.696 9.86067 55.5612 10.2 55.5612H57.646C57.9853 55.5612 58.3108 55.696 58.5507 55.9359C58.7907 56.1759 58.9255 56.5012 58.9255 56.8406C58.9255 57.1799 58.7907 57.5054 58.5507 57.7454C58.3108 57.9853 57.9853 58.1201 57.646 58.1201H10.2ZM10.2 50.4431C9.86054 50.4431 9.53497 50.3083 9.29492 50.0682C9.05488 49.8282 8.91998 49.5026 8.91998 49.1631C8.91998 48.8236 9.05488 48.4981 9.29492 48.2581C9.53497 48.018 9.86054 47.8832 10.2 47.8832H49.22C49.5594 47.8832 49.8851 48.018 50.1251 48.2581C50.3652 48.4981 50.5 48.8236 50.5 49.1631C50.5 49.5026 50.3652 49.8282 50.1251 50.0682C49.8851 50.3083 49.5594 50.4431 49.22 50.4431H10.2ZM10.2 45.5071C9.86054 45.5071 9.53497 45.3722 9.29492 45.1322C9.05488 44.8922 8.91998 44.5666 8.91998 44.2272C8.91998 43.8877 9.05488 43.5621 9.29492 43.322C9.53497 43.082 9.86054 42.9471 10.2 42.9471H57.646C57.9855 42.9471 58.311 43.082 58.5511 43.322C58.7911 43.5621 58.926 43.8877 58.926 44.2272C58.926 44.5666 58.7911 44.8922 58.5511 45.1322C58.311 45.3722 57.9855 45.5071 57.646 45.5071H10.2ZM10.2 37.8291C9.86067 37.8291 9.53518 37.6943 9.29523 37.4543C9.05527 37.2144 8.92047 36.889 8.92047 36.5497C8.92047 36.2103 9.05527 35.8849 9.29523 35.6449C9.53518 35.4049 9.86067 35.2701 10.2 35.2701H49.22C49.5593 35.2701 49.8848 35.4049 50.1248 35.6449C50.3647 35.8849 50.4995 36.2103 50.4995 36.5497C50.4995 36.889 50.3647 37.2144 50.1248 37.4543C49.8848 37.6943 49.5593 37.8291 49.22 37.8291H10.2ZM10.2 32.8931C9.86067 32.8931 9.53518 32.7583 9.29523 32.5183C9.05527 32.2784 8.92047 31.953 8.92047 31.6136C8.92047 31.2743 9.05527 30.9488 9.29523 30.7089C9.53518 30.4689 9.86067 30.3341 10.2 30.3341H57.646C57.9853 30.3341 58.3108 30.4689 58.5507 30.7089C58.7907 30.9488 58.9255 31.2743 58.9255 31.6136C58.9255 31.953 58.7907 32.2784 58.5507 32.5183C58.3108 32.7583 57.9853 32.8931 57.646 32.8931H10.2ZM10.2 25.2161C9.86054 25.2161 9.53497 25.0812 9.29492 24.8412C9.05488 24.6011 8.91998 24.2756 8.91998 23.9362C8.91998 23.5967 9.05488 23.2711 9.29492 23.031C9.53497 22.791 9.86054 22.6561 10.2 22.6561H49.22C49.5594 22.6561 49.8851 22.791 50.1251 23.031C50.3652 23.2711 50.5 23.5967 50.5 23.9362C50.5 24.2756 50.3652 24.6011 50.1251 24.8412C49.8851 25.0812 49.5594 25.2161 49.22 25.2161H10.2ZM10.2 20.0981C9.86054 20.0981 9.53497 19.9633 9.29492 19.7233C9.05488 19.4832 8.91998 19.1576 8.91998 18.8181C8.91998 18.4786 9.05488 18.1531 9.29492 17.9131C9.53497 17.673 9.86054 17.5381 10.2 17.5381H57.646C57.9855 17.5381 58.311 17.673 58.5511 17.9131C58.7911 18.1531 58.926 18.4786 58.926 18.8181C58.926 19.1576 58.7911 19.4832 58.5511 19.7233C58.311 19.9633 57.9855 20.0981 57.646 20.0981H10.2Z" fill="#54AF3A"/>
<path d="M19.359 90.1097C16.8654 90.1042 14.4295 89.3596 12.3589 87.9702C10.2883 86.5808 8.67607 84.6088 7.7258 82.3034C6.77553 79.9981 6.52991 77.4627 7.01999 75.0178C7.51007 72.5729 8.71385 70.3282 10.4792 68.5671C12.2446 66.8061 14.4923 65.6078 16.9384 65.1238C19.3845 64.6397 21.9192 64.8915 24.2223 65.8474C26.5253 66.8033 28.4933 68.4205 29.8777 70.4945C31.262 72.5685 32.0006 75.0062 32 77.4997C31.9889 80.8461 30.6525 84.0517 28.2834 86.415C25.9142 88.7783 22.7053 90.1068 19.359 90.1097ZM19.359 67.4427C17.3714 67.4469 15.4296 68.0401 13.779 69.1473C12.1284 70.2546 10.843 71.8263 10.0853 73.6638C9.32755 75.5013 9.1314 77.5222 9.5217 79.4711C9.912 81.4199 10.8713 83.2094 12.2782 84.6134C13.6851 86.0174 15.4765 86.9729 17.4262 87.3591C19.376 87.7453 21.3964 87.545 23.2323 86.7834C25.0682 86.0219 26.6372 84.7332 27.741 83.0803C28.8448 81.4274 29.434 79.4843 29.434 77.4967C29.4079 74.8347 28.3373 72.2895 26.4529 70.409C24.5685 68.5286 22.021 67.4633 19.359 67.4427Z" fill="#54AF3A"/>
<path d="M18.077 85.3569V84.4388C17.218 84.1792 16.4671 83.6465 15.9382 82.9216C15.4092 82.1967 15.1311 81.3191 15.146 80.4219C15.1553 80.0879 15.2945 79.7707 15.534 79.5378C15.7735 79.3049 16.0944 79.1747 16.4285 79.1747C16.7626 79.1747 17.0834 79.3049 17.3229 79.5378C17.5624 79.7707 17.7017 80.0879 17.711 80.4219C17.7104 80.7479 17.8066 81.0669 17.9873 81.3383C18.168 81.6097 18.4252 81.8213 18.7262 81.9465C19.0273 82.0717 19.3588 82.1049 19.6786 82.0416C19.9985 81.9784 20.2925 81.8217 20.5232 81.5913C20.754 81.361 20.9112 81.0672 20.9751 80.7474C21.0389 80.4277 21.0065 80.0962 20.8818 79.7949C20.7572 79.4936 20.546 79.236 20.2749 79.0548C20.0038 78.8736 19.6851 78.7769 19.359 78.7769C18.7943 78.7655 18.2373 78.6431 17.72 78.4165C17.2026 78.1899 16.7349 77.8636 16.3437 77.4562C15.9524 77.0488 15.6452 76.5682 15.4397 76.0421C15.2342 75.516 15.1344 74.9546 15.146 74.3899C15.131 73.4925 15.4091 72.6147 15.938 71.8896C16.467 71.1646 17.2179 70.6316 18.077 70.3718V69.4539C18.077 69.1138 18.2121 68.7878 18.4525 68.5474C18.6929 68.3069 19.019 68.1719 19.359 68.1719C19.699 68.1719 20.0251 68.3069 20.2655 68.5474C20.5059 68.7878 20.641 69.1138 20.641 69.4539V70.3718C21.5 70.6316 22.251 71.1646 22.7799 71.8896C23.3088 72.6147 23.5869 73.4925 23.572 74.3899C23.5627 74.7238 23.4234 75.0409 23.1839 75.2738C22.9444 75.5067 22.6235 75.6371 22.2895 75.6371C21.9554 75.6371 21.6345 75.5067 21.395 75.2738C21.1555 75.0409 21.0163 74.7238 21.007 74.3899C21.007 73.9523 20.8332 73.5326 20.5237 73.2231C20.2143 72.9137 19.7946 72.7399 19.357 72.7399C18.9194 72.7399 18.4997 72.9137 18.1902 73.2231C17.8808 73.5326 17.707 73.9523 17.707 74.3899C17.6982 74.8469 17.8637 75.29 18.1697 75.6295C18.4758 75.969 18.8995 76.1794 19.355 76.2179C20.3597 76.217 21.3317 76.5754 22.0953 77.2284C22.8588 77.8814 23.3637 78.786 23.5186 79.7787C23.6735 80.7714 23.4683 81.7868 22.94 82.6415C22.4118 83.4961 21.5952 84.1336 20.638 84.4388V85.3569C20.638 85.6969 20.5029 86.023 20.2625 86.2634C20.0221 86.5038 19.696 86.6389 19.356 86.6389C19.016 86.6389 18.6899 86.5038 18.4494 86.2634C18.209 86.023 18.074 85.6969 18.074 85.3569H18.077Z" fill="#54AF3A"/>
<path d="M79.628 93.7658L72.667 82.0658C72.5217 81.7893 72.4579 81.4772 72.483 81.1658V5.29372C72.5142 4.05777 73.0323 2.88421 73.9245 2.02833C74.8167 1.17246 76.0109 0.7036 77.247 0.723769H84.208C84.8105 0.717095 85.4082 0.8307 85.9663 1.05788C86.5243 1.28505 87.0314 1.6212 87.4579 2.04677C87.8844 2.47233 88.2217 2.97874 88.4501 3.53627C88.6785 4.0938 88.7934 4.69124 88.788 5.29372V81.3378C88.7912 81.5214 88.7543 81.7036 88.6801 81.8716C88.6058 82.0396 88.4959 82.1895 88.358 82.3108L81.826 93.5847C81.7416 93.806 81.5903 93.9955 81.3932 94.1267C81.196 94.2579 80.9628 94.3244 80.726 94.3168C80.509 94.3438 80.2889 94.3059 80.0935 94.2078C79.898 94.1097 79.7361 93.9559 79.628 93.7658ZM80.7281 90.4757L85.25 82.6157H76.059L80.7281 90.4757ZM75.049 80.0568H86.223V10.0458H75.048L75.049 80.0568ZM86.223 7.48573V5.29274C86.2178 4.76032 86.0037 4.25126 85.6269 3.87514C85.25 3.49901 84.7405 3.28592 84.208 3.28175H77.247C76.6949 3.27971 76.1622 3.48538 75.7546 3.85792C75.347 4.23046 75.0945 4.74262 75.047 5.29274V7.48573H86.223ZM79.445 64.7018V25.4017C79.4544 25.0678 79.5935 24.7507 79.833 24.5178C80.0725 24.2849 80.3934 24.1546 80.7275 24.1546C81.0616 24.1546 81.3825 24.2849 81.622 24.5178C81.8615 24.7507 82.0007 25.0678 82.01 25.4017V64.7018C82.0007 65.0357 81.8615 65.3528 81.622 65.5857C81.3825 65.8186 81.0616 65.949 80.7275 65.949C80.3934 65.949 80.0725 65.8186 79.833 65.5857C79.5935 65.3528 79.4544 65.0357 79.445 64.7018Z" fill="#54AF3A"/>
</svg>
