<svg width="95" height="95" viewBox="0 0 95 95" fill="none" xmlns="http://www.w3.org/2000/svg">
<path d="M6.146 76.207C5.81419 75.6328 5.30221 75.1841 4.68945 74.9305C4.0767 74.6769 3.39737 74.6326 2.75684 74.8043C2.1163 74.9761 1.55039 75.3543 1.14673 75.8805C0.743069 76.4067 0.524292 77.0513 0.524292 77.7145C0.524292 78.3776 0.743069 79.0223 1.14673 79.5485C1.55039 80.0746 2.1163 80.4529 2.75684 80.6246C3.39737 80.7964 4.0767 80.7521 4.68945 80.4985C5.30221 80.2449 5.81419 79.7962 6.146 79.222H11.099V82.2371C11.0991 82.4352 11.1383 82.6314 11.2142 82.8145C11.2902 82.9975 11.4014 83.1637 11.5416 83.3037C11.6818 83.4437 11.8484 83.5548 12.0315 83.6305C12.2146 83.7062 12.4108 83.7451 12.609 83.745H15.629V88.6899C15.0527 89.0224 14.6022 89.5358 14.3474 90.1504C14.0926 90.765 14.0478 91.4466 14.2198 92.0894C14.3919 92.7321 14.7713 93.3 15.2991 93.7051C15.8269 94.1102 16.4737 94.3297 17.139 94.3297C17.8044 94.3297 18.4511 94.1102 18.9789 93.7051C19.5067 93.3 19.8861 92.7321 20.0582 92.0894C20.2303 91.4466 20.1855 90.765 19.9307 90.1504C19.6759 89.5358 19.2254 89.0224 18.649 88.6899V83.745H23.179V94.3H26.2V83.7469H30.731V88.692C30.1546 89.0245 29.7041 89.5378 29.4493 90.1525C29.1945 90.7671 29.1497 91.4486 29.3218 92.0913C29.4939 92.734 29.8733 93.3019 30.4011 93.707C30.9289 94.1121 31.5756 94.3317 32.241 94.3317C32.9063 94.3317 33.5531 94.1121 34.0809 93.707C34.6087 93.3019 34.9881 92.734 35.1602 92.0913C35.3322 91.4486 35.2874 90.7671 35.0326 90.1525C34.7778 89.5378 34.3273 89.0245 33.751 88.692V83.7469H38.282V94.3H41.302V83.7469H45.833V88.692C45.2567 89.0245 44.8062 89.5378 44.5514 90.1525C44.2966 90.7671 44.2517 91.4486 44.4238 92.0913C44.5959 92.734 44.9752 93.3019 45.5031 93.707C46.0309 94.1121 46.6777 94.3317 47.343 94.3317C48.0084 94.3317 48.655 94.1121 49.1829 93.707C49.7107 93.3019 50.0901 92.734 50.2622 92.0913C50.4343 91.4486 50.3894 90.7671 50.1346 90.1525C49.8799 89.5378 49.4294 89.0245 48.853 88.692V83.7469H53.3831V94.3H56.403V83.7469H60.934V88.692C60.3576 89.0245 59.9071 89.5378 59.6523 90.1525C59.3976 90.7671 59.3527 91.4486 59.5248 92.0913C59.6969 92.734 60.0763 93.3019 60.6041 93.707C61.1319 94.1121 61.7786 94.3317 62.444 94.3317C63.1093 94.3317 63.7561 94.1121 64.2839 93.707C64.8118 93.3019 65.1911 92.734 65.3632 92.0913C65.5352 91.4486 65.4904 90.7671 65.2356 90.1525C64.9808 89.5378 64.5303 89.0245 63.954 88.692V83.7469H68.485V94.3H71.505V83.7469H76.036V88.692C75.4597 89.0245 75.0092 89.5378 74.7544 90.1525C74.4996 90.7671 74.4548 91.4486 74.6268 92.0913C74.7989 92.734 75.1782 93.3019 75.7061 93.707C76.2339 94.1121 76.8807 94.3317 77.546 94.3317C78.2114 94.3317 78.858 94.1121 79.3859 93.707C79.9137 93.3019 80.2931 92.734 80.4652 92.0913C80.6373 91.4486 80.5924 90.7671 80.3376 90.1525C80.0829 89.5378 79.6324 89.0245 79.056 88.692V83.7469H82.076C82.2742 83.7471 82.4704 83.7083 82.6536 83.6326C82.8367 83.5569 83.0031 83.4458 83.1433 83.3058C83.2835 83.1658 83.3947 82.9994 83.4707 82.8164C83.5467 82.6334 83.5859 82.4372 83.5861 82.239V79.224H88.5389C88.8707 79.7982 89.3827 80.2469 89.9955 80.5005C90.6082 80.7541 91.2876 80.7985 91.9281 80.6267C92.5686 80.4549 93.1347 80.0766 93.5383 79.5504C93.942 79.0243 94.1608 78.3797 94.1608 77.7166C94.1608 77.0534 93.942 76.4087 93.5383 75.8826C93.1347 75.3564 92.5686 74.978 91.9281 74.8063C91.2876 74.6345 90.6082 74.6789 89.9955 74.9325C89.3827 75.1861 88.8707 75.6348 88.5389 76.209H83.5861V71.686H94.157V68.671H83.5861V64.1479H88.5389C88.8707 64.7221 89.3827 65.1708 89.9955 65.4244C90.6082 65.678 91.2876 65.7224 91.9281 65.5507C92.5686 65.3789 93.1347 65.0007 93.5383 64.4745C93.942 63.9483 94.1608 63.3037 94.1608 62.6405C94.1608 61.9773 93.942 61.3327 93.5383 60.8065C93.1347 60.2804 92.5686 59.9021 91.9281 59.7303C91.2876 59.5586 90.6082 59.603 89.9955 59.8566C89.3827 60.1102 88.8707 60.5589 88.5389 61.1331H83.5861V56.611H94.157V53.5959H83.5861V49.073H88.5389C88.8708 49.6475 89.3829 50.0964 89.9958 50.3502C90.6088 50.604 91.2885 50.6485 91.9293 50.4767C92.5701 50.3049 93.1363 49.9265 93.5402 49.4001C93.944 48.8738 94.163 48.229 94.163 47.5656C94.163 46.9021 93.944 46.2572 93.5402 45.7308C93.1363 45.2045 92.5701 44.8261 91.9293 44.6543C91.2885 44.4825 90.6088 44.527 89.9958 44.7808C89.3829 45.0346 88.8708 45.4835 88.5389 46.058H83.5861V41.535H94.157V38.52H83.5861V34H88.5389C88.8708 34.5745 89.3829 35.0234 89.9958 35.2772C90.6088 35.531 91.2885 35.5755 91.9293 35.4037C92.5701 35.2319 93.1363 34.8535 93.5402 34.3271C93.944 33.8008 94.163 33.156 94.163 32.4926C94.163 31.8291 93.944 31.1842 93.5402 30.6578C93.1363 30.1315 92.5701 29.7531 91.9293 29.5813C91.2885 29.4095 90.6088 29.454 89.9958 29.7078C89.3829 29.9616 88.8708 30.4105 88.5389 30.985H83.5861V26.462H94.157V23.447H83.5861V18.924H88.5389C88.8707 19.4981 89.3827 19.9468 89.9955 20.2004C90.6082 20.454 91.2876 20.4984 91.9281 20.3267C92.5686 20.1549 93.1347 19.7767 93.5383 19.2505C93.942 18.7243 94.1608 18.0797 94.1608 17.4165C94.1608 16.7533 93.942 16.1087 93.5383 15.5825C93.1347 15.0564 92.5686 14.6781 91.9281 14.5063C91.2876 14.3346 90.6082 14.379 89.9955 14.6326C89.3827 14.8862 88.8707 15.3349 88.5389 15.9091H83.5861V12.894C83.5859 12.6959 83.5467 12.4997 83.4707 12.3167C83.3947 12.1336 83.2835 11.9673 83.1433 11.8273C83.0031 11.6872 82.8367 11.5762 82.6536 11.5005C82.4704 11.4248 82.2742 11.3859 82.076 11.386H79.056V6.44104C79.6324 6.10859 80.0829 5.59522 80.3376 4.98059C80.5924 4.36597 80.6373 3.68445 80.4652 3.04175C80.2931 2.39904 79.9137 1.83099 79.3859 1.4259C78.858 1.02082 78.2114 0.80127 77.546 0.80127C76.8807 0.80127 76.2339 1.02082 75.7061 1.4259C75.1782 1.83099 74.7989 2.39904 74.6268 3.04175C74.4548 3.68445 74.4996 4.36597 74.7544 4.98059C75.0092 5.59522 75.4597 6.10859 76.036 6.44104V11.386H71.505V0.833008H68.485V11.386H63.954V6.44104C64.5303 6.10859 64.9808 5.59522 65.2356 4.98059C65.4904 4.36597 65.5352 3.68445 65.3632 3.04175C65.1911 2.39904 64.8118 1.83099 64.2839 1.4259C63.7561 1.02082 63.1093 0.80127 62.444 0.80127C61.7786 0.80127 61.1319 1.02082 60.6041 1.4259C60.0763 1.83099 59.6969 2.39904 59.5248 3.04175C59.3527 3.68445 59.3976 4.36597 59.6523 4.98059C59.9071 5.59522 60.3576 6.10859 60.934 6.44104V11.386H56.4V0.833008H53.38V11.386H48.85V6.44104C49.4263 6.10859 49.8768 5.59522 50.1316 4.98059C50.3864 4.36597 50.4312 3.68445 50.2592 3.04175C50.0871 2.39904 49.7077 1.83099 49.1799 1.4259C48.6521 1.02082 48.0053 0.80127 47.34 0.80127C46.6746 0.80127 46.0279 1.02082 45.5001 1.4259C44.9723 1.83099 44.5929 2.39904 44.4208 3.04175C44.2487 3.68445 44.2935 4.36597 44.5483 4.98059C44.8031 5.59522 45.2536 6.10859 45.83 6.44104V11.386H41.3V0.833008H38.28V11.386H33.749V6.44104C34.3254 6.10859 34.7758 5.59522 35.0306 4.98059C35.2854 4.36597 35.3303 3.68445 35.1582 3.04175C34.9861 2.39904 34.6067 1.83099 34.0789 1.4259C33.551 1.02082 32.9044 0.80127 32.239 0.80127C31.5737 0.80127 30.9269 1.02082 30.399 1.4259C29.8712 1.83099 29.4919 2.39904 29.3198 3.04175C29.1477 3.68445 29.1926 4.36597 29.4474 4.98059C29.7022 5.59522 30.1527 6.10859 30.729 6.44104V11.386H26.2V0.833008H23.179V11.386H18.649V6.44104C19.2254 6.10859 19.6759 5.59522 19.9307 4.98059C20.1855 4.36597 20.2303 3.68445 20.0582 3.04175C19.8861 2.39904 19.5067 1.83099 18.9789 1.4259C18.4511 1.02082 17.8044 0.80127 17.139 0.80127C16.4737 0.80127 15.8269 1.02082 15.2991 1.4259C14.7713 1.83099 14.3919 2.39904 14.2198 3.04175C14.0478 3.68445 14.0926 4.36597 14.3474 4.98059C14.6022 5.59522 15.0527 6.10859 15.629 6.44104V11.386H12.609C12.4108 11.3859 12.2146 11.4248 12.0315 11.5005C11.8484 11.5762 11.6818 11.6872 11.5416 11.8273C11.4014 11.9673 11.2902 12.1336 11.2142 12.3167C11.1383 12.4997 11.0991 12.6959 11.099 12.894V15.9091H6.146C5.81417 15.3346 5.30206 14.8855 4.68909 14.6317C4.07612 14.3779 3.39655 14.3335 2.75574 14.5052C2.11492 14.677 1.54862 15.0554 1.14478 15.5818C0.740927 16.1081 0.522095 16.7531 0.522095 17.4165C0.522095 18.0799 0.740927 18.7249 1.14478 19.2512C1.54862 19.7776 2.11492 20.156 2.75574 20.3278C3.39655 20.4995 4.07612 20.4551 4.68909 20.2013C5.30206 19.9475 5.81417 19.4984 6.146 18.924H11.099V23.447H0.527954V26.462H11.1V30.985H6.14697C5.81515 30.4105 5.30303 29.9616 4.69006 29.7078C4.07709 29.454 3.39753 29.4095 2.75671 29.5813C2.1159 29.7531 1.54972 30.1315 1.14587 30.6578C0.742026 31.1842 0.523071 31.8291 0.523071 32.4926C0.523071 33.156 0.742026 33.8008 1.14587 34.3271C1.54972 34.8535 2.1159 35.2319 2.75671 35.4037C3.39753 35.5755 4.07709 35.531 4.69006 35.2772C5.30303 35.0234 5.81515 34.5745 6.14697 34H11.1V38.5229H0.529053V41.538H11.1V46.061H6.14697C5.81515 45.4865 5.30303 45.0376 4.69006 44.7838C4.07709 44.53 3.39753 44.4855 2.75671 44.6572C2.1159 44.829 1.54972 45.2074 1.14587 45.7338C0.742026 46.2601 0.523071 46.905 0.523071 47.5685C0.523071 48.2319 0.742026 48.8768 1.14587 49.4032C1.54972 49.9296 2.1159 50.308 2.75671 50.4797C3.39753 50.6515 4.07709 50.6071 4.69006 50.3533C5.30303 50.0995 5.81515 49.6505 6.14697 49.076H11.1V53.599H0.529053V56.614H11.1V61.136H6.14697C5.81515 60.5615 5.30303 60.1126 4.69006 59.8588C4.07709 59.605 3.39753 59.5605 2.75671 59.7323C2.1159 59.9041 1.54972 60.2825 1.14587 60.8088C0.742026 61.3352 0.523071 61.9801 0.523071 62.6436C0.523071 63.307 0.742026 63.9518 1.14587 64.4781C1.54972 65.0045 2.1159 65.3829 2.75671 65.5547C3.39753 65.7265 4.07709 65.682 4.69006 65.4282C5.30303 65.1744 5.81515 64.7255 6.14697 64.151H11.1V68.674H0.529053V71.689H11.1V76.212L6.146 76.207ZM14.12 14.397H80.567V80.73H14.12V14.397Z" fill="#54AF3A"/>
<path d="M73.5 32.488C72.443 30.664 70.253 29.729 67.006 29.729C63.3947 29.8758 59.8283 30.5843 56.4351 31.829C54.6081 22.648 51.316 17.417 47.344 17.417C43.372 17.417 40.08 22.648 38.283 31.844C37.256 31.497 36.274 31.196 35.263 30.944C35.2329 29.8646 34.8185 28.8315 34.0943 28.0306C33.3701 27.2298 32.3838 26.7138 31.3129 26.5756C30.242 26.4374 29.1569 26.6861 28.2531 27.2769C27.3493 27.8676 26.6862 28.7616 26.3831 29.798C25.3612 29.7821 24.3513 30.0205 23.4445 30.4918C22.5376 30.9631 21.7622 31.6526 21.188 32.498C20.7719 33.2331 20.5583 34.0654 20.569 34.91C20.569 39.21 25.447 44.317 29.132 47.574C25.447 50.83 20.569 55.9411 20.569 60.2371C20.5583 61.0817 20.7719 61.914 21.188 62.649C22.245 64.473 24.435 65.408 27.682 65.408C31.2934 65.2614 34.8599 64.5529 38.2531 63.308C40.0801 72.489 43.372 77.72 47.344 77.72C49.534 77.72 51.4821 76.213 53.1441 73.197H53.386C54.3376 73.2011 55.2661 72.9038 56.0385 72.3479C56.8108 71.792 57.3875 71.006 57.6858 70.1024C57.9842 69.1988 57.9889 68.224 57.6994 67.3175C57.4098 66.411 56.8409 65.6194 56.074 65.056C56.195 64.513 56.331 63.926 56.452 63.307C59.8455 64.5508 63.4117 65.2592 67.023 65.407C70.27 65.407 72.46 64.4719 73.517 62.6479C73.9332 61.9129 74.1468 61.0806 74.136 60.236C74.136 55.936 69.258 50.829 65.573 47.573L66.268 46.955C67.167 47.4493 68.2074 47.6235 69.2184 47.4489C70.2294 47.2742 71.1512 46.7613 71.8323 45.994C72.5134 45.2267 72.9136 44.2507 72.9672 43.2261C73.0207 42.2015 72.7244 41.1891 72.127 40.355C73.3016 38.7639 73.9985 36.8709 74.136 34.8979C74.1445 34.0555 73.9254 33.2264 73.502 32.498L73.5 32.488ZM70.887 33.995C71.0316 34.269 71.1045 34.5752 71.099 34.885C70.9315 36.2557 70.4112 37.5595 69.589 38.6689C68.7839 38.467 67.9388 38.4905 67.1461 38.7368C66.3535 38.9831 65.6439 39.4428 65.095 40.0654C64.5461 40.688 64.1791 41.4496 64.0341 42.2668C63.8891 43.0841 63.9717 43.9255 64.273 44.699L63.2011 45.649C61.4797 44.2424 59.6464 42.8703 57.7011 41.533C57.5501 39.227 57.3081 37.0109 56.9611 34.7939C60.1698 33.5869 63.5491 32.8951 66.974 32.744C69.044 32.744 70.418 33.182 70.886 34L70.887 33.995ZM54.064 59.217C52.9202 58.7746 51.801 58.2711 50.7111 57.709L52.629 56.6541L54.502 55.538C54.38 56.835 54.245 58.026 54.064 59.217ZM40.6081 59.217C40.4421 58.041 40.2911 56.85 40.1851 55.629L42.058 56.745L43.958 57.8C42.81 58.282 41.723 58.75 40.605 59.187L40.6081 59.217ZM40.6081 35.9399C41.7519 36.3823 42.8712 36.8858 43.9611 37.448L42.043 38.5031L40.1701 39.619C40.3061 38.307 40.4421 37.101 40.6231 35.91L40.6081 35.9399ZM36.772 49.749C35.76 49.025 34.7941 48.241 33.8571 47.563C34.7931 46.824 35.757 46.055 36.772 45.377V49.749ZM43.538 54.09C42.405 53.442 41.2271 52.718 39.8831 51.874C39.7921 50.574 39.792 49.074 39.792 47.563C39.792 46.052 39.792 44.548 39.913 43.251C41.257 42.392 42.435 41.668 43.568 41.035C44.701 40.402 46.135 39.528 47.343 39C48.551 39.6 49.7901 40.266 51.1181 41.035C52.4461 41.804 53.429 42.407 54.773 43.251C54.894 44.551 54.8941 46.051 54.8941 47.563C54.8941 49.075 54.894 50.578 54.773 51.874C53.429 52.733 52.2511 53.382 51.1181 54.09C49.9074 54.8536 48.6462 55.5339 47.343 56.126C46.135 55.526 44.896 54.86 43.568 54.09H43.538ZM54.109 36C54.275 37.176 54.426 38.367 54.532 39.588L52.6591 38.473L50.7591 37.418C51.8404 36.8692 52.9493 36.3763 54.0811 35.941L54.109 36ZM57.9151 45.377C58.9271 46.1 59.893 46.884 60.83 47.563C59.894 48.301 58.9301 49.07 57.9151 49.749V45.377ZM47.344 20.427C49.292 20.427 51.9951 24.708 53.5811 32.864C51.4558 33.6752 49.3739 34.5961 47.344 35.623C45.244 34.568 43.1441 33.648 41.1071 32.864C42.6921 24.694 45.395 20.428 47.343 20.428L47.344 20.427ZM30.7321 29.472C31.0811 29.4723 31.4193 29.5935 31.689 29.8151C31.9587 30.0367 32.1433 30.3449 32.2112 30.6873C32.2791 31.0297 32.2263 31.3851 32.0617 31.6929C31.897 32.0007 31.6307 32.2419 31.3081 32.3754C30.9856 32.5089 30.6268 32.5263 30.2927 32.4249C29.9587 32.3235 29.6701 32.1095 29.4762 31.8192C29.2823 31.5289 29.1952 31.1804 29.2294 30.833C29.2636 30.4856 29.4171 30.1608 29.664 29.9139C29.9472 29.6314 30.3309 29.4729 30.731 29.473L30.7321 29.472ZM23.589 34.899C23.5807 34.5839 23.6592 34.2725 23.8161 33.999C24.1781 33.351 25.16 32.944 26.595 32.808C26.9069 33.5199 27.3978 34.1389 28.02 34.6047C28.6423 35.0705 29.3746 35.3673 30.1455 35.4659C30.9165 35.5646 31.6998 35.4619 32.4193 35.1678C33.1388 34.8738 33.7699 34.3984 34.251 33.788C35.351 34.088 36.516 34.436 37.724 34.858C37.377 37.044 37.135 39.29 36.984 41.582C35.051 42.882 33.209 44.2349 31.484 45.6219C25.687 40.5999 23.588 36.815 23.588 34.9L23.589 34.899ZM23.8161 61.13C23.6592 60.8565 23.5806 60.5451 23.589 60.23C23.589 58.315 25.689 54.53 31.489 49.511C33.2104 50.8983 35.0437 52.245 36.989 53.551C37.14 55.858 37.382 58.074 37.729 60.29C34.5235 61.5143 31.1443 62.2231 27.7171 62.39C25.6421 62.383 24.268 61.946 23.815 61.131L23.8161 61.13ZM47.344 74.698C45.396 74.698 42.6931 70.417 41.1071 62.261C43.2324 61.4498 45.3141 60.5289 47.344 59.502C49.444 60.557 51.5441 61.477 53.5811 62.261C53.4451 62.954 53.309 63.573 53.173 64.161C52.2783 64.1957 51.4144 64.4972 50.6924 65.0267C49.9704 65.5562 49.4232 66.2895 49.1212 67.1324C48.8192 67.9754 48.7762 68.8894 48.9977 69.757C49.2192 70.6245 49.695 71.406 50.364 72.001C49.336 73.72 48.279 74.7 47.343 74.7L47.344 74.698ZM53.385 70.175C53.036 70.1748 52.6977 70.0535 52.428 69.8319C52.1583 69.6103 51.9737 69.3021 51.9058 68.9597C51.8378 68.6173 51.8908 68.2619 52.0554 67.9541C52.2201 67.6463 52.4864 67.4052 52.809 67.2717C53.1315 67.1382 53.4903 67.1206 53.8244 67.222C54.1584 67.3235 54.4469 67.5376 54.6408 67.8279C54.8347 68.1182 54.9219 68.4666 54.8877 68.814C54.8535 69.1614 54.6998 69.4862 54.453 69.733C54.1696 70.0169 53.7852 70.1765 53.3841 70.177L53.385 70.175ZM71.099 60.225C71.1074 60.5401 71.0288 60.8515 70.872 61.125C70.419 61.939 69.045 62.376 67.006 62.376C63.5685 62.2106 60.1788 61.5019 56.963 60.276C57.31 58.09 57.552 55.829 57.703 53.537C59.651 52.237 61.478 50.8839 63.203 49.4969C69.003 54.5169 71.103 58.2969 71.103 60.2159L71.099 60.225ZM68.486 44.546C68.1369 44.5456 67.7988 44.4241 67.5292 44.2023C67.2596 43.9805 67.0753 43.6721 67.0076 43.3296C66.9399 42.9871 66.9931 42.6318 67.158 42.3241C67.3229 42.0164 67.5893 41.7754 67.912 41.6422C68.2347 41.509 68.5936 41.4917 68.9275 41.5934C69.2615 41.6951 69.5499 41.9095 69.7435 42.2C69.9372 42.4904 70.0241 42.839 69.9895 43.1864C69.955 43.5338 69.801 43.8584 69.554 44.105C69.2704 44.3884 68.8859 44.5477 68.485 44.548L68.486 44.546Z" fill="#54AF3A"/>
<path d="M47.3431 43.041C46.2957 43.041 45.2806 43.4041 44.471 44.0686C43.6613 44.7331 43.1072 45.6578 42.9029 46.6851C42.6986 47.7124 42.8568 48.7787 43.3506 49.7024C43.8445 50.6261 44.6433 51.3499 45.611 51.7506C46.5787 52.1513 47.6555 52.2041 48.6578 51.8999C49.66 51.5957 50.5257 50.9533 51.1075 50.0823C51.6892 49.2113 51.9509 48.1655 51.8479 47.1232C51.745 46.0808 51.2839 45.1064 50.543 44.366C49.6935 43.5186 48.543 43.0423 47.3431 43.041ZM47.3431 49.071C46.994 49.0706 46.6558 48.9491 46.3863 48.7273C46.1167 48.5055 45.9324 48.1971 45.8647 47.8546C45.797 47.5122 45.85 47.1568 46.0149 46.8491C46.1798 46.5414 46.4464 46.3005 46.7691 46.1672C47.0918 46.034 47.4506 46.0167 47.7846 46.1184C48.1185 46.2201 48.4069 46.4344 48.6005 46.7249C48.7942 47.0153 48.8812 47.3639 48.8466 47.7113C48.812 48.0587 48.6581 48.3834 48.4111 48.63C48.1274 48.9125 47.7434 49.0711 47.3431 49.071Z" fill="#54AF3A"/>
</svg>
