<svg width="95" height="95" viewBox="0 0 95 95" fill="none" xmlns="http://www.w3.org/2000/svg">
<path d="M24.468 13.4689C16.5972 18.5035 10.619 26.0069 7.47016 34.8036C4.32137 43.6004 4.17993 53.1933 7.068 62.079C7.13176 62.2748 7.23349 62.456 7.36732 62.6125C7.50115 62.769 7.6645 62.8978 7.84803 62.9911C8.03157 63.0845 8.23167 63.1406 8.43696 63.1567C8.64226 63.1727 8.8487 63.1482 9.0445 63.0844C9.24031 63.0207 9.42164 62.9189 9.57814 62.7851C9.73463 62.6513 9.86324 62.4879 9.95661 62.3044C10.05 62.1208 10.1063 61.9208 10.1223 61.7155C10.1384 61.5102 10.1138 61.3036 10.05 61.1078C7.37211 52.8804 7.50177 43.9968 10.4186 35.851C13.3354 27.7052 18.8743 20.7585 26.166 16.101C26.3437 15.9916 26.4976 15.8479 26.619 15.6782C26.7403 15.5085 26.8266 15.3162 26.8726 15.1127C26.9187 14.9093 26.9236 14.6985 26.8872 14.4931C26.8508 14.2877 26.7738 14.0917 26.6606 13.9164C26.5474 13.7412 26.4004 13.5903 26.2281 13.4726C26.0558 13.3549 25.8618 13.2731 25.6574 13.2314C25.453 13.1897 25.2423 13.1891 25.0377 13.2299C24.8331 13.2707 24.6388 13.352 24.466 13.4689H24.468ZM67.935 13.9409C67.8242 14.1137 67.7486 14.3069 67.7125 14.509C67.6763 14.7111 67.6804 14.9181 67.7244 15.1186C67.7685 15.3191 67.8516 15.5091 67.9691 15.6774C68.0865 15.8458 68.236 15.9895 68.409 16.1C75.7028 20.7556 81.2434 27.7021 84.1604 35.8486C87.0775 43.995 87.2057 52.8796 84.525 61.1069C84.3963 61.5023 84.4298 61.9327 84.6184 62.3034C84.807 62.6741 85.1351 62.9547 85.5305 63.0834C85.926 63.2122 86.3563 63.1785 86.727 62.9899C87.0977 62.8014 87.3783 62.4733 87.507 62.0778C90.3989 53.1913 90.2583 43.5962 87.1072 34.7983C83.9562 26.0003 77.9731 18.4978 70.097 13.468C69.7473 13.2451 69.3235 13.1696 68.9184 13.2582C68.5133 13.3469 68.1597 13.5923 67.935 13.9409Z" fill="#54AF3A"/>
<path d="M24.771 27.1433L18.262 28.4712C18.0572 28.5078 17.8617 28.585 17.6871 28.6982C17.5126 28.8115 17.3624 28.9587 17.2456 29.1309C17.1287 29.303 17.0475 29.4969 17.0067 29.7009C16.9659 29.905 16.9663 30.1152 17.0079 30.3191C17.0495 30.523 17.1316 30.7165 17.2491 30.8882C17.3667 31.0599 17.5174 31.2063 17.6924 31.3188C17.8674 31.4314 18.0631 31.5079 18.2681 31.5437C18.4731 31.5795 18.6832 31.574 18.886 31.5273L21.6939 30.9592L21.1859 31.7253C18.228 36.1802 16.4632 41.3198 16.0605 46.6521C15.6578 51.9844 16.6307 57.3306 18.886 62.1792C19.064 62.5507 19.3811 62.8374 19.7688 62.9768C20.1564 63.1162 20.5833 63.0973 20.9572 62.9243C21.3311 62.7513 21.6218 62.438 21.7664 62.0522C21.911 61.6665 21.8979 61.2394 21.73 60.8633C19.6989 56.4997 18.8225 51.6876 19.1846 46.8882C19.5467 42.0887 21.1352 37.4626 23.7979 33.4531L24.2979 32.6992L24.864 35.4873C24.9466 35.8949 25.1877 36.2531 25.5344 36.4829C25.8811 36.7127 26.3049 36.7953 26.7125 36.7126C27.1201 36.63 27.4782 36.3889 27.708 36.0422C27.9379 35.6956 28.0206 35.2719 27.938 34.8643L26.629 28.4124C26.5561 28.0041 26.3268 27.6401 25.99 27.3982C25.7372 27.2197 25.4373 27.12 25.128 27.1113C25.0094 27.1125 24.891 27.1226 24.774 27.1414L24.771 27.1433ZM68.179 27.8123C68.0264 27.9512 67.9029 28.1189 67.8156 28.3059C67.7284 28.4929 67.6791 28.6954 67.6705 28.9016C67.662 29.1078 67.6944 29.3135 67.7658 29.5071C67.8373 29.7006 67.9464 29.8782 68.0869 30.0293C71.1313 33.3526 73.3317 37.3594 74.5023 41.7117C75.6729 46.064 75.7795 50.634 74.813 55.0361L74.6129 55.9363L73.0689 53.5273C72.8439 53.181 72.4911 52.9376 72.0873 52.8503C71.6836 52.7631 71.2617 52.839 70.9137 53.0615C70.5657 53.284 70.3198 53.635 70.2295 54.0381C70.1393 54.4412 70.2121 54.8635 70.432 55.2131L73.952 60.7002C74.0501 60.886 74.1859 61.0493 74.3507 61.1797C74.5155 61.31 74.7056 61.4046 74.909 61.4573C75.1214 61.515 75.3435 61.5283 75.5614 61.4963C75.7792 61.4643 75.9881 61.3877 76.175 61.2712L81.775 57.6921C82.1236 57.4683 82.369 57.1152 82.4573 56.7104C82.5455 56.3057 82.4693 55.8823 82.2455 55.5337C82.0216 55.1851 81.6684 54.9398 81.2636 54.8516C80.8589 54.7633 80.4356 54.8394 80.087 55.0632L77.668 56.6082L77.868 55.7083C78.9421 50.817 78.8246 45.7391 77.5252 40.9028C76.2259 36.0665 73.7828 31.6135 70.402 27.9192C70.1186 27.6149 69.7273 27.434 69.3119 27.4153C68.8966 27.3966 68.4905 27.5418 68.181 27.8193L68.179 27.8123Z" fill="#54AF3A"/>
<path d="M47.289 42.7471C45.7435 42.7489 44.2331 43.2086 42.9488 44.0684C41.6645 44.9281 40.6639 46.1494 40.0733 47.5776C39.4827 49.0059 39.3287 50.577 39.6307 52.0928C39.9327 53.6085 40.6773 55.0007 41.7702 56.0935C42.8631 57.1863 44.2554 57.9306 45.7712 58.2324C47.2869 58.5343 48.8582 58.3801 50.2864 57.7893C51.7145 57.1985 52.9355 56.1977 53.7951 54.9133C54.6548 53.6289 55.1144 52.1185 55.116 50.573C55.1071 48.5 54.2795 46.5146 52.8136 45.0488C51.3476 43.5831 49.362 42.7558 47.289 42.7471ZM47.289 45.873C48.2163 45.8746 49.1223 46.1508 49.8927 46.667C50.663 47.1832 51.2632 47.9162 51.6173 48.7732C51.9715 49.6302 52.0637 50.573 51.8824 51.4824C51.7011 52.3918 51.2544 53.2271 50.5987 53.8828C49.943 54.5385 49.1077 54.9852 48.1983 55.1665C47.2889 55.3478 46.3461 55.2555 45.4891 54.9014C44.6321 54.5472 43.8992 53.9471 43.383 53.1768C42.8669 52.4064 42.5905 51.5003 42.589 50.573C42.5858 49.9549 42.7052 49.3424 42.9403 48.7708C43.1754 48.1991 43.5214 47.6795 43.9585 47.2424C44.3955 46.8054 44.9149 46.4594 45.4866 46.2244C46.0583 45.9893 46.6709 45.8699 47.289 45.873Z" fill="#54AF3A"/>
<path d="M44.793 31.8057C44.417 31.805 44.0533 31.9398 43.7685 32.1853C43.4837 32.4308 43.2968 32.7708 43.242 33.1428L42.811 35.9277C41.8622 36.2236 40.941 36.6018 40.058 37.0579L37.81 35.3848C37.5089 35.163 37.1384 35.0562 36.7654 35.0835C36.3925 35.1108 36.0416 35.2704 35.776 35.5337L32.237 39.0637C31.9701 39.3289 31.808 39.6814 31.7805 40.0566C31.7529 40.4318 31.8617 40.8044 32.087 41.1057L33.757 43.3628C33.2837 44.2356 32.9003 45.1543 32.613 46.1047L29.833 46.5198C29.4615 46.5738 29.1217 46.7596 28.8757 47.0432C28.6297 47.3268 28.4939 47.6893 28.493 48.0647V53.0647C28.4937 53.4402 28.6295 53.803 28.8755 54.0867C29.1215 54.3703 29.4614 54.5561 29.833 54.6099L32.616 55.0288C32.9102 55.9778 33.2866 56.8992 33.741 57.7827L32.074 60.0369C31.8523 60.3377 31.7459 60.7079 31.7739 61.0806C31.802 61.4532 31.9627 61.8036 32.227 62.0679L35.763 65.5977C36.0287 65.8649 36.3817 66.0276 36.7575 66.0557C37.1333 66.0838 37.5066 65.9755 37.809 65.7507L40.072 64.0837C40.9527 64.542 41.8719 64.9221 42.819 65.2197L43.232 68.0007C43.2893 68.37 43.4769 68.7067 43.7608 68.9497C44.0447 69.1927 44.4063 69.326 44.78 69.3257H49.787C50.1607 69.3258 50.5221 69.1925 50.806 68.9495C51.0899 68.7065 51.2775 68.37 51.335 68.0007L51.76 65.2097C52.7114 64.9239 53.6325 64.5455 54.51 64.0798L56.767 65.7498C57.0688 65.9719 57.4402 66.0786 57.8138 66.0505C58.1875 66.0225 58.5388 65.8614 58.804 65.5967L62.34 62.0667C62.604 61.8021 62.7643 61.4518 62.7918 61.0791C62.8193 60.7064 62.7122 60.3361 62.49 60.0356L60.82 57.7578C61.2934 56.8885 61.6758 55.9725 61.961 55.0247L64.745 54.6086C65.1171 54.5553 65.4576 54.3699 65.7042 54.0862C65.9508 53.8025 66.087 53.4396 66.088 53.0637V48.0637C66.0872 47.6878 65.951 47.3247 65.7044 47.041C65.4578 46.7573 65.1172 46.5719 64.745 46.5188L61.945 46.1028C61.6596 45.155 61.2838 44.2369 60.823 43.3608L62.487 41.1047C62.7123 40.8033 62.8212 40.4305 62.7936 40.0552C62.7661 39.6798 62.6039 39.3271 62.337 39.0618L58.801 35.5317C58.5353 35.2676 58.1837 35.1074 57.8101 35.0801C57.4364 35.0527 57.0653 35.1602 56.764 35.3828L54.495 37.0627C53.6234 36.5875 52.7035 36.2066 51.751 35.9268L51.332 33.1428C51.2773 32.7715 51.091 32.4322 50.807 32.1868C50.523 31.9413 50.1603 31.806 49.785 31.8057H44.793ZM46.145 34.9329H48.433L48.803 37.3909C48.8494 37.7024 48.9888 37.9926 49.2029 38.2236C49.417 38.4547 49.6959 38.6158 50.003 38.6858C51.339 38.9939 52.6137 39.5241 53.774 40.2546C54.0415 40.4223 54.3534 40.5054 54.6688 40.4929C54.9843 40.4804 55.2886 40.3731 55.542 40.1848L57.542 38.7068L59.172 40.3218L57.692 42.3218C57.5056 42.5735 57.3993 42.8755 57.3868 43.1885C57.3743 43.5015 57.4562 43.8109 57.622 44.0767C58.3505 45.238 58.8779 46.5141 59.182 47.8508C59.2523 48.1586 59.4142 48.4379 59.6462 48.6521C59.8782 48.8663 60.1695 49.0053 60.482 49.0508L62.956 49.4197V51.7197L60.491 52.0889C60.1775 52.1334 59.8849 52.2719 59.6517 52.4861C59.4186 52.7003 59.2559 52.9802 59.185 53.2888C58.8806 54.6217 58.3532 55.8936 57.625 57.0508C57.4572 57.3177 57.374 57.6291 57.3865 57.9441C57.399 58.2591 57.5066 58.5629 57.695 58.8157L59.175 60.8157L57.545 62.4429L55.557 60.9648C55.3033 60.7759 54.9984 60.668 54.6823 60.6555C54.3662 60.643 54.0538 60.7264 53.786 60.8948C52.6221 61.6225 51.3443 62.1499 50.006 62.4548C49.6994 62.5245 49.4209 62.6847 49.2068 62.915C48.9928 63.1453 48.8531 63.435 48.806 63.7459L48.436 66.2158H46.136L45.778 63.7459C45.7309 63.435 45.5913 63.1453 45.3772 62.915C45.1631 62.6847 44.8846 62.5245 44.578 62.4548C43.2436 62.1492 41.9699 61.6219 40.81 60.8948C40.5425 60.7272 40.2306 60.6443 39.9152 60.6567C39.5997 60.6692 39.2954 60.7767 39.042 60.9648L37.029 62.4429L35.411 60.8157L36.879 58.8308C37.0674 58.5782 37.1748 58.2746 37.1873 57.9597C37.1998 57.6449 37.1167 57.3334 36.949 57.0667C36.2234 55.9048 35.6991 54.629 35.398 53.2927C35.3281 52.9858 35.1671 52.707 34.9363 52.4929C34.7054 52.2788 34.4154 52.1394 34.104 52.0928L31.63 51.7239V49.4238L34.092 49.0547C34.4022 49.0087 34.6914 48.8706 34.9221 48.6582C35.1528 48.4458 35.3144 48.1691 35.386 47.8638C35.6946 46.5265 36.2261 45.2508 36.958 44.0898C37.1236 43.8245 37.2057 43.5155 37.1935 43.2029C37.1814 42.8903 37.0757 42.5884 36.89 42.3367L35.41 40.3276L37.04 38.7126L39.028 40.1787C39.2815 40.3669 39.5858 40.4743 39.9012 40.4868C40.2166 40.4993 40.5285 40.4163 40.796 40.2488C41.9563 39.525 43.2301 39.0016 44.564 38.7007C44.8732 38.6334 45.1546 38.4741 45.3713 38.2437C45.5881 38.0132 45.7299 37.7223 45.778 37.4097L46.145 34.9329Z" fill="#54AF3A"/>
<path d="M34.758 0.542969C33.516 0.547962 32.3262 1.04314 31.4475 1.9209C30.5688 2.79866 30.0723 3.98799 30.066 5.22998V11.4829C30.8562 12.3329 31.2954 13.4506 31.2954 14.6111C31.2954 15.7716 30.8562 16.8891 30.066 17.739V23.9919C30.072 25.234 30.5685 26.4235 31.4473 27.3013C32.326 28.1791 33.5159 28.6742 34.758 28.679H59.82C61.0632 28.6755 62.2548 28.1811 63.1351 27.3032C64.0154 26.4253 64.5132 25.2351 64.52 23.9919V17.739C63.7281 16.8899 63.2877 15.7722 63.2877 14.6111C63.2877 13.45 63.7281 12.332 64.52 11.4829V5.22998C64.5132 3.98677 64.0154 2.79658 63.1351 1.9187C62.2548 1.04083 61.0632 0.546379 59.82 0.542969H34.758ZM34.758 3.6731H42.6V13.053H34.761C34.5542 13.0574 34.3486 13.0198 34.1567 12.9424C33.9649 12.865 33.7908 12.7495 33.6449 12.6028C33.499 12.4561 33.3845 12.2812 33.3082 12.0889C33.2319 11.8966 33.1954 11.6907 33.201 11.4839V5.23096C33.1955 5.02494 33.232 4.82011 33.3083 4.62866C33.3846 4.43722 33.499 4.2632 33.6447 4.11743C33.7904 3.97166 33.9642 3.85717 34.1556 3.78076C34.347 3.70435 34.552 3.66773 34.758 3.6731ZM45.717 3.6731H59.817C60.0232 3.66732 60.2284 3.70362 60.42 3.77979C60.6117 3.85595 60.7859 3.97026 60.9319 4.11597C61.0779 4.26167 61.1926 4.43566 61.2692 4.6272C61.3457 4.81873 61.3824 5.02379 61.377 5.22998V11.4829C61.3826 11.6897 61.3461 11.8956 61.2698 12.0879C61.1935 12.2802 61.079 12.4551 60.9331 12.6018C60.7872 12.7485 60.6131 12.864 60.4213 12.9414C60.2294 13.0188 60.0239 13.0564 59.817 13.052H45.717V3.6731ZM37.893 6.79712C37.584 6.79771 37.2821 6.88966 37.0255 7.06177C36.7688 7.23387 36.569 7.47826 36.4511 7.76392C36.3333 8.04957 36.3028 8.36375 36.3634 8.66675C36.4241 8.96974 36.5732 9.24802 36.7919 9.46631C37.0106 9.6846 37.2891 9.833 37.5922 9.89307C37.8953 9.95313 38.2094 9.9221 38.4948 9.80371C38.7802 9.68532 39.0242 9.485 39.1958 9.22803C39.3674 8.97106 39.459 8.66911 39.459 8.36011C39.4577 7.94574 39.292 7.54879 38.9985 7.25635C38.7049 6.96391 38.3074 6.79978 37.893 6.80005V6.79712ZM50.424 6.79712C50.0095 6.79712 49.6119 6.96176 49.3188 7.25488C49.0257 7.548 48.861 7.94557 48.861 8.36011C48.861 8.77464 49.0257 9.17197 49.3188 9.46509C49.6119 9.75821 50.0095 9.9231 50.424 9.9231H56.759C57.1735 9.9231 57.5711 9.75821 57.8642 9.46509C58.1573 9.17197 58.322 8.77464 58.322 8.36011C58.322 7.94557 58.1573 7.548 57.8642 7.25488C57.5711 6.96176 57.1735 6.79712 56.759 6.79712H50.424ZM34.758 16.1799H42.6V25.5471H34.761C34.5548 25.5529 34.3496 25.5166 34.158 25.4404C33.9663 25.3643 33.7921 25.2497 33.6461 25.104C33.5001 24.9583 33.3854 24.7843 33.3088 24.5928C33.2323 24.4012 33.1956 24.1962 33.201 23.99V17.7371C33.196 17.5314 33.233 17.3267 33.3095 17.1357C33.386 16.9448 33.5006 16.7713 33.6462 16.626C33.7918 16.4806 33.9655 16.3664 34.1566 16.2903C34.3477 16.2141 34.5523 16.1778 34.758 16.1831V16.1799ZM45.717 16.1799H59.817C60.0232 16.1742 60.2284 16.2105 60.42 16.2866C60.6117 16.3628 60.7859 16.4773 60.9319 16.623C61.0779 16.7688 61.1926 16.9425 61.2692 17.134C61.3457 17.3256 61.3824 17.5309 61.377 17.7371V23.99C61.3824 24.1962 61.3457 24.4012 61.2692 24.5928C61.1926 24.7843 61.0779 24.9583 60.9319 25.104C60.7859 25.2497 60.6117 25.3643 60.42 25.4404C60.2284 25.5166 60.0232 25.5529 59.817 25.5471H45.717V16.1799ZM37.893 19.301C37.584 19.3016 37.2821 19.3938 37.0255 19.5659C36.7688 19.738 36.569 19.9822 36.4511 20.2678C36.3333 20.5535 36.3028 20.8677 36.3634 21.1707C36.4241 21.4736 36.5732 21.7519 36.7919 21.9702C37.0106 22.1885 37.2891 22.3372 37.5922 22.3972C37.8953 22.4573 38.2094 22.426 38.4948 22.3076C38.7802 22.1892 39.0242 21.9889 39.1958 21.7319C39.3674 21.475 39.459 21.173 39.459 20.864C39.4589 20.6585 39.4182 20.455 39.3395 20.2651C39.2607 20.0753 39.1454 19.9028 38.9999 19.7576C38.8545 19.6123 38.6819 19.4972 38.492 19.4187C38.3021 19.3402 38.0985 19.3009 37.893 19.301ZM50.424 19.3069C50.0109 19.3069 49.6148 19.4711 49.3227 19.7632C49.0306 20.0553 48.8665 20.4514 48.8665 20.8645C48.8665 21.2776 49.0306 21.6737 49.3227 21.9658C49.6148 22.2579 50.0109 22.4221 50.424 22.4221H56.759C57.172 22.4221 57.5682 22.2579 57.8603 21.9658C58.1524 21.6737 58.3165 21.2776 58.3165 20.8645C58.3165 20.4514 58.1524 20.0553 57.8603 19.7632C57.5682 19.4711 57.172 19.3069 56.759 19.3069H50.424Z" fill="#54AF3A"/>
<path d="M5 66.209C3.75714 66.2119 2.56576 66.7059 1.68542 67.5833C0.805087 68.4606 0.307108 69.6502 0.299988 70.8931V77.1499C1.09194 77.9984 1.53241 79.116 1.53241 80.2766C1.53241 81.4373 1.09194 82.5546 0.299988 83.4031V89.6589C0.307108 90.9018 0.805087 92.0914 1.68542 92.9688C2.56576 93.8461 3.75714 94.3401 5 94.343H30.063C31.3047 94.3388 32.4945 93.8443 33.3733 92.967C34.2521 92.0898 34.7487 90.9006 34.755 89.6589V83.3999C33.9648 82.5506 33.5255 81.4335 33.5255 80.2734C33.5255 79.1133 33.9648 77.9963 34.755 77.147V70.8899C34.7487 69.6482 34.2521 68.4593 33.3733 67.582C32.4945 66.7047 31.3047 66.2103 30.063 66.2061L5 66.209ZM5 69.323H12.836V78.7061H5C4.79382 78.7118 4.58865 78.6755 4.39697 78.5994C4.20529 78.5232 4.03112 78.4086 3.88513 78.2629C3.73914 78.1172 3.62438 77.9435 3.54785 77.752C3.47132 77.5604 3.43462 77.3551 3.44 77.1489V70.8921C3.4344 70.6853 3.47088 70.4794 3.54718 70.2871C3.62348 70.0948 3.73798 69.9199 3.88385 69.7732C4.02972 69.6265 4.2039 69.511 4.39575 69.4336C4.58761 69.3562 4.79317 69.3186 5 69.323ZM15.971 69.323H30.062C30.2688 69.3186 30.4744 69.3562 30.6663 69.4336C30.8581 69.511 31.0322 69.6265 31.1781 69.7732C31.324 69.9199 31.4385 70.0948 31.5148 70.2871C31.5911 70.4794 31.6276 70.6853 31.622 70.8921V77.1489C31.6274 77.3551 31.5907 77.5604 31.5142 77.752C31.4376 77.9435 31.3229 78.1172 31.1769 78.2629C31.0309 78.4086 30.8567 78.5232 30.665 78.5994C30.4734 78.6755 30.2682 78.7118 30.062 78.7061H15.974L15.971 69.323ZM20.663 72.449C20.248 72.449 19.8499 72.614 19.5564 72.9075C19.2629 73.201 19.098 73.5989 19.098 74.0139C19.098 74.429 19.2629 74.8271 19.5564 75.1206C19.8499 75.4141 20.248 75.5791 20.663 75.5791H27C27.4151 75.5791 27.8131 75.4141 28.1066 75.1206C28.4001 74.8271 28.565 74.429 28.565 74.0139C28.565 73.5989 28.4001 73.201 28.1066 72.9075C27.8131 72.614 27.4151 72.449 27 72.449H20.663ZM8.13501 72.4551C7.82601 72.4557 7.5241 72.5479 7.26746 72.72C7.01082 72.8921 6.81096 73.1362 6.69312 73.4219C6.57528 73.7075 6.54476 74.0217 6.60541 74.3247C6.66605 74.6277 6.81517 74.906 7.03387 75.1243C7.25258 75.3426 7.53106 75.4912 7.83417 75.5513C8.13728 75.6113 8.45139 75.5801 8.73682 75.4617C9.02224 75.3433 9.26619 75.143 9.43781 74.886C9.60942 74.629 9.70099 74.3271 9.70099 74.0181C9.70046 73.6038 9.53559 73.2067 9.24255 72.9138C8.94952 72.621 8.55228 72.4563 8.138 72.4561L8.13501 72.4551ZM12.835 81.832V91.2151H5C4.79382 91.2209 4.58865 91.1846 4.39697 91.1084C4.20529 91.0322 4.03112 90.9177 3.88513 90.772C3.73914 90.6263 3.62438 90.4523 3.54785 90.2607C3.47132 90.0692 3.43462 89.8641 3.44 89.658V83.3999C3.43441 83.1931 3.47083 82.9873 3.54712 82.7949C3.62341 82.6026 3.738 82.4278 3.88385 82.281C4.0297 82.1342 4.20383 82.0184 4.39569 81.9409C4.58755 81.8634 4.79312 81.8258 5 81.8301L12.835 81.832ZM15.97 81.832H30.061C30.2679 81.8276 30.4736 81.8652 30.6655 81.9426C30.8575 82.0201 31.0316 82.1359 31.1775 82.2827C31.3234 82.4295 31.4379 82.6045 31.5142 82.7969C31.5904 82.9893 31.6267 83.1952 31.621 83.4021V89.658C31.6264 89.8641 31.5897 90.0692 31.5131 90.2607C31.4366 90.4523 31.3218 90.6263 31.1758 90.772C31.0299 90.9177 30.8557 91.0322 30.6641 91.1084C30.4724 91.1846 30.2672 91.2209 30.061 91.2151H15.974L15.97 81.832ZM20.662 84.959C20.2469 84.959 19.8489 85.124 19.5554 85.4175C19.2619 85.711 19.097 86.1089 19.097 86.5239C19.097 86.939 19.2619 87.3371 19.5554 87.6306C19.8489 87.9241 20.2469 88.0891 20.662 88.0891H27C27.4151 88.0891 27.8131 87.9241 28.1066 87.6306C28.4001 87.3371 28.565 86.939 28.565 86.5239C28.565 86.1089 28.4001 85.711 28.1066 85.4175C27.8131 85.124 27.4151 84.959 27 84.959H20.662ZM8.13397 84.959C7.82497 84.9596 7.52312 85.0518 7.26648 85.2239C7.00984 85.396 6.80998 85.6404 6.69214 85.926C6.5743 86.2117 6.54372 86.5259 6.60437 86.8289C6.66502 87.1319 6.81413 87.4099 7.03284 87.6282C7.25155 87.8465 7.53008 87.9951 7.83319 88.0552C8.1363 88.1152 8.45041 88.0842 8.73584 87.9658C9.02127 87.8474 9.26516 87.6471 9.43677 87.3901C9.60838 87.1332 9.70001 86.831 9.70001 86.522C9.69843 86.1085 9.53321 85.7125 9.24054 85.4204C8.94786 85.1283 8.55151 84.9637 8.138 84.9629L8.13397 84.959Z" fill="#54AF3A"/>
<path d="M64.515 66.209C63.2722 66.2119 62.0808 66.7059 61.2004 67.5833C60.3201 68.4606 59.8221 69.6502 59.815 70.8931V77.1499C60.607 77.9984 61.0474 79.116 61.0474 80.2766C61.0474 81.4373 60.607 82.5546 59.815 83.4031V89.6589C59.8221 90.9018 60.3201 92.0914 61.2004 92.9688C62.0808 93.8461 63.2722 94.3401 64.515 94.343H89.577C90.8187 94.3388 92.0085 93.8443 92.8873 92.967C93.766 92.0898 94.2627 90.9006 94.269 89.6589V83.3999C93.4788 82.5506 93.0396 81.4335 93.0396 80.2734C93.0396 79.1133 93.4788 77.9963 94.269 77.147V70.8899C94.2627 69.6482 93.766 68.4593 92.8873 67.582C92.0085 66.7047 90.8187 66.2103 89.577 66.2061L64.515 66.209ZM64.515 69.323H72.339V78.7061H64.515C64.3088 78.7118 64.1036 78.6755 63.9119 78.5994C63.7202 78.5232 63.5461 78.4086 63.4001 78.2629C63.2542 78.1172 63.1394 77.9435 63.0629 77.752C62.9863 77.5604 62.9496 77.3551 62.955 77.1489V70.8921C62.9494 70.6853 62.9858 70.4794 63.0621 70.2871C63.1384 70.0948 63.253 69.9199 63.3989 69.7732C63.5447 69.6265 63.7189 69.511 63.9108 69.4336C64.1026 69.3562 64.3082 69.3186 64.515 69.323ZM75.474 69.323H89.574C89.7808 69.3186 89.9864 69.3562 90.1783 69.4336C90.3701 69.511 90.5443 69.6265 90.6901 69.7732C90.836 69.9199 90.9506 70.0948 91.0269 70.2871C91.1032 70.4794 91.1396 70.6853 91.134 70.8921V77.1489C91.1394 77.3551 91.1027 77.5604 91.0261 77.752C90.9496 77.9435 90.8348 78.1172 90.6888 78.2629C90.5429 78.4086 90.3687 78.5232 90.1771 78.5994C89.9854 78.6755 89.7802 78.7118 89.574 78.7061H75.474V69.323ZM80.174 72.449C79.7589 72.449 79.3609 72.614 79.0674 72.9075C78.7739 73.201 78.609 73.5989 78.609 74.0139C78.609 74.429 78.7739 74.8271 79.0674 75.1206C79.3609 75.4141 79.7589 75.5791 80.174 75.5791H86.508C86.9231 75.5791 87.3211 75.4141 87.6146 75.1206C87.9081 74.8271 88.073 74.429 88.073 74.0139C88.073 73.5989 87.9081 73.201 87.6146 72.9075C87.3211 72.614 86.9231 72.449 86.508 72.449H80.174ZM66.074 74.0181C66.0734 74.3279 66.1648 74.631 66.3365 74.8889C66.5082 75.1468 66.7525 75.3481 67.0386 75.467C67.3247 75.586 67.6397 75.6175 67.9437 75.5574C68.2476 75.4973 68.527 75.3483 68.7463 75.1294C68.9656 74.9105 69.115 74.6315 69.1757 74.3276C69.2363 74.0238 69.2055 73.7087 69.0871 73.4224C68.9687 73.136 68.7679 72.8914 68.5103 72.7192C68.2527 72.547 67.9499 72.4551 67.64 72.4551C67.2262 72.4567 66.8298 72.6219 66.5376 72.915C66.2454 73.2081 66.0813 73.6052 66.081 74.019L66.074 74.0181ZM72.332 81.8311V91.2141H64.508C64.3018 91.2199 64.0967 91.1836 63.905 91.1074C63.7133 91.0313 63.5391 90.9167 63.3931 90.771C63.2471 90.6253 63.1324 90.4513 63.0558 90.2598C62.9793 90.0682 62.9426 89.8632 62.948 89.657V83.3999C62.9424 83.1931 62.9789 82.9873 63.0552 82.7949C63.1315 82.6026 63.246 82.4278 63.3918 82.281C63.5377 82.1342 63.7118 82.0184 63.9037 81.9409C64.0955 81.8634 64.3011 81.8258 64.508 81.8301L72.332 81.8311ZM75.467 81.8311H89.567C89.7739 81.8266 89.9796 81.8642 90.1715 81.9417C90.3634 82.0191 90.5376 82.1349 90.6835 82.2817C90.8294 82.4286 90.9439 82.6035 91.0201 82.7959C91.0964 82.9883 91.1328 83.194 91.127 83.4009V89.657C91.1324 89.8632 91.0957 90.0682 91.0192 90.2598C90.9426 90.4513 90.8279 90.6253 90.6819 90.771C90.5359 90.9167 90.3617 91.0313 90.17 91.1074C89.9784 91.1836 89.7732 91.2199 89.567 91.2141H75.467V81.8311ZM80.167 84.958C79.7519 84.958 79.3539 85.1228 79.0604 85.4163C78.7669 85.7098 78.602 86.1079 78.602 86.5229C78.602 86.938 78.7669 87.3361 79.0604 87.6296C79.3539 87.9231 79.7519 88.0879 80.167 88.0879H86.501C86.916 88.0879 87.3141 87.9231 87.6076 87.6296C87.9011 87.3361 88.066 86.938 88.066 86.5229C88.066 86.1079 87.9011 85.7098 87.6076 85.4163C87.3141 85.1228 86.916 84.958 86.501 84.958H80.167ZM66.067 86.5239C66.0664 86.8338 66.1578 87.1369 66.3295 87.3948C66.5012 87.6527 66.7455 87.8539 67.0316 87.9729C67.3177 88.0919 67.6327 88.1233 67.9366 88.0632C68.2406 88.0031 68.5199 87.8544 68.7393 87.6355C68.9586 87.4166 69.108 87.1374 69.1687 86.8335C69.2294 86.5296 69.1985 86.2148 69.0801 85.9285C68.9616 85.6421 68.7609 85.3973 68.5034 85.2251C68.2458 85.0529 67.9428 84.9609 67.633 84.9609C67.2202 84.9644 66.8255 85.1307 66.5348 85.4238C66.2441 85.717 66.081 86.1131 66.081 86.5259L66.067 86.5239Z" fill="#54AF3A"/>
</svg>
