<svg width="95" height="95" viewBox="0 0 95 95" fill="none" xmlns="http://www.w3.org/2000/svg">
<path d="M84.745 35.8948V0.546875H80.83V35.8948C78.0935 36.3475 75.6068 37.757 73.8127 39.8723C72.0187 41.9876 71.0338 44.6712 71.0338 47.4448C71.0338 50.2185 72.0187 52.9018 73.8127 55.0171C75.6068 57.1324 78.0935 58.5422 80.83 58.9949V94.3428H84.745V58.9949C87.4814 58.5422 89.9683 57.1324 91.7623 55.0171C93.5564 52.9018 94.5411 50.2185 94.5411 47.4448C94.5411 44.6712 93.5564 41.9876 91.7623 39.8723C89.9683 37.757 87.4814 36.3475 84.745 35.8948ZM82.788 55.2588C81.2427 55.256 79.733 54.7953 78.4495 53.9348C77.166 53.0743 76.1663 51.8525 75.5769 50.4241C74.9875 48.9956 74.8348 47.4247 75.1379 45.9094C75.4411 44.3942 76.1865 43.0028 77.2802 41.9111C78.3738 40.8194 79.7666 40.0763 81.2823 39.7759C82.7981 39.4754 84.3689 39.6312 85.7963 40.2231C87.2236 40.8151 88.4435 41.8168 89.3018 43.1018C90.16 44.3868 90.618 45.8976 90.618 47.4429C90.6141 49.517 89.7874 51.5046 88.3195 52.97C86.8515 54.4353 84.8621 55.2585 82.788 55.2588Z" fill="#54AF3A"/>
<path d="M45.6 0.546875V59.3467C42.8635 59.7994 40.3767 61.209 38.5826 63.3242C36.7886 65.4395 35.8038 68.1231 35.8038 70.8967C35.8038 73.6704 36.7886 76.354 38.5826 78.4692C40.3767 80.5845 42.8635 81.9941 45.6 82.4468V94.3467H49.515V82.4468C52.2514 81.9941 54.7383 80.5845 56.5323 78.4692C58.3264 76.354 59.3112 73.6704 59.3112 70.8967C59.3112 68.1231 58.3264 65.4395 56.5323 63.3242C54.7383 61.209 52.2514 59.7994 49.515 59.3467V0.546875H45.6ZM55.387 70.8918C55.3897 72.4411 54.9329 73.9561 54.0742 75.2456C53.2155 76.5351 51.9936 77.541 50.5631 78.1357C49.1326 78.7305 47.5579 78.8875 46.0381 78.5869C44.5183 78.2864 43.1217 77.5418 42.0253 76.4473C40.9288 75.3528 40.1818 73.9577 39.8785 72.4385C39.5753 70.9192 39.7294 69.3442 40.3217 67.9126C40.9139 66.481 41.9175 65.2572 43.2054 64.3962C44.4934 63.5352 46.0078 63.0757 47.557 63.0757C49.6305 63.0767 51.6188 63.9002 53.0861 65.3652C54.5533 66.8303 55.3798 68.8174 55.384 70.8909L55.387 70.8918Z" fill="#54AF3A"/>
<path d="M10.364 0.547119V14.3999C7.62758 14.8526 5.14075 16.2624 3.34668 18.3777C1.55261 20.493 0.567871 23.1763 0.567871 25.95C0.567871 28.7236 1.55261 31.4072 3.34668 33.5225C5.14075 35.6377 7.62758 37.0473 10.364 37.5V94.343H14.2791V37.5C17.0155 37.0473 19.5022 35.6377 21.2963 33.5225C23.0903 31.4072 24.0752 28.7236 24.0752 25.95C24.0752 23.1763 23.0903 20.493 21.2963 18.3777C19.5022 16.2624 17.0155 14.8526 14.2791 14.3999V0.545898L10.364 0.547119ZM20.151 25.947C20.1538 27.4962 19.6969 29.0115 18.8383 30.301C17.9796 31.5905 16.7576 32.5961 15.3271 33.1909C13.8966 33.7857 12.3218 33.9429 10.802 33.6423C9.28221 33.3418 7.88575 32.5972 6.78931 31.5027C5.69286 30.4082 4.94571 29.0129 4.64246 27.4937C4.3392 25.9744 4.49347 24.3993 5.08569 22.9678C5.67791 21.5362 6.68154 20.3127 7.96948 19.4517C9.25742 18.5907 10.7718 18.1311 12.321 18.1311C14.3955 18.1314 16.3851 18.9547 17.8531 20.4204C19.3212 21.8862 20.1476 23.8745 20.151 25.949V25.947Z" fill="#54AF3A"/>
</svg>
